<svg id="Layer_1" preserveAspectRatio="none" data-name="Layer 1" xmlns="http://www.w3.org/2000/svg" viewBox="0 0 93.06 41.36"><defs><style>.cls-1{fill:#2f486b;}.cls-2{fill:#fff;}</style></defs><path class="cls-1" d="M4.4,35.62a1.39,1.39,0,0,0,1.16.92C5.23,35.84,4.87,35.54,4.4,35.62Z"/><path class="cls-1" d="M5.57,36.55h0Z"/><path class="cls-1" d="M89.84,4.15l-.36,0A.51.51,0,0,0,89.84,4.15Z"/><path class="cls-1" d="M26.61,38.63l.06-1.2c1,0,.3,1.37,1.25,1.08.38-1.7,1.59.17,1.92-.73,0,.14.46.19.43.72.14-.92.48-.21.77-.45.11-.26-.08-.27-.16-.55l.68-.33c.26.3.32.84,0,.94,1.76.33,10.21,1.21,12.11.75-.24-.69-.83-.22-1.05-1.32.5-.61.74.22,1-.43.19,1.63,1.1.39,1.48,2l.15-.92.24.56c2.21-1,.51-.46,2.46-.25,1.14-.14,1.67-1.42,2.3-.95-.09,0-.34-.57,0-.81,0,.81.78-.58.93.24.28-.1,1.21,0,.9-1.1.16.55,1,.78.49,1.25.28,0,.56.2.76,0l-.36-.31c.94-.16,1.46.69,2.07-.31l-.35-.44c.57-.07,1-.15,1.26.94l-.58.34a3.43,3.43,0,0,0,2.29-.68l-.28,0c1-1.1,6.2-2,7.12-3.37L64,32.42l.79-.71c-.09,0-.38,2.76-.46,2.48,1.69-.08,10.48-.74,12-.17.63.47.11,1.35.1,1.49.77-.32.33-.9,1-.83.18.15,0,.66-.13.79.28-.1.55.19.57-.21-.36-.31-.21-1.36-.36-2l.84.09,0,.66c.19,0,.48-1.82,1.3-1.46,1.39.29,2.9.06,4.3.21a1.24,1.24,0,0,1-.61.87c.19,0,.47-.08.64.2-.33-.7.59-.47.33-.76,1-1.63,2.34-.14,3.25-1.25.08-1.46,1.93-25.12,1.93-26.86.28,0,.56.06.65.2a.61.61,0,0,0-.92-.37l0,.94c-.67.32-.16-.56-.82-.49,0-.77.58-.93,1.11-1-.48-.09-1-.65-1.16.19-.45-.32.05-.94-.49-1.26-.39.22-.89,1-1.34.52V3.51c-1.08-.78-1.66,1.16-2.64.38l.1-.25c-.35-.44-1,.15-1.66-.32.18.15.33.7,0,.79-.72-.48-1.22,0-1.75-.59l-.5.75c-2.53-.15-12.49.91-15,1l.1-.12c-3.86.38-11.79.32-15.78,1.35-.61-.74-1.46-.56-2.11-.77.36.31.24.83,0,.8-2-.09-.13.51-2.12.82-2.28.68-11-.09-13-.72-1.09,1.08-2.45.26-3.52,1l.11-.26c-1.14.41-7.63-.59-9-.21l.18.16c-1.17.67-1-.51-1.92-.88a1.93,1.93,0,0,1-1.26,2l0-.26c-.57.2-1.87,1.26-2.82,1.42l0-.66c-.79.71-2.27.41-2.84.48C9.72,9.12,7.72,8,6,8.84L4.87,6.94l-.17.19S2.9,30,5.19,34.9l0,.67.46-.09c.54.33.79-.44.75.22l-.74-.08c.54.19.16.55,0,.92a1.37,1.37,0,0,1,.63.35c.1-.26-.08-.28-.17-.42.29-.24.7-.86,1.06-.55.56.06,0,1.07.69,1.14,3.43.52,6.76,1.29,10.24,1.14.08.27,0,.26-.12.39,1.05-.29,2-.19,2.93-.48a2.24,2.24,0,0,1,.42,1C21.1,38.54,26.52,38.49,26.61,38.63Z"/><path class="cls-2" d="M30.71,15.28V11.47h2.07v3.81Zm1.77,7,2.86-7H30.71V13.66h6.94v1.79l-2.87,6.78Z"/><path class="cls-2" d="M38.62,22.23V20.61h2.56a1.85,1.85,0,0,0,1-.27,1.45,1.45,0,0,0,.58-.75A3.06,3.06,0,0,0,43,18.51V17.38a3,3,0,0,0-.18-1.07,1.45,1.45,0,0,0-.58-.75,1.77,1.77,0,0,0-1-.28H38.62V13.66H41.8a3.62,3.62,0,0,1,1.94.48,3,3,0,0,1,1.16,1.34,4.89,4.89,0,0,1,.39,2v.89a4.9,4.9,0,0,1-.39,2,3,3,0,0,1-1.16,1.33,3.62,3.62,0,0,1-1.94.48Z"/><path class="cls-2" d="M46.52,22.23V20.61h2.33V16.27a1,1,0,0,0-.23-.79,1.1,1.1,0,0,0-.64-.26l-1.12-.15.29-1.59,2,.24a2.1,2.1,0,0,1,1.5.79,2.71,2.71,0,0,1,.51,1.7v6Z"/><path class="cls-2" d="M53.72,22.38l-.88-7.1,2.19-1,.7,6.14a5.94,5.94,0,0,0,1.19-.21,2.35,2.35,0,0,0,.84-.4,2.12,2.12,0,0,0,.53-.63,3,3,0,0,0,.26-.86,5.82,5.82,0,0,0,0-1.13v-.45a1.89,1.89,0,0,0-.15-.79,1.23,1.23,0,0,0-.43-.52,1.15,1.15,0,0,0-.67-.19h-4.5l-.22-1.62h4.9A3.32,3.32,0,0,1,60,14.5a3.2,3.2,0,0,1,.9,2.28l0,.5a4.67,4.67,0,0,1-.44,2.34A3.78,3.78,0,0,1,59,21.16a7.54,7.54,0,0,1-2.29.88A16.63,16.63,0,0,1,53.72,22.38Z"/><path class="cls-2" d="M62.48,22.23V20.61h3.23a2.23,2.23,0,0,0,.83-.15,1.52,1.52,0,0,0,.61-.42,1.94,1.94,0,0,0,.38-.66,2.72,2.72,0,0,0,.14-.89V17.38a3,3,0,0,0-.19-1.07,1.64,1.64,0,0,0-.59-.75,1.7,1.7,0,0,0-1-.28H64.73l-.29,1.28a1.06,1.06,0,0,0,.1.84,1.41,1.41,0,0,0,.88.42l-.37,1.35a3.62,3.62,0,0,1-1.78-.41,1.74,1.74,0,0,1-.8-1,3.09,3.09,0,0,1,0-1.4l.64-2.7h3.36a3.61,3.61,0,0,1,1.91.48,3.14,3.14,0,0,1,1.21,1.34,4.38,4.38,0,0,1,.43,2v.9A4.59,4.59,0,0,1,69.7,20a3.23,3.23,0,0,1-1.93,2,4.29,4.29,0,0,1-1.52.26Z"/><path class="cls-2" d="M79.92,22.23H77.47l-3-4.37-1.42,4.37H70.86l1.77-5.15.5-1.15-1.49-2.27H74l1.27,1.95,1.15,1.64.43-1.37.64-2.22h2.19l-1.92,5.46Z"/></svg>