<svg id="Layer_1" data-name="Layer 1" xmlns="http://www.w3.org/2000/svg" viewBox="0 0 102.64 47.49"><defs><style>.cls-1{fill:#2f486b;}.cls-2{font-size:15px;fill:#fff;font-family:Assistant-Bold, Assistant;font-weight:700;}.cls-3{fill:#1d1d1b;font-family:Assistant-SemiBold, Assistant;font-weight:600;}</style></defs><path class="cls-1" d="M10.48,40.57a1.34,1.34,0,0,0,1.16.91C11.3,40.79,11,40.49,10.48,40.57Z"/><path class="cls-1" d="M11.65,41.5h0a0,0,0,0,1,0,0Z"/><path class="cls-1" d="M95.91,9.1l-.35,0A.43.43,0,0,0,95.91,9.1Z"/><path class="cls-1" d="M32.68,43.58l.07-1.2c1,0,.3,1.37,1.25,1.08.37-1.7,1.58.17,1.91-.73,0,.14.46.19.43.72.15-.92.48-.22.78-.45.1-.26-.08-.28-.16-.55l.67-.33c.27.3.33.84,0,.94,1.76.33,10.21,1.21,12.11.75-.24-.69-.83-.22-1-1.32.5-.61.74.22,1-.43.19,1.63,1.1.39,1.48,2l.14-.92.25.56c2.21-1,.51-.47,2.46-.25,1.13-.14,1.67-1.42,2.3-1-.09,0-.34-.57,0-.81,0,.81.78-.58.92.24.29-.1,1.22,0,.91-1.11.16.56,1,.78.49,1.26.28,0,.55.2.75,0l-.36-.3c.95-.17,1.47.69,2.08-.31L60.72,41c.57-.07,1-.15,1.26.94l-.58.34a3.43,3.43,0,0,0,2.29-.68l-.28,0c1-1.1,6.2-2,7.12-3.37l-.42-.85.79-.71c-.1,0-.38,2.75-.46,2.48,1.69-.08,10.48-.74,12-.17.63.47.12,1.35.11,1.48.77-.31.33-.9,1-.82.18.15,0,.66-.13.78.28-.1.55.2.57-.2-.36-.31-.21-1.36-.36-2.05l.84.1,0,.66c.19,0,.48-1.82,1.3-1.46,1.39.29,2.9,0,4.3.21a1.29,1.29,0,0,1-.61.87c.18,0,.47-.08.64.2-.33-.7.59-.47.33-.76,1-1.63,2.34-.15,3.25-1.25.08-1.46,1.93-25.13,1.93-26.86.28,0,.56.06.65.2a.61.61,0,0,0-.92-.37l0,.93c-.68.33-.16-.55-.82-.49,0-.76.57-.92,1.11-1-.48-.08-1-.64-1.16.19-.45-.31,0-.93-.49-1.25-.39.22-.9,1-1.34.52V8.46c-1.09-.79-1.66,1.16-2.65.38L90,8.58c-.35-.44-1,.16-1.67-.31.18.15.34.7,0,.79-.72-.48-1.22,0-1.75-.59l-.51.74c-2.52-.14-12.48.92-15,1l.1-.12c-3.86.37-11.79.32-15.78,1.35-.61-.74-1.47-.57-2.11-.77.36.3.24.83,0,.8-2-.09-.14.5-2.12.82-2.28.68-11-.1-13-.72-1.09,1.08-2.45.26-3.52,1l.11-.26c-1.15.41-7.63-.6-9-.21l.18.16c-1.16.67-1-.52-1.91-.89a1.94,1.94,0,0,1-1.26,2l0-.26c-.58.2-1.87,1.26-2.82,1.42l0-.67c-.79.72-2.27.42-2.84.49-1.29-.27-3.29-1.43-5-.55L11,11.89l-.17.19S9,35,11.27,39.85l0,.67.45-.09c.55.33.8-.44.76.22l-.74-.08c.54.19.16.54,0,.92a1.14,1.14,0,0,1,.63.35c.11-.26-.08-.28-.16-.42.29-.24.7-.86,1.06-.56.56.07,0,1.08.69,1.15,3.43.52,6.76,1.29,10.24,1.14.07.27,0,.26-.12.38,1.05-.28,2-.18,2.93-.48a2.46,2.46,0,0,1,.42,1C27.18,43.49,32.6,43.44,32.68,43.58Z"/><text class="cls-2" transform="translate(30.59 30.79) scale(1.06 1)">הרפסמ<tspan class="cls-3"><tspan x="-103.71" y="33.85">ורפתסהו שארמ רות ומאת</tspan><tspan x="-90.99" y="50.78">-סיסבב ירחסמה זכרמב</tspan><tspan x="-37.68" y="67.7">54-55623433</tspan><tspan x="-36.6" y="84.63">-החיתפ תועש</tspan><tspan x="14.1" y="101.55" xml:space="preserve"> :ה-א</tspan><tspan x="-6.19" y="118.48" xml:space="preserve"> :הקספה</tspan></tspan></text></svg>