<svg id="Layer_1" data-name="Layer 1" xmlns="http://www.w3.org/2000/svg" viewBox="0 0 112.35 44.81"><defs><style>.cls-1{fill:#2f486b;}.cls-2{font-size:15px;fill:#fff;font-family:Assistant-Bold, Assistant;font-weight:700;}.cls-3{fill:#1d1d1b;font-family:Assistant-SemiBold, Assistant;font-weight:600;}</style></defs><path class="cls-1" d="M5.17,37a1.63,1.63,0,0,0,1.4.92C6.17,37.2,5.74,36.9,5.17,37Z"/><path class="cls-1" d="M6.58,37.91h0Z"/><path class="cls-1" d="M108,5.51l-.43,0A.71.71,0,0,0,108,5.51Z"/><path class="cls-1" d="M31.91,40,32,38.8c1.24,0,.36,1.37,1.51,1.07.44-1.7,1.9.18,2.3-.72,0,.13.55.18.51.71.18-.92.58-.21.94-.45.12-.25-.1-.27-.19-.55l.81-.33c.31.3.39.84.05.94,2.12.33,12.3,1.22,14.58.76-.29-.7-1-.23-1.26-1.32.6-.62.89.21,1.15-.43.23,1.62,1.33.39,1.79,2l.17-.92.3.57c2.65-1,.61-.47,3-.25,1.36-.15,2-1.42,2.77-.95-.11,0-.41-.58-.06-.81.06.81.94-.58,1.11.23.35-.1,1.47,0,1.09-1.1.19.55,1.19.78.59,1.26.34,0,.67.19.91,0l-.43-.31c1.13-.16,1.75.7,2.5-.31l-.42-.44c.68-.07,1.25-.15,1.51,1l-.7.33A4.72,4.72,0,0,0,69.23,38l-.33,0c1.2-1.09,7.47-2,8.57-3.37L77,33.79l1-.72c-.11,0-.45,2.76-.55,2.48,2-.08,12.62-.74,14.5-.16.76.47.14,1.34.13,1.48.93-.32.4-.9,1.19-.83.21.15-.05.67-.17.79.34-.1.66.19.69-.2-.43-.31-.25-1.37-.43-2.05l1,.09,0,.67c.23,0,.57-1.82,1.57-1.47,1.67.29,3.49.06,5.17.21,0,.4-.38.64-.73.87.22,0,.56-.08.77.21-.4-.71.71-.47.39-.77,1.23-1.63,2.83-.14,3.92-1.24.09-1.47,2.32-25.13,2.32-26.87.34,0,.68.06.78.21a.77.77,0,0,0-1.1-.37l-.06.93c-.82.33-.19-.56-1-.49,0-.76.69-.93,1.33-1-.58-.09-1.15-.65-1.39.19-.54-.32.06-.93-.59-1.26-.47.23-1.08,1-1.61.52V4.88c-1.3-.79-2,1.15-3.18.37L101,5c-.42-.44-1.25.15-2-.32.21.15.4.71-.06.8-.87-.48-1.46,0-2.1-.6l-.61.75c-3-.15-15,.92-18.08,1l.12-.11c-4.65.37-14.19.31-19,1.34-.75-.74-1.77-.56-2.55-.77.43.31.29.83,0,.8-2.36-.08-.16.51-2.55.82-2.75.69-13.27-.09-15.71-.72-1.31,1.08-3,.27-4.23,1l.12-.26c-1.37.41-9.18-.59-10.79-.2l.22.15c-1.4.67-1.21-.51-2.31-.88a2,2,0,0,1-1.51,2V9.51c-.68.21-2.25,1.26-3.38,1.42l0-.66c-1,.71-2.73.42-3.41.49-1.56-.28-4-1.44-6.06-.56L5.74,8.31l-.2.18s-2.17,22.9.58,27.78l0,.66.55-.09c.65.33,1-.44.91.22L6.64,37c.66.2.2.55,0,.92a1.7,1.7,0,0,1,.76.35c.13-.25-.1-.27-.2-.42.35-.23.84-.86,1.27-.55.68.06.05,1.07.83,1.15,4.14.51,8.15,1.28,12.33,1.13.1.28,0,.27-.14.39,1.26-.29,2.38-.18,3.53-.48a2.23,2.23,0,0,1,.5,1C25.28,39.9,31.8,39.85,31.91,40Z"/><text class="cls-2" transform="translate(-18.97 -106.26) scale(1.06 1)">הכרדהה תיירק ל״מח<tspan class="cls-3"><tspan x="-10.56" y="33.85" xml:space="preserve"> תמישמ לע יארחא םרוג</tspan><tspan x="19.77" y="50.78">.הדיחיב החטבאה</tspan><tspan x="-34.67" y="67.7"> ,םוריח ירקמל יעצבמ ל״מח</tspan><tspan x="78.81" y="84.63" xml:space="preserve"> - ןופלט</tspan></tspan></text><text class="cls-2" transform="translate(48.24 28.58) scale(1.06 1)"><tspan xml:space="preserve"> תביבס</tspan><tspan class="cls-3"><tspan x="-298.59" y="40" xml:space="preserve"> ןיב הלועפ ףותיש לש ידוחיי טפסנוק לע תנעשנ הכרדהה תיירק</tspan><tspan x="-320.66" y="60" xml:space="preserve"> תויונמדזה רשפאמ הז דחוימ םקרמ .םייחרזא לועפת ימרוגל ל”הצ</tspan><tspan x="-251.67" y="80">.ל”הצב תורשכהה םודיקל הריציו תוחתפתהל תונווגמ</tspan></tspan></text></svg>