<svg id="Layer_1" data-name="Layer 1" xmlns="http://www.w3.org/2000/svg" viewBox="0 0 98.43 48.64"><defs><style>.cls-1{fill:#2f486b;}.cls-2{font-size:15px;fill:#fff;font-family:Assistant-Bold, Assistant;font-weight:700;}.cls-3{fill:#1d1d1b;font-family:Assistant-SemiBold, Assistant;font-weight:600;}</style></defs><path class="cls-1" d="M5.92,39.82a1.36,1.36,0,0,0,1.16.91C6.75,40,6.39,39.74,5.92,39.82Z"/><path class="cls-1" d="M7.09,40.75h0Z"/><path class="cls-1" d="M91.36,8.35l-.36,0A.51.51,0,0,0,91.36,8.35Z"/><path class="cls-1" d="M28.13,42.83l.06-1.2c1,0,.3,1.37,1.26,1.07.37-1.69,1.58.18,1.91-.72,0,.13.46.19.43.72.14-.92.48-.22.77-.45.11-.26-.08-.28-.16-.56l.68-.32c.26.3.33.84,0,.94,1.76.33,10.22,1.21,12.11.75-.24-.7-.83-.23-1-1.32.5-.61.74.21,1-.43.19,1.63,1.1.39,1.48,2l.15-.92L47,43c2.2-1,.5-.47,2.46-.25,1.13-.14,1.67-1.42,2.29-1-.09,0-.34-.57-.05-.81.05.81.79-.58.93.24.29-.1,1.22,0,.9-1.11.16.56,1,.78.49,1.26.28,0,.56.2.76,0L54.44,41c.94-.16,1.46.7,2.08-.3l-.35-.44c.56-.07,1-.15,1.26.94l-.58.34a3.37,3.37,0,0,0,2.28-.69l-.28,0c1-1.09,6.21-2,7.12-3.36l-.42-.85.79-.72c-.09,0-.38,2.76-.46,2.49,1.69-.08,10.49-.74,12.05-.17.63.47.11,1.35.1,1.48.77-.31.33-.9,1-.82.17.15,0,.66-.14.78.28-.1.55.2.57-.2-.36-.31-.2-1.36-.36-2.05l.84.09,0,.67c.18,0,.47-1.82,1.29-1.46,1.39.29,2.9,0,4.3.21,0,.4-.32.63-.61.87.19,0,.47-.09.65.2-.34-.7.58-.47.32-.77,1-1.62,2.35-.14,3.25-1.24C89.18,34.52,91,10.85,91,9.11c.28,0,.56.07.65.21A.61.61,0,0,0,90.76,9l-.05.93c-.67.33-.16-.55-.81-.49,0-.76.57-.92,1.1-1-.48-.09-1-.64-1.15.19-.46-.31.05-.93-.5-1.25-.38.22-.89,1-1.34.51V7.71c-1.08-.79-1.65,1.16-2.64.38l.1-.26c-.35-.44-1,.15-1.66-.32.18.16.33.71,0,.8-.72-.48-1.21,0-1.74-.59l-.51.74c-2.52-.14-12.49.92-15,1l.1-.12c-3.86.37-11.78.31-15.77,1.34-.62-.73-1.47-.56-2.12-.76.36.3.24.82,0,.79-2-.08-.13.51-2.12.83-2.28.68-11-.1-13-.72-1.09,1.08-2.45.26-3.51.94l.1-.25c-1.14.41-7.63-.6-9-.21l.18.15c-1.16.68-1-.51-1.92-.88a1.94,1.94,0,0,1-1.26,2l0-.26c-.57.2-1.87,1.26-2.82,1.42l0-.67c-.79.72-2.27.42-2.84.49-1.29-.27-3.29-1.43-5-.55l-1.12-1.9-.16.19S4.42,34.22,6.71,39.1l0,.66.46-.08c.54.33.79-.44.75.22l-.74-.08c.55.19.16.54,0,.92a1.18,1.18,0,0,1,.63.35c.1-.26-.08-.28-.17-.42.3-.24.7-.86,1.06-.56.56.07,0,1.08.69,1.15,3.44.51,6.77,1.28,10.24,1.13.08.28,0,.27-.12.39,1.05-.28,2-.18,2.93-.48a2.33,2.33,0,0,1,.42,1C22.62,42.73,28,42.68,28.13,42.83Z"/><text class="cls-2" transform="translate(25.99 30.9) scale(1.06 1)">היירפס<tspan class="cls-3"><tspan x="-40.8" y="33.85">-תוליעפ תועש</tspan><tspan x="11.44" y="50.78" xml:space="preserve"> -ה-א</tspan><tspan x="-31.64" y="67.7">9:00-22:000</tspan><tspan x="-150.31" y="84.63" xml:space="preserve"> םייחרזא םיבשחמ םימייק היירפסב</tspan><tspan x="-129.6" y="101.55" xml:space="preserve"> ,הספדהל הייצפוא םע םייאבצו</tspan><tspan x="-121.11" y="118.48" xml:space="preserve"> יפל םיגווסמה םירפסו רתנספ</tspan><tspan x="-6" y="135.4">.םיאשונ</tspan></tspan></text></svg>