<svg id="Layer_1" data-name="Layer 1" xmlns="http://www.w3.org/2000/svg" viewBox="0 0 94.01 45.9"><defs><style>.cls-1{fill:#2f486b;}.cls-2{font-size:15px;fill:#fff;font-family:Assistant-Bold, Assistant;font-weight:700;}.cls-3{fill:#1d1d1b;font-family:Assistant-SemiBold, Assistant;font-weight:600;}</style></defs><path class="cls-1" d="M4.94,38.08A1.35,1.35,0,0,0,6.1,39C5.76,38.3,5.41,38,4.94,38.08Z"/><path class="cls-1" d="M6.11,39h0Z"/><path class="cls-1" d="M90.37,6.61l-.35,0A.47.47,0,0,0,90.37,6.61Z"/><path class="cls-1" d="M27.14,41.09l.07-1.2c1,0,.3,1.37,1.25,1.07.38-1.69,1.59.18,1.91-.72,0,.13.46.18.43.71.15-.92.48-.21.78-.44.1-.26-.08-.28-.16-.56l.67-.32c.27.29.33.84,0,.94,1.76.33,10.21,1.21,12.11.75-.24-.7-.83-.23-1-1.32.5-.61.74.21,1-.43.19,1.63,1.1.39,1.48,2l.14-.93.25.57c2.21-1,.51-.47,2.46-.25,1.13-.14,1.67-1.42,2.3-1-.09,0-.34-.58,0-.81,0,.81.78-.58.93.24.28-.11,1.21,0,.9-1.11.16.55,1,.78.49,1.26.28,0,.55.2.75-.05l-.35-.31c.94-.16,1.46.7,2.07-.3l-.35-.44c.57-.07,1-.16,1.26.94l-.58.34a3.38,3.38,0,0,0,2.29-.69l-.28,0c1-1.09,6.2-2,7.12-3.36l-.42-.85.79-.72c-.1,0-.38,2.76-.46,2.48,1.69-.08,10.48-.73,12-.16.63.47.12,1.35.11,1.48.77-.32.33-.9,1-.83.18.16,0,.67-.13.79.28-.1.55.19.57-.2-.36-.31-.21-1.36-.36-2l.84.09,0,.67c.19,0,.48-1.82,1.3-1.46,1.39.28,2.9.05,4.3.21a1.27,1.27,0,0,1-.61.86c.18,0,.47-.08.64.21-.33-.71.59-.47.33-.77,1-1.62,2.34-.14,3.25-1.24.08-1.46,1.93-25.13,1.93-26.87.28,0,.56.07.65.21a.61.61,0,0,0-.92-.37l0,.93c-.68.33-.16-.55-.82-.49,0-.76.57-.93,1.11-1-.48-.09-1-.64-1.16.19-.45-.32,0-.93-.49-1.26-.39.23-.9,1-1.34.52V6c-1.08-.79-1.66,1.16-2.65.38l.11-.26c-.35-.44-1,.15-1.67-.32.18.16.34.71,0,.8-.72-.48-1.22,0-1.75-.59l-.51.74c-2.52-.14-12.48.92-15,1l.1-.12C61.76,8,53.83,8,49.84,9c-.61-.73-1.47-.56-2.11-.77.36.31.24.83,0,.8-2-.08-.14.51-2.12.82-2.28.69-11-.09-13-.72-1.09,1.09-2.45.27-3.52,1l.11-.25c-1.15.41-7.63-.6-9-.21l.17.15c-1.16.68-1-.51-1.91-.88a1.94,1.94,0,0,1-1.26,2l0-.27c-.58.21-1.87,1.26-2.82,1.43l0-.67c-.79.72-2.27.42-2.84.49-1.29-.28-3.29-1.43-5-.55L5.41,9.4l-.17.19s-1.8,22.89.49,27.77l0,.66.45-.08c.55.32.8-.45.76.22l-.74-.08c.54.19.16.54,0,.92a1.19,1.19,0,0,1,.63.34c.11-.25-.08-.27-.16-.42.29-.23.7-.85,1.06-.55.56.06,0,1.08.69,1.15,3.43.51,6.76,1.28,10.24,1.13.08.28,0,.27-.12.39,1.05-.28,2-.18,2.93-.48a2.35,2.35,0,0,1,.42,1C21.64,41,27.06,40.94,27.14,41.09Z"/><text/><text class="cls-2" transform="translate(13.92 29.52) scale(1.06 1)">יתיירק ךות<tspan class="cls-3" x="44.33" y="33.85">- וק</tspan><tspan class="cls-3" x="-126.27" y="50.78"> תא תרשמו הכרדהה תיירק יבחרב</tspan><tspan class="cls-3" x="-34.75" y="67.7">.סיסבה ילייח ללכ</tspan></text></svg>