<svg id="Layer_1" data-name="Layer 1" xmlns="http://www.w3.org/2000/svg" xmlns:xlink="http://www.w3.org/1999/xlink" viewBox="0 0 423.01 282.35"><defs><style>.cls-1{fill:none;clip-rule:evenodd;}.cls-2{clip-path:url(#clip-path);}</style><clipPath id="clip-path"><path class="cls-1" d="M18.7,216.29c1.27-.43-1.19-1.88,1.53-1.44.53.69,1.4,1.49.76,1.83-.16-1.23-.72-.66-1.27-.08a8.8,8.8,0,0,1,2.28,1,5.37,5.37,0,0,1,6-2.43,7.54,7.54,0,0,1-1.18,1.71c-.84-.58-1.09-1-.74-1.19-.79-.62-.63.3-1,.32,1.62.5.86,1.07,2,1.9l.78-.71c2,1.52-.86,1.53-.16,2.64,1.46,1-.24-.85,1.27-.55,1.94,1.7-.15,1.23.24,2.29,2.46,1.27,2.12-.71,3.17-1.06.67-.22,1.64.68,1.28-.55a4.67,4.67,0,0,0,3.41,0c-.54-.32-.81-.23-1.38-.6.73-1,2.77.14,4.79,1.22.58.73-.81.13-.39,1,1.43-.58,1.69.61,4,1.3.87-.69,1.47-2.23,3.29-.5,1.69-.53,1.85-1.94,4-1.19-1.41-2.45,1.84-1.61,3.69-1.45,0,1,.25,1.79-.93,2.06,1.07,1,2.4.73,1.88.16A4.86,4.86,0,0,1,58.31,223c.3,1.49-2.86.25-1.66,2.11a10.66,10.66,0,0,0,4.91-1.31c.53-.38.78-2.9,1.91-1.08,1.23.28-.16-3.12,3.27-.43,2.69-1.89,5.63-2.92,9.09-4.78.78.65-.41.58-.42.95,1.28.47.07.41,1.32,1.27a4.64,4.64,0,0,0-.64-2.44c2.94.62,2-3.45,5.49-1.6,0-.86.29-1.12,1.5-.07-.35-1.77,2.75-.27,2.74-1.65,3.36,3-.82,2.42-.5,3.93,2.34.15,3.09-2.35,5.64-2.23a6.68,6.68,0,0,1,2.88-3.46c1.29,1.16,1.54,1.89.82,2.23.79.65.71-.31,1.15-.32-1-1-1-1.57-1-2.14,2.82.8,1.52-2.14,4.4-1.7l-.7-.61c2.8-3.11,5.09-6.27,8-8.84a34.25,34.25,0,0,1,3.94-2.52,6.78,6.78,0,0,0,3.16-3.62c1.21.37,1.46,1.67,1.21,1.9a5.65,5.65,0,0,0,2.73-1.35c-1.41-1.45-.25.42-1.22-.26-.7-.73.47-.55.54-.91.36,0,.36.46,1,1,3.12-2.39,5-4.59,8.68-6.24,1.9,2.82-4,1.42-1.48,4.13-.51-1.85,1.8-.5,2-1.3,1.33,1.65-1,1.12-1.6,1l1,1c-1-.73-1.09-.32-1.18.24a7.88,7.88,0,0,0-2.19-1.77c.5,1.23-1.48.58.13,2.07-.25.87-1.55-.76-1.79.12.77.95.93.46,1.57,1.1-.14.54-.82-.21-1,.15-.44-.54.18-.57-1-1.48-.48.71-.63,2-2,1.86.88.47.4.41,1.29,1.28-.19.54-1.16-.7-1.35-.16.31.31.42.13.6.13a19.8,19.8,0,0,1-4.78,4.68,24.44,24.44,0,0,0-4.73,4.27c-.51.05-.37-.61-1.16-.84-.68.53-2.57.18-.63,2.13-1.07.1-.85,1.48-2.78.4.88,1.26-1.1.44.08,1.64-.37.12-1.18-.62-1.78-.93,0,.53-.11,3.15-1.82,1.94,1.11,2-1.4,1.41-.13,3a2.84,2.84,0,0,1-2.28-1.1c-.1.17.53.64.92,1-2.07.22-3.23,1.61-4.33,3.07s-2.09,3-4,3.52c1.7,1.09-.62.59.42,1.42a29.17,29.17,0,0,0-7.39,5.07c-2.08,2-4,4.05-5.85,6.11,6.11-3.93,13.17-9.1,16.53-14.42.67.11,1.57,1.72,2.38,1.58-1-1.18-.7-1.73,0-1.74-1.11-1-.36-1.35.62-1.63.51.42,1,.84.92,1-.4-1.53,1.16-2,3.34-1.46-.36-.3-.7-.6-1.05-.91,1.85-.23,3.38-1.24,2.9-3.37,1.55,1.49.65,1,2.15,2.35-.34-.73-1.17-1.67-1.4-2.35,2.39-1.66,5.35-2.56,6-6.16.78.63.44.74.25.93,2.14-2.6,5.88-4.26,9.65-5.91s7.69-3.19,10.39-5.6c.26-.26.71,0,1.37.72.9-3.33,5.62-3.9,9-4l-1.2-1.35a8.25,8.25,0,0,0,8.07-3.15c.28.34.05.38,0,.52,1.63.27,1.73-2.61,4.7-.56-.19-.56-.39-.58-.85-1,2.53-.19,5.85-.35,6.08-2.24.56-.23.58,1.33,1,1,.88-1.48,2.87-1.75,5.59-1.37-2,.82-2.24,5.5-5.87,4.48.37,1.53,1.51.9,2.38,2.24-2.07.56-7.07-2.79-7.06.8.4-.91,2.11-1.36,3.89.41-.26-1.23,1.27-.37,1.74-.94,1.08,2.93-1.83.31-1.9,2.54l.57.69c.63.58,0-.29-.43-.78,1.39.13,2.59-.28,4.28-.3,1,1.75-.66,1.81-1.86,1.51.42.43.69.42,1.13.9-.37.75-1.55-1-2-.44,1.11,1,2,1.27,2.69,1.06.32,1.77-2.57-.56-3.26.76,1,1.56.25,1.81-.55,1.81,2.24,2.72,1.36,0,1.27-.69,1.32.19,1.26-.6,2.4-.79.21,0,.36.31.28.35,1.38-.58-.9-2.71,2-2.57.94,1.91-.66,1.13-.72,2.38.22.55.9,1.37,1.12,1.91-.3.75-2.62-.37-2.09,1.13a6.16,6.16,0,0,0,3.62-.95c-1.06-1.11-.39,0-1,0-2.1-2.39.54-.65-.84-2.57.9-.23,2,3.16,2.51,2.16-.28-.34-.39-.18-.55-.2a1.65,1.65,0,0,1-.14-.93c1.71,1.74,2.11.79,3.35.27.35.63-.18,1.59.68,1.13-.8.19-2.85,1.28-4,.61.08,1.41-2.23,1.46-4.33.33-1.71.29-3.85,1.39-6.57,1.65a12.34,12.34,0,0,1-2.1,2,21.51,21.51,0,0,1-2.51,1.68c-1.8,1-3.8,1.92-5.71,2.95-3.86,2-7.49,4.4-8.81,8.55-1.4.22-2.39,1.29-4.19.72.77.75,2.55.67,1.79,1.5,1,.64,1.41.28,2.62,1.46.23,1.87-2.92,1.32-2.14,3.69a5.27,5.27,0,0,1,2.09,2.38c-2.89-2.26-4-1.13-6.52-2.52-.69,0,.14.78,0,1.08,1-.35,2.75.82,3.59.2,1.48,1.12.52,1.06.83,1.61a1.91,1.91,0,0,0,1.56,0c.92.85.46.78,1.34,1.26-.25.51-.83.39-1.76-.41-.69.74-.92,1.59-2.26,1.63,1.42,3.07-2.18,2.75-3.64,3.26-.59,0,.43.8.19,1-1.23,2.27-7.66,1.95-6.77,5.77-1.06-.22-.9.6.56,1.87,1.72.71,2.39-.34,4.28.68,1,1,1.84,1.88,1.51,2.27-1.64-.94-.31,1.32-2.61-.85-1.29-.81,1.55,1.6,1.77,1.51-1.32.79.78,3.52,0,4.08,2.28.77.16-2.37,2.25-3,.3-.17,1.54,1.23,2.23,1.71,1.4,1.29-.27,1.23.23,2.13,1.72,1.26.33-1.16,2.59.27-.28-1.18.28-3.68,3.4-.9a10.11,10.11,0,0,1,2.23-2,17.34,17.34,0,0,1,2.83-1.4,45.84,45.84,0,0,1,6.48-1.88c4.4-1.08,8.58-2,10.43-5,.45,0,.36.6,1.09.89-.49-1.11,1.17-.18.85-1.09,1.36,1.91-.31,1.66-1.12,1.8s-.78,1.67-1.77,1.76c-1.55.17-2.75,2.06-4.44,3.08,1.76,2.33-.75,1.37-.85,2.27,1.52,1.09,2.24-.51,2.31-1.09a8.9,8.9,0,0,0,3.71,1.22l-1-.95a.75.75,0,0,0,1-.15c.61.56.56.76,1.22,1.34-1.33-1.78,1-1,2.26-.46,0-.55-1-.76-1.43-1.19.49-.22.89.13.8-.56.32-.15,1.11,1,.88,1,.62,0,.12-.94,1.47-.47,1.3,1.09-.32.68,1.08,1.44-.59.8-.42,2-.51,3.07,1,.72.8-1.86,2.46-.6.5,1.69-.84,2.11-1.92,2.4,1,.74,1.69.81,2,.27.31.31.11.34.1.47.41.36.48.13.66.09-1,.68-.26,1.94-1.11,2.94,2.69,2.21-.86,1.1.8,2.75.94-2.46,4.95,0,5.26-2.55.24,0,.86.38.77.57,1.44.8,1.09-1.29,2.82-.3-1.79-2.72,1.3-1.44,2.16-1.92-.22-1.39.82-2.41,2-3.3s2.31-1.81,2.36-3.11c1.58,1.42.5-.57,2.55.55-.45-.42-.68-.41-1.14-.87,2.66.84,3.6-.27,6.43.86.9,1-1.22,0,.26,1.39,1.38-.57,1.19-1.89,3.68-.56a2.69,2.69,0,0,1-.65-1.66c.41.09,1.52,1.72,1.61,1.13-.73-1-.81-.57-1.39-1.25a1.37,1.37,0,0,0,1.69-.43c.23.83.75,1,1.53,2.18-.14.55-1.28-1-1.32-.27,1.28,1.13,1.71.44,3.09,1.82.28.1-1.39-1.74-1.37-1.26-1.81-2.07-1.45-3.09,0-2,.32.41.05.4,0,.52.6.34,1.5,1.36,2,1.45a11.31,11.31,0,0,1-1.88-3c1,.62,1.06-.78,2.07-.08.65,1-1.35.08.29,1.84-.55-1.51.56-.54,1.63.15-1.66-1.78.34-2.49,2.34-.23.55,0-1-2.24.45-.73-.8-1.3-.3-1.58.06-2,.5.59.43.71.34.82,1.12,1.1-.87-3.09,1.47-.72-.34-.41-.46-.65-.44-.77.41.29.4.61,1,1,.07-.46-.29-.6-1-1.48a25.05,25.05,0,0,0,2.83,2c-.4-.55-1-1.5-.55-1.69.62,1.81,2,1.75.79.11.21.06,1.32.9,1.27,1.35.14,0-.77-2.38,1-.47-.64-2.07,1.5-1.29,3,.56.52.67.49-.28.35-.65.19-.23,1.07,1.38,1.17.91-.05,1-.91,1.16-1.86,1.34-.9-1.28.31-.72-.69-2.09-.18.77-1.55-1.53-1.71-.67.33.42.41.22.58.23,1.19,2.17,1.16,3.25.73,4,1.18.88,1.06-.49.79-1.31,1.65,1.48,1.84-.77,4.29,2.86-.46-1.75,1.52.46,2.63,1.22-.68-1.76-1.37-1.06-2.11-2-1.1-1.81,1.51,1.1.89-.36.74.45.49,1.29,1.26,1.83.73-.54.81-2.75,2.65-1.58.3.52,0,.41-.15.53.7.53.53.37,1.27,1.36-.25-.44.18-.62.19-.08.64.55-.38-2,.56-1.15a7.23,7.23,0,0,1-.82-1.07l.38-.15c.17.35.35.7.29.81,1-1.37,3.46-1.11,3.82-3.27.22-.07.57,1.05.26.82.63.85.77.05.43-.6,1.74,1.44,1-.49,2.62.44-1.4-2.69,1.08-.54,0-2.27.25-.51.91,1.74,1,1.48a8.15,8.15,0,0,1,1.76-.1l.82,1.54c.39,0-.34-.58-.43-1.22,1,1.36.06-1.44,1.5.87.08-.27-.12-.66-.51-1.19a3.53,3.53,0,0,1,1.36,1.84c.45.94.29-.32.86,1.09,0-.32-.35-.7-.59-1.16,1.1.72,1.39-.52,2.47.21-.37-.54-.56-.94-.48-1.21.46.94,1.27,1.44,1.39,2.29.38.5.83.73.7.25a21.28,21.28,0,0,1,1.2,2.34c-.54-.16-1.35-.35-2.05-2.11-.13.1.57,1.32.32,1.26-.74-.64-1.69-1.91-2.7-1.94.48.88.45-.18,1,1.06-.1.19-1.09,0-1.91-1.25a6.37,6.37,0,0,1,.54,1.63c-1.12-1.17-.47,1.45-2.22-1.09-.08.21.23.89,0,.9s-.51-1.13-.15-.85c-1.6-1.66,0,2.78-1.27,1.29-.12.33.55.79.86,1.53-.82-.64-.79-.32-1.4-.43-.15-1,.22-.73.33-1.49-1.1-1.15-.56,1.18-1.65.12.31.45.56.74.7.66-.15.89-.87-.78.17,1.78-.09.43-.62-.5-.89-.61-.53-1.1.44,0,.54-.18-.46-.52-.93-1.05-1.47-1.78.56,1.33.69,2.18.44,2.59a7.89,7.89,0,0,1-1-1.49c-.3-.11.15.61.5,1.2A3.47,3.47,0,0,0,234,253a2.55,2.55,0,0,0-1.15.23,5.49,5.49,0,0,1-2.23.79c-1.14,0-2.83-.36-3.19.37-.27.55-2.83-1-1.89.77-1.4,1.3-3.34,1.24-4.67,2.1.38.45.59.47,1,1,.6.77-.21.33-.21.59-1-1.1.11-.43-.88-1.53-1.24-.34-2.07,1.18-3.26,1.09.53.66.51.09,1.12.93-.17.55-2.2-2.16-1.6-.7.51.61.79.73.94.53.68,1.46-1.51-.22-1.16.56-.34-.4-.48-.64-.46-.76-.43.45-1.13,2.38-2.91.51-.19.11.66,1,.19.9-.29.09-1.16-1.06-1.92-2,2.26,2.27-.55,2.22-1,2.53,1.56,1.59,1.49-.18,3,1.4-1.16.16-2.08.89-4-.35.3,1.87-1,2.07-2.29,2.32s-2.76.41-2.7,2c-.78-.26-2-.81-1.8,0a7.64,7.64,0,0,1,1,.93c-.85,1-3.8-1.18-2.65,1.62,1,.78-.55-1.18.48-.81,1.45,2,.84,2.44.42,2.87,1.21,1.15,1.34.37,2.79,1.95-.91-2.12.4-1.56,1.48-1.95-.6-.61-.54,0-1.22-.81,1.47.31,1.41-.23,2.87.34-.72-1.78,1.11-1.11,1.88-2.1.79.31,1.41,1.75,1.89,1.47-1.82-2.05-1.31-2.14-.55-2.09s1.75.3.94-1.17a2.79,2.79,0,0,1,1.08.92,2.78,2.78,0,0,1,2.44-2c1-.19,2.15-.18,2.86-.81-.47-.5-.85-.81-1.32-1.3a23.42,23.42,0,0,1,3.1,1.87c-.72-.89,0-1.84,1.67.13-.89-1.57,0-2.71,1.48-1.18-1.61-2.55.48-1,.29-2.09.37.1.31.61.9,1-.11-.75,0-1.14,1,0-.82-1.36.8,0-.68-2.08.61.64,1,.85,0-.48,1.09,1.13.42-.51,1.44.79-1.32-2.5,1.46-.41,1.13-1.46.58.45,1.5,1.72,1.83,1.58-.57-2,.42-1,1.95-.33-.07-.63-.48,0-1-1,1.25,0,2.24-.69,3.52-.73s2.86.41,5.22,2.44c.89,1.56-.22.35.59,1.63.76.51.64.14,1.43.85-.46-.85-.48-.49-.85-1.07s-.25-.77-.13-.87c.31.15.26.62.77,1.11-.29-.78.17-.37.63.24.35,0-.16-.32-.6-1.16.2-.13.79.85,1.38,1.82.27.12-.17-.6-.52-1.2,2.08,1.49,3,.43,4.21.45.22,0,.24-.39.1-.48.94.65,1.85.49.65-2,1.38,2.33.2-.79,1.33.5-1.46-2.6-.32-2.4.67-1.05.49,1.4,0,1.49-.59,1,1.79,2.53,1.21-1,3.14,2.28.91.23.23-2.28,1.6-.84a9.16,9.16,0,0,1-1-2.39c.4,0,.61,1.16,1.3,2.33.33-1,2.67,2.24,2.76.26.38.32.38.89.8,1.58,1,.48.75-.7,1.45.17-.35-1-.4-1.56,0-1.29-.19-.48-.25-.33-.35-.37-.47-1.08-.17-.81-.27-1.25.21.34.39,1.13.57.75a5.92,5.92,0,0,1-.74-1.59c-.58-.64-.27.77-1.17-1.5.93,3.27-1.47-1.82-1.42-.17-1.14-3,1.15,1.07.29-1.35.36.21.93,1.45.88.69-.3-.74-.33-.2-.59-.75-.28-1,.43-.26.63-.13.15.4,0,.34,0,.44.22.31.87.57.27-.49a3.9,3.9,0,0,1,.8,1.14c.21,0,0-.66-.32-1.24a1.86,1.86,0,0,1,.46,1.22c.54.92.05-.68.31-.9.37,2.26,0-1,.54-.08a11.1,11.1,0,0,0,.37,1.24c.07-.19-.51-1.59-.16-1.27.88,1.82,1-.37,2.27,1.79-.14-.41-.27-.81-.4-1.23.1-.31.37.4.52.38a5,5,0,0,1,.2,1.25c.19.49.15-.29.5.37a14.4,14.4,0,0,1-.77-2c.37.35.55.46.45-.47.2.08.13.72.51,1.65-.08-1.05-.13-2.28.8.76.05-1,1.61,3.63,2,2.75-.45-1-.16-.4-.27-1.24.23.46.48,1.18.7,1.64,0-.65-.06-.85.32-.43a10.76,10.76,0,0,1-.43-1.66,20.52,20.52,0,0,0,1,2.05c-.31-1.07-.51-2.23.11-.85-.26-1.22.26-.53-.13-2.11.14-.13.44,1.62.55,1.23a12.2,12.2,0,0,0-.65-2.49c.17,0,.33,0,.29-.45.34,1.31,0,1,.45,2.51.34-.06,1-.73.6-2.62a10.25,10.25,0,0,1,.41,1.66c.29.14-.1-1.52-.24-2.51-.2.42-.49-1.25-.66-.81,0-2.15.64-.23,1-.88.22,1.4.26,2.28-.09,2.11a1.29,1.29,0,0,0,.67.82c-.16-.75-.09-.88-.26-1.68.21-.49.46.88.67.83-.13-.76-.26-.88-.39-1.68.93,2.61,1.27,2.43,1.62,2s.67-1,1.41.78c-.41-1-.44-1.89-.9-2.92-.07-.53.07-.43.14,0-.66-3.76.5-2,1.12-1.3a4.68,4.68,0,0,0-1.05-2.11c0-.92.45-1.34.7.84.17-.64.35-.15.66,0,.14-.67-.47-.2-.59-1.26,0-1.74,1-.86,1.06-.85s.44.13.34,0c.53.69.51-1.19.77-1.29.09,0,.37,1.4.57,1.27a1.93,1.93,0,0,1,1.22-.45c.53.06,1.18.5,1.76,1.72.05-.34,0-1.15.08-1.27-.26-1.39-.15.88-.42.42-.11-2.2.58-1.9,1-1.67a3.44,3.44,0,0,0-.09,1.27c.39-.44.95-3.15,1.42-.4.21.2.13-.61.1-1.28.41.16.43.07.67.44.07.72,0,.8-.14.85.48,1.91.63-.71,1.22.85-.14-1.67.35-1.06.39-2.1a3.77,3.77,0,0,0,5.13,1.1c.72,2.61,1.56-.19,2.37,1.45a3.36,3.36,0,0,0,.55-2.08c.21.77.29,1,.63.47.26.13-.16.72,0,1.7.85-.72,1.08,2.82,1.77,3.11,0-2.75-.6-1.33-.84-3,.4-.65,1-1.56,1.38-.75a6.74,6.74,0,0,1-.06-1.29c.34,1.73.82,1.15,1.49.56.16.2-.07.53-.06,1.27,1.71-1.05,3.2,1.05,5.16-.33a5.62,5.62,0,0,1,0,1.7,1.86,1.86,0,0,0,1.27-.29c-.7,1.64.67,0,.9-.74.21.09,0,1.45.08,1.72.46-.2.06-2,.58-2.5.13,1.86.67,1,1.25,1.88.36-.43-.41-.6-.5-.92.1-2,.74-1,1.18-1.14.26,0-.09,1.5-.09,2.13.47-.16.61-2.24,1.23-1.56.28.45-.29,1.1-.06,1.7.6-1.94,1.56-.78,2.35-1.86,0-.5-.18-.39-.31-.47.23-1.22.35.3.6.09-.09.36-.19.73-.34.8.26.11.85,0,1.47-.64.44-.88-.23-1.46.3-2.54-.05.66-.22,2.41.47,1.36a6.74,6.74,0,0,1,0-3c.14.08.24-.06.31-.39.54.16-.4,2,.17,1.75.11-2.73.85-1.83,1.33-2.39.1-.94-.52-.26-.71-.54.15-1.3.54-1.2.92-1.16.5-.73-.73-.15-.66-1,.8-.5,2.77-.38,2.8,2.55.31-.15.82-.88.71.53.59-1.21,1.12-1.13,1.61-.83s.92.81,1.25.4c-.07-.64-.42-.72-.48-1.38a14,14,0,0,0,.57-2.06c1.7.66,4.12-1.51,5.46.44,1.46-1.76,1.74-.66,3.39-1.6a5.23,5.23,0,0,0-1.59-.16c-.57,0-1.21.11-1.85.21-1.3.19-2.66.46-3.8.51-.55,0-1.24-2.16-1.8,1-.52-.15-1.23.14-1.22-1.05-.35.19-.5,1.6-.95,1.16-.09-.1-.07-.44-.2-.46s.42-1.54.16-2.13c-.24-.17-.85,3-.63.77-1.87,2.15-3.56,1.31-5.91.88-.68,2.23-1.81,1.27-2.35,1,.1-1.21.75.61.74-1.2-.44.14-.67-.25-.94-.54.08,3.1-1.49,1.41-1.89,1.49.13-1.21.59-.71.94-.74-1-3.32-3,.86-4.41-.53,0,1-.38.44-.45,1.23-.94-2.39-2.24.24-3.21-1.16-.93.74-1.55.93-2.17.78a3.41,3.41,0,0,1-1-.44c-.33-.2-.69-.45-1.13-.73a8.06,8.06,0,0,0,.17-1.69c.18,1.82.42-.3.71-.81.08.23.16.46.32.45-.21.9-.65.73-.76,2.08.35-.1.44-1.29.93-.78.21-1.68-.08-2.32.57-2.08-.25-.35-.26-1.44-.66-1.34.11-2.86,2.8-.8,1.48-.71.26,1.19,1.49-.58,1.13,1.4.8.77,1.12-1.43,1.76-1.12.49.25.58,2.16,1,2.66,0,0,.08-.83.06-.85.29.29.8,2.61,1.1-.32-.36.89-.9.23-.74-1.35.25.89.88.65,1.6.41s1.6-.43,2.19.43c.15,0,.17-.76.24-1.25,1.37,1.56,3.5-1,4.54.54,0-.43.09-.85.14-1.27.23,1.58.59,1.07,1.24.58-.55-.54-.07-1.54-.89-1.4.79-.5,1.53.4,2.3-1.41-.06.61-.12,1.21-.28,1.26.12.59,1-.52,1.35-1.1.09.45.84,1,.32,1.76a19,19,0,0,1,3,.43c.21-1.67-.41-1.37.13-3-1.1.15-2.12,1.5-2.57-1.22-.16,0-.21.75-.29,1.24-.13-.12,0-.84-.16-.87.43-.91,2.07-2.16,2,.28.43-.55,1-.47,1.38-1.11.21-2,.39-3.26-.5-3.5-.09.8.42.35.24,1.32-.05,1.17-.38.81-.49,1.65-.24-.32-1.21-.67-.59-1.8-.28-.84-.39.87-.76,1.61-.12-1.07-.15-1.57-.62-.51a13.67,13.67,0,0,1-.2-1.75c-1,.41-2.32-.09-3.78-.52a7.69,7.69,0,0,1,0,.87c-.43-.91-.75-1-1.74-1.06.05-.6.1-1.2.26-1.26-.83,0-2.31-1.19-3.15-2.07,0,2.33-.93-.35-1.51,2-.12-.94-.7-.76-.62-2.21-.59.12.18.92-.3,2.1-.5-.24-.88-2.51-1.41-1.84,0,.05-.16,1.28-.22,1.26-.31-.11-.42-1.31-.8-1.35,0,0,.05.85.07.86-.17-.11-.5-.89-.71-.92-.36-.05-.85,1.7-1.26,1.6s-.53-2-.9-2.23c-.64-.45-1.35,2-1.82.26-.38,0-.48,1.06-.82,1.2-1.15-1.22-2.26-1.18-3.63-2.36-.1-1-.7-4.05,0-3.83-.75.05-2.29-1.06-1.36-3.07.25-.54.64.35.51.46.9-.76,2.15-1.11,3.05,1a5.58,5.58,0,0,1,2.18-.34c.74,0,1.46.14,2.18.22a5.82,5.82,0,0,0,4.3-.85c.1-2.18.7-2.91,1.36-2.91a2.48,2.48,0,0,1,1.77,1.52,6.11,6.11,0,0,1,3.66.22,29.17,29.17,0,0,0,3.77,1.08c.24-.53.13-.65.15-1.26.32,0,.41.41.28,1.32.67-1.37,2.29.6,2.44-2.24.25.54.12,1.85.84,1.41a12,12,0,0,1,.33-2.54c-.69.38-.74,1-.76-1,.77-.28,1.7-1.52,2.53-1.37-.05.62.42,2.42-.14,2.13.18,1.34.78-1.2,1-2,1.14.07,2.28-2.1,2.77.39.77-2.11,1.92-1.39,2.27-4,.37.16-.32.7-.26,1.69,1.12.36.23-1.81.92-2-1.18-1.66-2.73,3.59-3.48.75.1.58,0,.68-.18,1.27-.33-1.42-2,2.26-1.69-.65-1.07,1.29-2.42,2.43-3.57,1.23,0,1.21-.34,1.07-.41,2.1-1.5-.86-2.9,1.31-4,1.6-2.62-2.76-5.47,2-8.13-.5.51-3.47,1-5.29.47-7.65a6.25,6.25,0,0,0,.21-.83c.43.49,1,1.56,1.48-.26-.94.92-1.33-.69-2.09-1.07a5.28,5.28,0,0,0-.63-3c.21-1.19.68-1.37,1-2-.58-.72-.92-.11-1.36-1.4,1.93-.39,3.16,0,5.5-1.58,0,.86-.16,1.32-.42,1.24.19.91,1.2.22,1.42-.7.59,2.83,1.71.52,2.56,2.85-.3,1.59-.83,2.16-1.54,2a8.15,8.15,0,0,1-.51,2.08c-.13,1.5.57-.85.39.47a3.87,3.87,0,0,1,1.48-2.83c.15.12,0,.85.2.88-.43,1.66-.6.65-1.3,1.14,0,1.92.85-1.18.93,1-.4,2.34-1.31,1.48-1.81,1.94.81,1.55,2.88-.71,4.09,0,1.14-1.84,2.73.06,3-5.61-.69-1-.67-3.37-2.11-2.86,1.21-3.67,2.25,1.8,2.92,1.25.34-1.52-.71-.29-.19-2.18-.51.5-.91.23-1-1,.29-.16,1.35-.81,1.06,1.43.83-.94,1.59-1.16,2.08-.58.13-1.19-.34-1.23-.33-2.19.17-.56.43-.75.72-.77-.59-.44-.27-2.63-.64-3.52a3.37,3.37,0,0,0,.85-2.9c-.54.19-.17,1.24-.84.32.18-2.08,1.19-1,1.52-.66-.11-.57,0-.67.17-1.27,1.41.53,2.73-1.33,3.28,1.72-.21,1.35-.75,1.19-1,2.46s.43.64.23,1.75c.94.59,2.77-3,2.59.81.54.36,1.46-1.19,1.54-.63.17-3.3,1.46,3.28,3.26,2.66-.14.54-.38.62-.51,1.21-2.64-.39-5.15.15-7.79.13.59,1.35,2.62.3,3.08,2.61.61.22.06-.59.41-1.66,2.76.6,4.83,2.25,7.06,2.38-.07,2.81,1.6,3.26,2.37,3,2-.64,3.69,3.75,5.21,1.32,1.31,2.89,4.12,0,5.75.62a13.58,13.58,0,0,0,.21-4.31c-1.43-1-3.15.06-3.34-2.35,2.57-.34,4.23-4.43,6.46-4.89.25-.36.36-1.54.74-1.17.34-1.85.13-2.86-.29-3.53.77.28,1.41-.78,2.95-1.19-.65-.68.91-1.74-.15-1.77.39-.95,1.14-.09,1.06.63.83-.44.88-1.21,1.57-1,.26-1.23,1-1.58.87-2.45.3,0,.24.58.57.55.28-1-.11-1,.28-2.13-1.24.62-2,3.77-3.28,4.17.32-1.53,1.09-.44,1.35-2.36-.42.17-.07-.85-.32-.93,1.43-3.49,3.32-5,4.7-3.45,1-1.31.46-1.53,1.07-4.15l-.67-.13c.42-.43.71-1.12.1-1.28a19.63,19.63,0,0,1,2.59-4.73c.08-2.65,4.59-10,1.75-10.55.14-1.27-.93-2.23-.67-2.73-1.31-1.32-2.11-3.4-2.48-6.13-1.94.51-.48-6.41-2.91-5.3-.11.56-.22,1.12-.34,1.67-2-1.61-4.51,4.25-6.79,1.39,1.25-2.87,3.23-2.25,4.19-6.63-.27-.09-.71.08-.62-.55.1-1.38.69-.48.95-1.13.14-1-.29-1-.63-.54,1.28-3.07-.57-3.85.58-7.71-.74.19-1.43.62-1-1.48-1,.53-1.88.3-1.5-2-2.24.13-3.73,6.88-5.59,6-.38.58-.64,1.72-1.1,2a2,2,0,0,0,.39.93c-1,2.75-2.9,1.36-3.85,4.12-1.05-1-1.95-1.88-3.32-.94,0-2.2,1.29-.4.88-2a.68.68,0,0,0,.65.53c.34-.5.43-2.05.9-2,.15-1.06-.6-.22-.73-.11.16-1.32.76-2,.5-3,1.09-.36.44,2,1.1,2.32.65-1,.06-3.39,1.22-2.83.24-.88-.12-.84-.4-.93a3.76,3.76,0,0,0,.4-1.23c.22.84,0,.8.65.54a5.76,5.76,0,0,1,.48-1.65c-.22-1.47.83-3.85,1.68-3.18a4.1,4.1,0,0,1,1.58-3.64c.05-.89-.13-.94-.48-.51,1.67-6.12,5.08-3.23,8.07-3.43-.06.49-.18.74-.34.81a4.07,4.07,0,0,0,2.38-.47c.2.11,0,.79-.07,1.29,3.42,1.49,5.57,4,9.52,4.31.2.11,0,.79-.09,1.29,2.7,1.13,3.69,4,6.52,4.29a2.21,2.21,0,0,1-.9,1.57c0,1,1.19.22.69,1.88.62-.35,1.18-1,2-.5-.15.72-.37,1.06-.63,1.19,1.93-1,6.87.92,9.55-5.51,1.6,2.32.41,7.07,1.65,9.5,1.31-1,2.2-4.28,3.47-5.4-.35-1.15.58-3.89,1.34-4.1-.62-2.29-3-2.11-4.35-3.5,1-4.12,3-2.35,3.73-8a4,4,0,0,1-.4-2.27,5.3,5.3,0,0,0,.93-1.56c.18-1.56-.42-2.06,0-3.93-2.39,0-1.23-4.93-3.54-5.07.73-5.17,3.18-8.05,4.69-12.15.71-.4-.17,1.38.54,1,1.67-2.45,2.61-3.44,3.21-7.21,1.67-1.45,3.61-1.59,5-4.22-2.15-.34-4.42.69-6.29,1.35-.57.2-.17-.91-.54-1,.55-1.67.66-1.84.21-2.57.34-1.54,1.64-1.17,1.32-3.24.7.53,1.15-.21,1.59-1,.65.27.79,1.23,1.38,1.58a5.89,5.89,0,0,0,.21-1.7c1.11-1.14,2.23-2.28,3.33-3.54a33,33,0,0,0,3.14-4.32c.49.09,1,.37,1.37-.16-.62-4.28-4.11,3.39-6.39,2.64-.16-1.38.73-2.37.41-3.41-.41,0-1.77,2.56-1.13-.23-.59,0-.9,1.51-1.51,1.45-.12,1.24.66-.13.94.18-.57,1.92-1.39,1.18-2,.92-1.15,2.41-1.46,4.51-2.76,6.86,0,.75.43,1,.36,1.82-.95,1.08-1.76-.47-1.47-2-1.13,1.5-2.64,1-3.63,3.21-.87,3-.46,4.28-.68,6.4-.74,1.6-1.77,1.74-2.8,2.07-1.21,4.89-5.2,3.08-7,7.81-2.35,1-5,1.4-6.9.44-.38,1.12.2.92,0,1.75-1.67.92-3.91-.66-4.94,3-1.93,0-3.58,1.17-5.18,2.54-.27,1.39.22,1.7.79,1.88-.59,2.34-1.72,2.39-2.6,3.44-1.24-2.54-4.26,2.6-6,.74,1.06-3.71,3.12-6.09,4.28-9.25.06-.16-.09-2.55.79-2,.09-.74-.16-1-.62-1,.19-.73.51-.91.93-.71-.18-2,1.6-3.64,1.43-5.4,1.91-1.85,3.32-5.59,5.24-7.33,3.65-9.63,5.81-14.1,8.51-23.23.19-.77.73-.13,1-.69-.09-.9.39-2.55-.29-2.66.16-.59.63,0,.77-.73-.5-2.44.31-4.72,1.22-8a.78.78,0,0,0-.73-.57c1.77-3.4.19-5.44,1.66-9.25-2.38-.25-3.49-3-4.6-5.71s-2.35-5.49-4.78-5.81c-.43,2.16-1.42,2.54-2.22,3.53,1.63,3.82,4.25,6.32,5.56,10.41a2.36,2.36,0,0,1-1,2c-.55.08.48-1.89-.4-1.36-.8,4.94-3.68.41-5.28,0-.55.2-.83,1.3-1.37,1.51-.9-1.53-2.83-2.32-3.9-1.48-1.77-2.08-4.59-4.37-6.57-2.25a4.88,4.88,0,0,1,3.88.84,8,8,0,0,1,2.75,3.58c-1,2.1-1.62-.71-2.48-.82a3.34,3.34,0,0,0,.91,2.3c-1.25,2.83-1.58-1-2.38-1.65-1.62,2.76-3.9,1.21-4.69-.23a14.88,14.88,0,0,0,1.22-2,10.66,10.66,0,0,1-.61-1.81c.33-.88.79-1.41,1.54-1.08-.27-2.34,1.25-2.86,2.18-3.57.09-1.95-1.92.34-1.55,1.08-.46.12-.76-.4-.38-.48,0-.55-.58-.65-.67-.1a9.79,9.79,0,0,1,.52-4.66c-1.61.71-1.35-3.35-2.85-3.85-.18-1.37,1.11-1.6.55-2.07-.36-.21-.48.27-.59.78-1.4-.7-2-.38-3.28-1.31-.53-1.65-.64-3.9-2.57-3.76.39-2.48,1-2.65,1-5-1.31-1.85-3.45-.61-5.29.07s-3.38.82-3.61-3.26a4.34,4.34,0,0,0-.72,3.78A16.43,16.43,0,0,1,323.84,17c.41-1,.48-2.73,1.29-2.88-.48-1.58.26-2.58.47-4.65a4.14,4.14,0,0,1-2.18,1.5c.12.41.43,1.62-.37,1.25a2,2,0,0,0,.63,1.34c-.58.43-.75.1-1.59.71-.45-.11,0-1.45-.34-1.74-.67.09-1,.93-1,2.47-.87-.8-.5,0-1.07.76-.44.27-.23-2,.14-1.7-.72.66-2.63-.18-3.73-1.16,1,1.2-2.3.86-.66,1.66-3.58.85-5.19.54-8,2.45-.57-.28.35-.65-.18-1.29-1.16,1.43-3.27,1.06-3.59,4-.87-.06-1.5-.1-2-.19a6.61,6.61,0,0,1-1.58-.42c-.07-.74.24-.8.57-.84-.62-1.5-1.13,1-1.4,1.65-1.91-.71-3.57.52-5-1,.18,1.65-.69,1.48-.87,2.52-.2-.38-.71-.28-.77-.89.29-1.18.69.65,1.07-.38-2.08-.45-5.49.3-7.15-2.38-.78.35-.3.63-.28,1.69-1.28-.11-1.46-2-3-1.74.5,1.07,1.6,1.23,1.92,2.57-1.19.14-1.34,1.88-2.74,1.68-.53-.19.44-1.21-.82-.86-.06-1.34.72-1.41.53-3-.51.63-1.42,1.89-.81,3-.55-.15-.86.08-.81.84a6.31,6.31,0,0,0-2.21-1.71c.21-1.24.88.26,1.37,0-.45-1.89-2.39-1.45-3.61-2.14a6.13,6.13,0,0,0,2,2.13,1.22,1.22,0,0,1-1.91.42,2.82,2.82,0,0,1,.3,1.27,23.52,23.52,0,0,1-4.13-.85q-.41.61-.78,1.26c-.82-.57-1-1.15-1.64,0a1.21,1.21,0,0,1-.58-.85c0-.89,1.2-.11,1.34-.85-.14-.69-1.61,0-1.92.44,0-1.29-1.65.2-2.35-1.64,0,.36.13.39.31.41-3.37,1.47-8.81-2.94-12.3-.46-.65-.3-1.18-.85-2.06-.77a3.17,3.17,0,0,0-.14,1.71c-.46.06-1.13-.14-1.13.49-.35-.11-1.5-1.22-.75-1.65-.23-.95-1.38.68-.46,1.3.06,1.32-1.38.81-2.25,1-.4-1.35.89-.65,1-1.34-2.07,0-2.83.28-5.13-.94-.87.66,1.18.18,1.28.77a5.66,5.66,0,0,1-3.05,4c1.35.87,2.12-2.08,3.53-2.38.45,2.23,3.49.47,5.29.08.24.06.33.4.62.38.17.72-.16.82-.5.89,1.35,1,3.35-2.77,4.35.64-.62,1.06-1.64-1.46-1.58,1.34-.45-.07-1.59-1.36-1.74-.34,2,1.47,4.2,1.39,6.27,1.1s4-.71,5.36.18a10.35,10.35,0,0,0-3.76,2.24c0,1,1.25-.27.92,1.25-.24.82-2.15-.33-2.39,1.35-.85-.34.59-.65.14-1.7-.17.93-1.91.15-1.14-.39-.8.22-2.3,1.15-3.83,1.75s-3.18,1-4.19-.07c-.81.74.73,1.3.79,2.08-1.23-.91-2.91-1-4.42-1.41-.62.28.41.63-.14,1.29-.61.11-.94-.29-1-1.21-.05,1.14-1.54,1.64-.82,2.61a11.4,11.4,0,0,0-3.32-1.47c.18.55.59.63.74,1.23-2.33-1.74-4.1,0-6.14-.77.11.33.35.39.41.81-5.52.26-8.26,1.84-13.24,1.47.42.87,1,1.4,2,1.05-.54,2.68-3.7.84-5.58,1.56-.4.14-.51,1.27-.89,1.43s-.81-1.18-.85-1.17c-.79.11-3.4.55-3.49,1.82,1.09,0,2.48-.75,3.27-.06-.41,1.89-2.71,1.91-2.6,4.28,1.84-1.1,1.76-1.27,3.23-1.36-.06-1.11-.44-1.48-1.13-1.12,0-.46.51-.37.39-.93,2,2.12,4,.66,6.11-.45s4.39-2.05,6.79,1c1-2.39,5.29-1.26,7.48-1.65-.21-.86-.89-.75-1.1-1.6,1.53-.45,1.27.64,1.66,1.54.74-.93.73-.52,2.16-.6,0-2.35,2.17-.38,2.78-2.33.23.06.33.4.61.38.3,1.32-.55,1.24-.9,1.77,2.17-.77,6.4-.72,8.28-3.55.59.25.77,1.25,1.29,1.62.17-2.43,2.27.3,1.55-1.37,1.05.67,2,.72,3,2.42,1.51.18-1.08-1.47.44-1.29,0-.92-1-.16-1.4-.38,1.05-1.82,2.35-2.17,4.55-1-.28,1.13-1.44,1.07-2,1.76.12,1.25,1.1.9,1,2.53,2.11-.87,1.37,1.8,2.47.77a1.08,1.08,0,0,1-1,.88c.69,1.14,2.22.73,3.53.74,0,2.6-1-.43-2.37.5.13.55.51.65.62,1.26-2.66,1.55-4.27,3.35-6.77,4.47-1-3-1.6,1.63-3.31,1.91.85.08,2.21,0,2.07,2,.88.32.45-1.13.94-1.33.36,1.34-.29,1.35-.63,1.74-1.59-2.71-2.43.13-4.05-.6.09-1.25.72.51,1.32-.08a3.46,3.46,0,0,1-.44-1.68c-1.6.06-1.24,1.24-1.32,2.65-1.82-1.12-2.63-.72-4.8-.1-.83-.23.13-.93-.22-1.69-.53.62-1.59.58-1.31,2.22-.77.36-.88-.67-1.64-.31a1.77,1.77,0,0,1,.62-1.32c-1-.9-2.56,3.28-3.74.3a5.65,5.65,0,0,1-7.23,1.2c.7.91.73,1.06.37,2.1-1.42-.81-3.45-.72-3.52,1.67a23,23,0,0,0-3.53-1.31c0-1,1.67-.11,1-1.83a1.13,1.13,0,0,1-2.16.26c-.32,1-.69,1.34,0,2.58a18.26,18.26,0,0,0-2.9-.43c.11-1.67,1.51-.3.92-2.3,1.55,0,2.75-.89,3.89-1.53s2.2-1,3.37.22c.3-1.12,2.48-1.43,3-.34,0-2.71,1.18-2.32,2.77-1.58-.37-3.08-1-3.49-1.5-7.55a7.34,7.34,0,0,1-2-1.92c-.84,2.36-2,1.22-3.71,1.69,1.8,2.77-3,2.44-2.44.71-.85.87-.91,2.58-1.58,3.61-.81.26-.77-1.46-1.44-1.54.22,1.65-1.32,1.5-2.56,1.66-.25-.69.06-.82.39-.92-1.9.12-5.45-.1-6.85,1.9-.35,0-.42-.72-.58-1.2a7.93,7.93,0,0,1-4,2.89c-1.5.51-3.19.72-5.19,1.25a3,3,0,0,1,.62,1.19c-1.23.43-2.21-.22-3.11,1.47,2.29-.33,3.92,1.3,6.83.46-.45,2.12-3.19.67-3.46,3.24.56-2.74-1.39-1.06-1.64.32-1.43-1.12-2.13.31-3.65-.59-.1,1,1.17,1.4.49,1.65,1.06.92,4-1.82,5.23,1.15,1.14-.08-.2-.56-.19-1.71,1-.07,1.29,1.73,2,2.23-1.72-.84-3,1.61-4.29,0A13.61,13.61,0,0,1,197,62.43a6,6,0,0,1-4.77-.67c.72,1.22-.09,1.09,0,1.75-2.67-.84-5.15,2.2-7.37-1.37-.6.07.4,1.47.46,2.1,3.91,1.46,5.54-1.6,8.78.61.26,1.09-1.73.82-.52,1.88-3.8-.33-8.43,2.26-11.48,1.87.19,1.7,1.16-.15,1.48,1-4.13-.18-7.45,3.79-11.37,1.28.32,1.35,1.06.31,1.42,1.38-2.4-.6-1.76,4.12-4.82,1.88a6.72,6.72,0,0,0,0,1.81c-1.13.1-3.1-.67-3.58.18.25.45.6.2.92.18.16.38-.17.39-.32.54,1.89,2.15.17,2.73-2.17,2.88s-5.43-.21-6.34-.1c-.27.28.19.33.39.78-3.61,1.27-7.27,1.65-10.69,3.78-.41,0-.39-.67-.18-.85-.72.35-1.8,4.46-4.48,2.14.36.47.74.44,1.11,1-.92.11-1.78-1.49-2.7-1.28.36.84.74.95,1.1,1.44-.78,2.09-3.61.16-3.68,1.93-.53,0-1.05-.59-1.59-.31-1.18-1.29.21-1-.66-2.08a1,1,0,0,1-.93.84c.38.23.76,1,1.14,1,.4.82-1-.32-.25,1-.68-.43-1.36-.29-2-1.05-.25.24.37,1,.67,1.6-2.26,2-5,1.83-8.33,2.13.72,2.45-1.48,3.8-3.44,3.93,1.59,1.15-.89,1.49-.51,2.65-.22,0-.46-.28-.68-.17-1.24-1.26.13-1-.79-2a4.54,4.54,0,0,0,0,3.38c-.21-1.61.6.07,1.5-.69.14,1.23-1.71.8-2.37,1.09-.72-.94-.19-1.16.12-1.5-.54.93-5,1.07-4.18,3.41-1.49-.49-.5-1.32-2.21-2.35,1.64-.27,4.15-.54,3.53-3.61-.77.78-1.64.23-2.53-.76-1,.5-2.43.75-2.1,2a6,6,0,0,1-2-.47c-1.58,2-5.5,1.18-5.16,4.51.8-.15-.34-1.52.81-.89.17,1.17-.58,1-1.44,1.21-.35-.4-.43-.66-.32-.82-1.22,1-6,.1-5.63,2.93-2.46-1-3,2.92-5.68,1,.29,1,.74,1.86.26,2.9-.61-.91-2.08-1.46-.81.45-2.4,0-4,1.44-5.77,2.63s-3.5,2.16-6.38,1.22c-.31.34.41,1.16.09,1.5-.55-.61-.37-.87-1-1.49.58,1.72-.82,1.15-.7,2,0,.11,2.16.53,1.18,1.37.86.32,0-1.92,1.57-2,.29.68-.51.86-.59,1.38,1,.85.75-.59,1.18-.7.48,1.47-.87,2.08-1.57,3,2.55-.89,4.41-2.85,6.51-4.58s4.5-3.2,7.85-3.12c.47-.54,0-1.55.3-2.19.5-.07,1.23,1.28,1.65.62-1.54-2.36,2.69.65.62-1.83a31.42,31.42,0,0,0,3.08,1.37c.56-.21.23-.89,0-1.5,1.27,2.28,3.86-1.71,5-.62.24-1.15,1.86-1.38,3.56-1.79,1.38,2.45-1.77,2.86-2.82,2.4,0,2.19-2.32,2.57-3.08,3.11.69,1.24,1,.14,1.69,1.11a3.37,3.37,0,0,0,.61,1.17c-1,.36-2,1.35-3.24.21-1.55,1.94-3.71,1.84-3.64,5.5-.78.07-1.69-.57-2.33.28-.31.76.84.1,1.07-.09a2.7,2.7,0,0,1-2.77,2.56c-.55-.82.85-.68,1.09-1.11-1.91-1.94-1.61.63-3.13.73a1.32,1.32,0,0,0,1.37.25c-.39,1.81-1.43,3.23-3.16,3.38-1.18-1,.39-.63-.79-1.61,0,.32.32,2.11-1,.56,0,1.43-.67,2.09-2.49,1.47.47.83,0,1.2-.75,1.47,1.72.19,2.3-1.13,4.7-1.22.46,1.78-.46,2.58-1.89,2.14,1.79,1.66-4.11,1.06-1.65,4.63-3.37.63-2,3.65-5.93,4.19,1.35.22,1.21.69.63,1.18a22,22,0,0,1-2,1.32c-1.45-1.16-.32-1.18-.52-1.79.7.45,1.28.54,1.69,0-1.52-1.63-3.42-.32-2.15,1.39-2.78,1.63-4.52,2.65-4.32,6-.76,0-.4-1-.43-1.34-.78.78-4.4,2.61-5.58,4.33-2.66.63-2.64,2.21-4.43,4.2-.31-.32,0-.39,0-.56a68.61,68.61,0,0,0-6.64,5,41.52,41.52,0,0,1-6.31,4.44c.68.61.87.06,1.68,1,.59,1.48-1.77,1-2.29,0,.44,1.32-1.37,2.18-3.41,3.12s-4.2,2-4.55,3.64c0,0,.71.57.69.6s-1.87-.08-.11.67c-2.62-.23-3.31,1.86-5.17,2.4-.26.37.59,1.08,1.26,1.32l-.9.74c-.47.24-.41-.69-1.42-1.2-.54,1.6.07,3.68-1.88,3.9a6.09,6.09,0,0,1,1.28,1.3c-1.19,0-1.51,1.41-2,1.72,1,.94,1.14.05,2,.69-1.69,1.31-.46,5.09-3.93,5.68,1.37,1.82.92-.77,2.46.32-.43,2-5.33.92-4.25,3.65-.22.37-1.22-.7-1.53-.5.62,2.28-.69,3.17-2.63,3.5,4.7,4-1.9,3.32-.06,6.79-1.88,0-2.6,1.72-2.37,3.35-.38.16-1.1-.24-1.65-.36-.58.42.26.27,1,1-.3.43-1.26-.26-1.55.17-.42-.35-.07-.46,0-.64-1.78.09-2.16,1.88-3.07,2.79,1.4.15,3.11-.82,2.41-2.19.23-.06.83.48,1,.32,1.22,1.19,1,2.35-.59,1.77a15.46,15.46,0,0,0,.68,2.49c-.29.76-2.27-1.26-2.67-.67,3.93,3.26-1.84,2.67.51,5.16-1.39.35-2.32,2.22-2.72,3.79C18.42,215,18.89,215.66,18.7,216.29ZM203.46,269.7c.21.47.69,1.4-.49.29C202.85,269.77,202.7,268.94,203.46,269.7Zm16-6.85c.58.56.91.63,1.12.42a8.48,8.48,0,0,0,.93,1c-.64-.28-1.43-.57-1.67-.64C219.93,263.58,219.4,263,219.43,262.85Zm38.18,1.54c-.61-1.34,0-.67,0-.87-.44-.8-.26-.8-.7-1.6.14-.09.3-.14.65.74a3.25,3.25,0,0,0,.34,1.24C257.74,263.93,257.47,263.82,257.61,264.39Zm56.53-60.93c.22-.11.36-.57.65-.34-.06.42-.11.84-.16,1.26-.27-.62-.69,1-.59-.08C314.23,204.24,314.18,203.85,314.14,203.46ZM357.25,44.2c-.57,2-1.52-.59-2.68,0C355.08,42.07,356.83,43.45,357.25,44.2ZM125.82,96.5a4.7,4.7,0,0,1-3.45,1.59A3.11,3.11,0,0,1,125.82,96.5ZM21.64,214.17c0,.16.17.37.63.67.21-.09.31-.38.77-.08-.76.2.06.87-.53,1.12-.94-.85-1-.32-1.77-.87C20.49,214.65,20.76,213.66,21.64,214.17Zm16.82,4.51c.7.06,1.14-.32,2.27.42a1.15,1.15,0,0,1-1.65.26C39.09,219.2,38.91,219,38.46,218.68Zm19.66,2.07c1.93,1.35-.2,1.53-1.16,1C57.56,221.18,58,221.5,58.12,220.75ZM37,178.63c1.68,1.11-1,1.79-1,.86C36.61,179.64,36.88,178.9,37,178.63Zm3.38-4.54c1.36.95-.4,1.69-1,1.39.11-.68-.76.07-1.36-.65C38.88,174.69,39.91,175,40.39,174.09Zm137.74,81.56c.27.54-.2,1.24-1.2.27C177,255.74,176.77,254.59,178.13,255.65Zm-53.4-61.9c-.28.12.12,1.67-1.18.25C123.3,193.43,123.85,192.86,124.73,193.75Zm13.47-8.93c-1.95.58-2,3.54-5.36,1.68,1.57-.7,2.2-2.26,4.76-1.85l-.9-1c2-1.24,4.09-2.59,4.77-5.31,1.43,1.21,1.11-.13.79-1,.74.65,1-.35,1.79.53-.06.15-.3.18,0,.52.57.18-.33-1.32.62-.34a1.75,1.75,0,0,0,.11,1c.8.06-.46-2,.51-1.28-.09.17.1.78.42.78-.39-1.74,2-.69,1.44-1.8.91.13,1.33,2.32,2.12,2.37a3.43,3.43,0,0,0-1.25-1.83c1.08-.7.81-2.62,2.31-3.25-2.47-1.3-2.43.92-3,1.59a7.05,7.05,0,0,1,1.28,1.32,5.31,5.31,0,0,1-3.46-2.65c1.18.44.62.26.5-.78,1.61.78,2.18-.24,2.91-1.16s1.58-1.81,3.61-.76c-.29.12-.2.48.07,1,.81-.84,2.22,1.84,4,2.4-.73-1-.81-.59-1.08-1.43.66-.06.54-.62.82-.93.74.34.47,1,1,1-.27-.5-.69-2-1-2-.42.22-.77.68-1.48-.22a22.38,22.38,0,0,1,.51-2.25,9.53,9.53,0,0,0,2.4,3.23c.4-.87-.17-1.76,1.33-1.13-.8-.54-.68-.9-1.31-1.8-.06.45.32,1.2-.44,1.18-1.45-2.81,1.43-.86,2.34.83.45-.32-.61-1.64.33-1.63.55.6,1.34,2.22,1.72,2.1a24.55,24.55,0,0,0-2.5-3.18c.46-.86,1.48.78,2.06.46-.36-.44-.78-.62-.35-.8.42-.35.34,1.25.93,1,.3-1.08.25-3,2.14-1.52-.61-1-.52-1.49.23-1.54.55,1.16.84,1.4,1.58,1.69-.15-1.64,3.51-3,4.63-2.57.49,0-1.2-1.64-.24-1.33,1.3.38,3.72,1.86,3.2.06-.38.23-.76.41-1.31-.4.51-.53,1.18,0,1.73-.25.6,1.37,2,2.46,1.6,1.22-.27.08-.53.29-1-.54l-.47-.75c.72-1.25,3.34.56,4.59-1,.7,1.47-.58,1.39.47,3.12a5.94,5.94,0,0,1,3.19-1.65,9.92,9.92,0,0,1,4.26.59c-1.05.44-1.56,1-1.46,2,1.18-.28,1.24-1.48,2.34-1.82,1,1.26-.43.44.16,1.32.4-.46,1,.42,1.52,1.29.23.73.45,1.44-.15,1.45-1.56-2.25-2.35.26-3.08-.21a1.88,1.88,0,0,0,2.05.14c.46,2.74-.72,3.34-2.19,3.42s-3.22-.28-3.82.37c.11-.13.53.26.55.24-1.09.5-1.7,1-2.6-.34.54.59.37-1,.65-1.21-1.12.48-1.61-.54-3-.19-.11,2.13-2.17,4.58-4.9,2.15-.27.86-1.89,2-3.82.75.13,2.19-4.33-.11-3.68,2.73-.28.29-.93-1-1.25-.86.81,1.42-1.21.42-1.83.39.5.76.11.92.17,1.38-2.15-1.41-1.68,1.3-4.15.13.13-.45.68-.63.12-1.54-1.72.42-4.13-3.06-6.46-3.63-.18.62-.67,1-.6,1.8.94-.19.24-1.42,1.19-1.6.86,1.86-1.12,1.41-.52,2.74.4-.06,1,.8,1.45.74,0-.48-.59-1.34-.47-1.74a9.82,9.82,0,0,0,2,1.46c-.09-.42-1-1.34-.35-1.31.66.89.55,1.24,1.36,1.78-.94.22-.76-.24-.08,1-.87.13-.57,1.64-1.85,1,.59.67.34.81.51,1.22-1,1.12-3.8.4-5.84,1.15-2.52.9-3.28,5-7.82,2.38.09.71-.75.25-.46.77.78.71.77-.92,1.79.51C141.2,185.47,139.28,184.52,138.2,184.82Zm-7.72,2.77a3,3,0,0,1,3.27-.08c-1.05.1-1.58,1-2.23,1.64s-1.45,1-3.11.11C129,189,129.66,188.14,130.48,187.59ZM90.7,128.17c-1.5.19-1.47,1.5-3.32.42C87.43,127.33,89.51,127.63,90.7,128.17Zm65.47,49.77L157,179c-.33.3-.76.21-1.44-.76Zm-53.33-74.75c-.64.26-.87,1.84-2.07,1.08C101.06,103.84,101.82,102.53,102.84,103.19Zm49.15,67c.58.37,2.19,2.33,1.73,2.58C153,171.66,151.63,170.8,152,170.17Zm1.5.23c.71.82.29.92,1.18,1.86-.23,0-.4.29-.74-.11C153.83,171.6,153.07,170.62,153.49,170.4ZM108.2,108.85c1.29,1.47-.18,1.72-1,1C107.74,109.61,107.39,108.92,108.2,108.85Zm4-6.94c-.91-.52-1.12.32-1.47.73C109,100.49,112.47,101.24,112.24,101.91Zm57.05,79.34c-.19.36-.35,1.35-1.32.15C168.49,181.28,168.17,179.94,169.29,181.25ZM111.16,97.54c-.71.14,1.48,1.1.81,1.57-1-.91-1.65,1.35-2.69-.15C109.9,98.45,110.47,97.58,111.16,97.54ZM220.48,248.82c-.61-.27.16.68.12.91-.56-.73-.78-.59-1.33-1.32C219.6,248.35,219.74,247.78,220.48,248.82Zm.84-1.77c-.15.7-1,.13-1.56.18C220,247,220.14,245.62,221.32,247.05Zm5.5,8.56c.36.75-.71-.25-.41.63C225.33,255,226,254.24,226.82,255.61Zm-4.79-7c.33.87-.45.35-1.1-.49C220.66,247.47,221.52,248.18,222,248.65Zm1-1.86c0,.26-.8-.22-.25.58.28.14.23-.65.74.16.09.73-.55.28-1.29-.4C222.43,246.71,222.05,245.78,223.07,246.79Zm5.36,1.6c-.71-.76-.17,1.42-1.44-.38C227.77,248.43,227.29,247,228.43,248.39ZM226.31,245c.68,1.39.47.1,1,1,.14.48-.29,1.05-.89.34A3.71,3.71,0,0,0,226.31,245Zm-41.94-71.37c.65,1.58.87.61,1.38,1.32a8.63,8.63,0,0,1-4.66-.9C182.16,173.75,183.37,174.34,184.37,173.65Zm44.94,73.47c1.14,2.29-.73.92-1.25.48C228.46,247.44,229.57,248.2,229.31,247.12Zm-1.45-1.77c.22.66-.57,0-1.2-.93C226.86,244.12,227.36,244.72,227.86,245.35Zm-.37-.79c.06-.17-.14-.61.16-.53,1.39,2.28.76-.37,2.13,1.51-.62,0-1,.66-1.69.19C228.69,245.81,227.88,244.85,227.49,244.56ZM139.89,89.65c-.53,0-1.07,1.06-1.58-.31C138.3,88.6,139.29,88.26,139.89,89.65ZM233,242.58c.73,1.59,1.34,2,1.93,3.45-.4-.06-.53.79-1.28-.47-.43-1.18,1.08.67.23-1-1.7-.56-2.38.34-3.55-.11C230.45,242.44,231.9,243.2,233,242.58ZM190,165.88c-.83.26-1.57,1-2.65-.85C187.94,164.7,188.82,164,190,165.88Zm2,1.58c1.72-1,.21,1.76-.86-.16A.76.76,0,0,1,192.06,167.46Zm44.71,78c-.37-.21-.35.93-1.08-.56C236.29,245.09,236,244.38,236.77,245.44Zm-.57-2.07a9.71,9.71,0,0,0,.92,1.51c-.35-.17-.71-.38-1.3-1.39Zm4.42,3.14c.51,1,.79,1.17.71,1.58-.18-.3-.4-.77-.49-.75.44.92-.35,0-.56-.3C240.7,247.25,240.2,246.3,240.62,246.51Zm1.39,1c-.23-.18-.22.58-.64-.27.07-.11-.16-.45-.39-.78C241.17,246.14,241.59,246.8,242,247.46Zm3.77,2.5c-.67-.81-.24.73-1-.61C245.14,249.58,245.15,248.45,245.78,250Zm4.68,9.41c1.11,2.24,1,2.78,1,3.3A18.46,18.46,0,0,1,250.46,259.37ZM248,253c-.39-.15-.08,1.45-1-.2.33-.43-.41-1-.83-1.55A4.63,4.63,0,0,1,248,253ZM170.72,76.66a4.63,4.63,0,0,0-3.1,1.82c-.8-.68-.17-.83-1-1.51C168,76.82,169.58,75.41,170.72,76.66Zm80.59,183c.86,1.68.19,1.83-.52.11C250.54,258.81,251.2,260,251.31,259.62Zm-3.91-9.16c.12.56-.28,1-.85-.25C247.09,250.56,246.86,249.78,247.4,250.46ZM172.69,76.07c0,.38-1.24,1.58-1.65,0C171.14,75.31,172.16,75.36,172.69,76.07Zm77.7,178.51c.16.63-.23.48-.74-.7C249.82,253.77,250.07,254,250.39,254.58Zm2.93,2c-.76-1.67,0-1-.22-1.7.45,1.24.61,1.16,1.05,2.4-.1.7-1.18-.94-1.58-.56C252.8,256.52,252.61,255.13,253.32,256.55Zm-1.37-.14c-.91-2.23.78.24-.47-2.09.15-.43.92,1.23,1.07,1.94C252.19,256.28,252.12,256,252,256.41Zm5,7.23c-.07.38.19,1.22-.46.08C256.56,263.34,256.31,262.5,257,263.64Zm-60.15-199c-1.1-.1-1.1.77-2,.87-.19-.52-.52-.49-.67-1.16A1.53,1.53,0,0,1,196.81,64.68ZM259.6,254.19l.64,2.06c-.64-1.16-.49-.24-.74.08-.71-1.85-.46-.17-1.09-1.56C258.58,253.81,259.39,254.78,259.6,254.19ZM200.85,63c-.71.65-1.26,0-2,.83A1.1,1.1,0,1,1,200.85,63Zm60.24,191.44c1,3.22,1,1.64,1.54,2.79,0,1.8-.63.39-1.45-1.52.18,1.52-.27,1.75-1.13-.29C260.06,254.57,260.72,255.18,261.09,254.44Zm-2.84-5.62c.25,0,.55.47.93,1.59.07.58-.26.85-.63-.35A4.24,4.24,0,0,0,258.25,248.82Zm1-1c.24.78.17.93.4,1.67-.44-.46-.22,1.16-.71-.33A2.58,2.58,0,0,1,259.27,247.82ZM207.16,52.67a1.56,1.56,0,0,1-2.06-.08C206.19,52.74,206.45,51.11,207.16,52.67Zm56.27,207.46c-.19,0-.34,0,0,.85-.17-.22-.21.55-.48-.36C263.11,260.43,262.89,258.47,263.43,260.13Zm-1.19-4.55a1.75,1.75,0,0,0-.33,0l-.35-1.25C261.78,254.74,261.92,254.32,262.24,255.58Zm-53-203.68a1.53,1.53,0,0,1-1.88-.57C207.75,50.34,208.87,50.94,209.27,51.9Zm1.8,4.89c-.32.14-1,1.42-1.25.64C209.93,56.69,210.36,55.18,211.07,56.79Zm3.17,2.53c-.72.1-1.53.48-1.83-.58C212.68,58,214,58,214.24,59.32Zm2.06-.74c-.29.13-.32.52-.35.91-.68.46-.84-.48-1.45-.21-.55-1.3.76-.71.42-1.79-.15,0-.39-.29-.1-.42C215.1,58.14,216,57.5,216.3,58.58Zm49.5,203.1c-.05.75-.23-.26-.49-.39-.12-.74-.41-2.74-.19-2.1-.13.29.28.88.41,1.66-.06.08-.2-.05-.09.43C265.55,261.35,265.64,261.12,265.8,261.68ZM216.29,47.35c.56,1.85-1.15,1.59-1.4.21A.82.82,0,0,1,216.29,47.35Zm2.33,9.14a2.2,2.2,0,0,1-.17,1.76c-.3-1-1.11-.64-1.28-2A1.39,1.39,0,0,1,218.62,56.49ZM265.7,257c.13.5.13.25.13,0a4.57,4.57,0,0,1,.15,1.27c.13.08.17.68.13.84a10.27,10.27,0,0,0-.36-1.25C265.84,257.85,265.65,257.13,265.7,257Zm.17-.45a16.56,16.56,0,0,1,.72,2.92C266.31,259.47,266,257.44,265.87,256.57ZM225.22,50.41c-.33.09-.62.21-.38.9-1.31-.76-.85,1-1.63.2.19-.12.24-.39.1-.87C224.45,51.77,224.47,49.43,225.22,50.41ZM268,247.14c-.74-.83-2.11,0-3.16-2C265.79,245.52,267.31,244.52,268,247.14Zm-1,1.75c0,.49-.2.48-.41.44l-.24-1.26C266.56,248.07,266.78,247.81,267,248.89Zm.49.4c.22,1.1,0,1.09-.09,1.27l-.24-1.25Zm1.14,5.45c.13.07.25-.16.38.41-.3-.27.45,2.76-.15.85,0,.23,0,.48-.08,0A3.87,3.87,0,0,0,268.62,254.74Zm1-6.43c-.28-.49-.6.24-.86-1.22C269.14,247.89,269.19,246.38,269.6,248.31Zm-21.06-215c-.43.81-1.55.32-2-.29C247.13,33.25,248.32,32.39,248.54,33.33Zm32.09,203.52c.07,1.25-.56,1.71-.62.4,0-.6.41-.05.39-.83-1.29.46-2.39.19-3.55,1.24-.86-2.22-2.45,1-3.28-2.16.09-.92.09-2.15.67-1.69.07,1.11.21,1.82.47,1.7a10.11,10.11,0,0,1-.29-2.12c.46.73.87,1.11,1.31.44.3,1.79-.54.06-.43,1.26.86.67.69-.48,1.41-.82.37.75-.19,1.31.12,1.69.08-1.69.59-.07.62-1.69a8.62,8.62,0,0,1,2.25.85,5.51,5.51,0,0,1,0-1.69c.08.94.6-.05.6,1.29-.19.22-.45.2-.5.83,1.24-.5,1.93,1.4,1.16,4.29A6.13,6.13,0,0,0,280.63,236.85ZM257.51,23.08c-.32.58-1.48.15-1.76-.78A1.44,1.44,0,0,1,257.51,23.08Zm0-3.82c.34,1.63-1.24,1.68-1.14,0Zm3.55,30.08c.67,2.24-1.69,2.09-2.24,1.34C259.69,50.36,260.33,50.51,261.06,49.34Zm-2.23-27.57c1.25.78,2.19-.84,3.62-1a4.46,4.46,0,0,0,1,2.51c-1.56-.6-3.94,1.66-5.66-.24C258.72,23.42,258.63,22.39,258.83,21.77ZM276,230.45c-.28-.27-.74.52-.9-.44C275.53,229.88,275.65,228.37,276,230.45ZM262.83,40.35c-.84-.29-.43,1.19-1.28.89a3.52,3.52,0,0,0-.38-1.69C261.88,39.54,262.73,39.27,262.83,40.35Zm2.86,3.32c-1.44.58-2,1.9-3.38.95l-.08-1.27C263.57,44.15,264.55,42.66,265.69,43.67Zm1.24-1.73c0,1.07-.44,1.35.35,1.7-.12-1,0-1.6.44-1.72.55,1.79,3.06.86,4.19-.48a15.08,15.08,0,0,0,.35,2.54,3.55,3.55,0,0,0-1.79-.34,7.9,7.9,0,0,0-1.61.4,3.65,3.65,0,0,1-3.15.06C266.4,43.79,266.17,42.15,266.93,41.94Zm10.91,184.69c-.37-.61-.59,1.49-.7-.42C277.4,225.88,277.62,225.59,277.84,226.63Zm-.18-13.58c1.25.13,2.34-.51,3.31-.72s1.87.06,2.77,2.15c-.26.24-.84-.55-.87.4s.16.94.16,1.7c-.23-.13-.59,1.18-.75,0,.28.19.66-1.25.33-1.69-1.4.14-3.58,1.27-5-.55C277.74,214.25,277.7,213.65,277.66,213.05Zm2.18,25c.06.8-.07.94,0,1.7-.19-.39-.5-.15-.64-.85C279.6,239.37,279.41,237.68,279.84,238.1ZM274.51,41.87c0,.8.32.94.3,1.7-.94-.15-2,0-2.11-1.71C273.5,41.72,274,42.85,274.51,41.87ZM283,235.26c-.65.84-.88,1.77-1.47,2.06a25.34,25.34,0,0,0-.21-3C282,235.06,282.57,233.39,283,235.26Zm1.88,8.57c-1.21-.65-2.05,1.77-3.22-.14.32-2.56,1.79-1,2.56-2-.27-1.85-1.41,1-1.91-.51.59-.15,0-1.35,0-3,.27-.9,1-1.45,1.4.06-.2.17-.66-.61-.51.82.34-.29.75.24,1.3.9,0-1.06-.23-1.33.08-1.69.16,1.24.36-.74.64-.4.07.75-.29,1.75,0,2.12a4.13,4.13,0,0,1,.84-2.09c1.63,2.48,3.64,1.52,4.71,2.45-.13.06-.14.66-.14,1.27.33.15.88-.42.87.9a2.28,2.28,0,0,1-.69.81c-.15,0-.08-.75-.2-.86a4.21,4.21,0,0,1-3.37,1,5.66,5.66,0,0,1-1.56-.47,7.49,7.49,0,0,1-1.38-.88l.52,0Zm-3-16.68c-.18.76-.46-.15-.51-1.29C281.58,226.05,281.86,226,281.86,227.15Zm.52-2.1c.7.51,3.42-.46,3,3.93-1.26-.77-1.43-1.37-2.91-1.38a7.17,7.17,0,0,0,.14.85C281.89,227.89,281.92,226.16,282.38,225.05Zm2.48,10.28c0,1.67-.83.4-1,1.67-.09-1-.38-1.15-.48-2.14C284,234,284.4,236.56,284.86,235.33ZM288.71,216c-.9,1.51-1.87,1.4-2.76,1s-1.78-1.05-2.56-.85c-.05-2.87,1.22.55,1.61-1.23-.34-1.1-1.17,1.22-1.15-1.73.78.3.35.22.75-.4.47,1.38.68.84,1.66.89.14,1.26-.6,1.56-.25,2.12.22-.79.39.59.5-.84a7.5,7.5,0,0,1,0-2.55c.47,1.21,1.82.69,2.34,2.71-.35.24-1-.61-1.17.35,0,.7.36.26.38.88-.1.09-.25,0-.26.4C288.28,217.06,288.44,215.11,288.71,216Zm-3.53,17.67c-.07.23-.32,1.71-.44.41.39-.11-.3-1.6.09-1.7C284.85,233.16,285.2,232.67,285.18,233.65Zm1.35-.37c.39,0,.74.09,1-.79a1.58,1.58,0,0,1-.67,1.95,1.29,1.29,0,0,1-1.61-.36C285.74,233.21,286.16,233.25,286.53,233.28Zm2.37-32.17c-.49,0-1.41,1.83-1.68-.1.26-.09-.07-.71.15-.85C287.64,201.51,288.75,198.88,288.9,201.11Zm.17-2.55c0,.71.39.27.42.88-.17.08-.1.47,0,.85l-.7,0C288.74,199.28,288.82,198.66,289.07,198.56Zm-.68,34.84c1.22.87,2.63-1.42,3.35,1.93-1.34-1-3.07,0-3.83-1.12C288.12,234.14,288.49,234.69,288.39,233.4Zm7.86-36.09a3.78,3.78,0,0,0,.21,1.73c.4-1.18.8.5,1.18-.32a6.15,6.15,0,0,1-.24,1.68c.62-.06.67,1.3.88,2.22-.11.08-.18.34-.19.83l-.71-.06c-.28-.64.24-1-.07-1.29-.27.08-.29-.5-.55-.47l-.08,1.7c-.49-.13-.47-1.55-.92-1.79-.07.8.12,1,.07,1.71-1.08.38-2.33-.15-3.54-.64s-2.37-.9-3.13-.21a6.72,6.72,0,0,0-.11-1.71c.78-.28,1.5-.78,1.48-3.74.57,0,.35,1.11.23,2.14.24-.66,1.43.9,1.85-.31-.4-.86-1.16.42-1.11-.92-.26,0,.28-1.17.33-1.68.32.71.95,2.26,1-.37-.37.94-.67-.51-1-.91,1.3-.81,2-.67,3.46.2-.35.1-.39,1.12-.06,1.28.28,0,.17-1.4.5-1.24.23.78-.12,1.24-.25,2.11-.53.2-.68-.55-1-.92-.29,1.93-1.12.42-1.47,1.19A4.35,4.35,0,0,0,296.25,197.31Zm-7.32,39.53c.18-1.37,2.31-1.89,1.61.11.69-.18.84.15,1.5-.32a7.11,7.11,0,0,1,.16,2.14C291.51,236.58,290,238.71,288.93,236.84Zm3.32,3.64c-.07.24-.56,1-.56,0C291.88,240,292.22,239,292.25,240.48Zm1.28-6.31c-.31.21-.43.54-.57-.46.24-.11.34-.83.52-1.25.6,1,.9,2,1.78,1.45-.25,1.5-.61,1.9-1,2.07s-.91.11-1.38.7c0,.85.29.56.16,1.72-.39.15-.64-.17-.51-1.74C293,236.59,293.36,235.78,293.53,234.17Zm3,2c.21,0,.37.14.46.48.07,1.27-.61,1.77-.65.79C296.44,237.37,296.47,236.77,296.49,236.16ZM316.75,14.62c-.2,1.17,1.43-.23,1.2,1-1,0-1.85,2-2.34.25C316.41,16.25,316.08,14.45,316.75,14.62Zm8.77,5.49a2.46,2.46,0,0,1,.22-2.11c1.37.34,2.2.38,3.33,1.6-.77.21.13.93-.19,1.69-1-.39-.8,1.72-1.66,1.55-1.2-2-2.73-.49-4.08-1.24C323.74,20.69,324.7,20.54,325.52,20.11Zm-18.6,208.62c-.21-.27-.82.42-.75-.51C306.4,227.66,307,227.58,306.92,228.73Zm-.19,8.13c-.24-.29-.89.42-.85-.54C306.33,236.7,306.93,234.44,306.73,236.86Zm5.2-3.62c-.4.22-1-.68-.51-1.36C311.35,232.54,312.32,231.19,311.93,233.24ZM344.5,42.83c1.12,1.84-.25,6.92-1.8,6.21.62-1.53-.39-1.61-1-2.28C342.07,44,343.48,43.84,344.5,42.83Zm-16,145.89c-.09.8-.32.9-.42,1.66-.47,0-.87-.08-.59-1.39C327.79,188.53,328.16,188.6,328.54,188.72ZM364.28,53.1c-.53,1.86.66,1.41,1.14,1.91a21,21,0,0,1-.86,6.78c-.56.36-.93,1.34-1.67,1-.52-2.22.44-3,1-6.33-.3-.85-1.32-.73-.78-2.72C363.44,53.39,363.93,53.48,364.28,53.1Zm-14.73,83.24c.33.11.55.37.56,1-.18.3-1.17.77-1.07-.18C349.27,137.11,349.49,137.06,349.55,136.34ZM367.17,57c-.28,1,.2,1-.2,2.13-.37-.15-.54.4-.9.29A4.7,4.7,0,0,1,367.17,57ZM341.66,196.49c0,1.48-1.43,1.82-1,.26C341,196.5,341.51,195.54,341.66,196.49Zm7.29-7.34c.69.2.15.78-.1,2.15l-.32-.06C348.39,190.38,348.78,190.5,349,189.15Z"/></clipPath></defs><g id="תמונה6"><g class="cls-2"><image width="1618" height="1080" transform="translate(13.71) scale(0.26)" xlink:href="C:%5Clotem%20g%5C%D7%9C%D7%9E%D7%A4%D7%A7%D7%93%20%D7%91%D7%A1%D7%99%D7%A1%5C%D7%9E%D7%A8%D7%9B%D7%96%20%D7%9E%D7%A1%D7%97%D7%A8%D7%99.JPG"/></g></g></svg>