<svg id="Layer_1" data-name="Layer 1" xmlns="http://www.w3.org/2000/svg" viewBox="0 0 112.9 49.02"><defs><style>.cls-1{fill:#2f486b;}.cls-2{font-size:15px;fill:#fff;font-family:Assistant-Bold, Assistant;font-weight:700;}.cls-3{fill:#1d1d1b;font-family:Assistant-SemiBold, Assistant;font-weight:600;}</style></defs><path class="cls-1" d="M7.25,39.18c.31.72.86.79,1.37.91C8.23,39.4,7.8,39.1,7.25,39.18Z"/><path class="cls-1" d="M8.63,40.11h0Z"/><path class="cls-1" d="M108.47,7.71l-.43,0A.71.71,0,0,0,108.47,7.71Z"/><path class="cls-1" d="M33.55,42.19l.08-1.2c1.22,0,.36,1.37,1.49,1.08.44-1.7,1.87.17,2.26-.73,0,.13.55.19.51.72.17-.92.57-.22.92-.45.12-.26-.09-.28-.19-.56l.8-.32c.31.3.39.84,0,.94,2.09.33,12.1,1.21,14.35.75-.29-.7-1-.23-1.25-1.32.6-.61.88.22,1.14-.43.23,1.63,1.31.39,1.76,2l.17-.92.29.56c2.62-1,.6-.47,2.92-.25,1.34-.14,2-1.42,2.72-1-.11,0-.41-.57-.06-.81.06.81.93-.58,1.1.24.34-.1,1.44,0,1.07-1.11.18.56,1.17.78.58,1.26.33,0,.65.2.89,0l-.42-.31c1.12-.16,1.73.7,2.46-.3l-.42-.44c.67-.07,1.23-.15,1.5.94l-.69.34a4.55,4.55,0,0,0,2.71-.69l-.34,0c1.18-1.09,7.36-2,8.44-3.36l-.5-.85.94-.72c-.11,0-.45,2.76-.55,2.49,2-.08,12.42-.74,14.27-.17.75.47.14,1.35.13,1.48.91-.31.39-.9,1.16-.82.22.15,0,.66-.16.78.34-.1.65.2.68-.2-.42-.31-.24-1.36-.42-2l1,.09,0,.67c.22,0,.56-1.82,1.53-1.46,1.65.29,3.44,0,5.09.21,0,.4-.37.63-.72.87.22,0,.56-.09.77.2-.4-.7.69-.47.38-.77,1.21-1.62,2.78-.14,3.85-1.24.09-1.46,2.29-25.13,2.29-26.87.33,0,.67.07.77.21a.77.77,0,0,0-1.09-.37l-.06.93c-.8.33-.19-.55-1-.49,0-.76.68-.92,1.31-1-.57-.09-1.13-.64-1.37.19-.53-.31.06-.93-.58-1.25-.46.22-1.06,1-1.59.52V7.07c-1.28-.79-2,1.16-3.13.38l.13-.26c-.42-.44-1.23.16-2-.32.21.16.4.71,0,.8-.86-.48-1.44,0-2.07-.59l-.6.74c-3-.14-14.79.92-17.79,1l.11-.12c-4.57.37-14,.32-18.68,1.34-.73-.73-1.74-.56-2.5-.76.42.3.27.82-.06.79-2.32-.08-.15.51-2.5.83-2.71.68-13.07-.1-15.47-.72-1.29,1.08-2.9.26-4.16.94l.12-.25c-1.35.41-9-.6-10.62-.21l.22.16c-1.38.67-1.19-.52-2.28-.89a2,2,0,0,1-1.48,2v-.26c-.67.2-2.21,1.26-3.33,1.42l0-.67c-.93.72-2.69.42-3.36.49-1.53-.27-3.9-1.43-5.95-.55L7.8,10.5l-.19.19s-2.14,22.89.57,27.77l0,.66L8.68,39c.64.33.94-.44.89.22l-.88-.08c.65.19.2.54,0,.92a1.48,1.48,0,0,1,.75.35c.12-.26-.1-.28-.2-.42.35-.24.83-.86,1.26-.56.66.07,0,1.08.81,1.15,4.07.51,8,1.28,12.13,1.13.1.28,0,.27-.13.39,1.24-.28,2.34-.18,3.47-.48a2.18,2.18,0,0,1,.49,1C27,42.1,33.45,42,33.55,42.19Z"/><text class="cls-2" transform="translate(70.49 -142.72) scale(1.06 1)"><tspan xml:space="preserve"> דקומ</tspan><tspan class="cls-3"><tspan x="-118.93" y="33.85">ורשקתה ?הלקתב םתלקתנ</tspan><tspan x="-116.97" y="50.78">האירק וחתפו ןייכזה דקומל</tspan><tspan x="-53.34" y="67.7" xml:space="preserve"> -יאבצה ןופלטב</tspan><tspan x="-50.29" y="84.63" xml:space="preserve"> -יחרזא ןופלטב</tspan><tspan x="-134.59" y="118.48" xml:space="preserve"> ןתינ הנעמ לבקתמ אלו הדימב</tspan><tspan x="-113.35" y="135.4">יאבצה גיצנל תונפל שקבל</tspan></tspan></text><text class="cls-2" transform="translate(10.38 28.66) scale(1.06 1)">תו״המו ם״להוי<tspan class="cls-3"><tspan x="-88.9" y="33.85" xml:space="preserve"> עויס ,ישגר לופיט קינעמה זכרמ</tspan><tspan x="-108.73" y="50.78" xml:space="preserve"> םילייחו תולייחל יטפשמ יווילו יאופר</tspan><tspan x="-103.74" y="67.7" xml:space="preserve"> תומילא ,תינימ העיגפ לש םירקמב</tspan><tspan x="-102.61" y="84.63" xml:space="preserve"> לש םירקמבו גוז ינב ןיבו החפשמב</tspan><tspan x="-24.56" y="101.55">.ןנכותמ יתלב ןויריה</tspan><tspan x="-103.36" y="118.48">:הכימתו תודדומתה זכרמ -ת”והמ</tspan><tspan x="57.1" y="135.4">1111</tspan><tspan x="12.22" y="152.33">-פאסטווב וא</tspan><tspan x="4.23" y="169.25">52-92823988</tspan></tspan></text></svg>