<svg id="Layer_1" data-name="Layer 1" xmlns="http://www.w3.org/2000/svg" viewBox="0 0 95 44.43"><defs><style>.cls-1{fill:#2f486b;}.cls-2{font-size:15px;fill:#fff;font-family:Assistant-Bold, Assistant;font-weight:700;}.cls-3{fill:#1d1d1b;font-family:Assistant-SemiBold, Assistant;font-weight:600;}</style></defs><path class="cls-1" d="M5.6,36.94a1.36,1.36,0,0,0,1.16.92C6.43,37.16,6.07,36.86,5.6,36.94Z"/><path class="cls-1" d="M6.77,37.87h0Z"/><path class="cls-1" d="M91,5.47l-.36,0A.51.51,0,0,0,91,5.47Z"/><path class="cls-1" d="M27.81,40l.06-1.2c1,0,.3,1.38,1.26,1.08.37-1.7,1.58.18,1.91-.73,0,.14.46.19.43.72.14-.92.48-.21.77-.45.11-.25-.08-.27-.16-.55l.68-.33c.26.3.33.84,0,.94,1.76.33,10.22,1.21,12.11.75-.24-.69-.83-.22-1-1.31.5-.62.74.21,1-.43.19,1.62,1.1.38,1.48,2l.15-.92.25.56c2.2-1,.5-.46,2.46-.25,1.13-.14,1.67-1.42,2.3-1-.1,0-.35-.57-.05-.8.05.8.78-.59.92.23.29-.1,1.22,0,.9-1.1.16.55,1,.78.5,1.26.28,0,.55.19.75,0l-.36-.31c.94-.16,1.46.69,2.08-.31l-.35-.44c.56-.07,1-.15,1.26.94l-.58.34A3.42,3.42,0,0,0,58.81,38l-.28,0c1-1.09,6.21-2,7.12-3.37l-.42-.85L66,33c-.09,0-.38,2.76-.46,2.48,1.69-.08,10.49-.74,12-.17.63.47.11,1.35.1,1.49.77-.32.33-.9,1-.83.17.15,0,.67-.14.79.28-.1.55.19.57-.21-.36-.3-.2-1.36-.36-2l.84.09,0,.66c.18,0,.47-1.82,1.29-1.46,1.39.29,2.9.06,4.3.21a1.24,1.24,0,0,1-.61.87c.19,0,.47-.08.65.21-.34-.71.58-.47.32-.77,1-1.63,2.35-.14,3.25-1.25C88.86,31.64,90.71,8,90.71,6.24c.28,0,.56.06.65.2a.61.61,0,0,0-.92-.37l0,.94c-.67.32-.16-.56-.81-.49,0-.77.57-.93,1.1-1-.48-.09-1-.65-1.15.19-.46-.32,0-.93-.5-1.26-.38.22-.89,1-1.34.52V4.83c-1.08-.78-1.65,1.16-2.64.38l.1-.25c-.35-.44-1,.15-1.66-.32.18.15.33.7,0,.8-.72-.49-1.21,0-1.74-.6l-.51.75c-2.52-.15-12.49.91-15,1l.1-.12c-3.86.38-11.78.32-15.77,1.35-.62-.74-1.47-.56-2.12-.77.36.31.24.83,0,.8-2-.09-.13.51-2.12.82-2.28.68-11-.09-13-.72-1.09,1.08-2.45.26-3.51.95l.1-.26c-1.14.41-7.63-.59-9-.21l.18.16c-1.16.67-1-.51-1.92-.88a2,2,0,0,1-1.26,2l0-.27c-.57.2-1.87,1.26-2.82,1.42l0-.66c-.79.71-2.27.42-2.84.49-1.29-.28-3.29-1.44-5-.56L6.07,8.27l-.16.18s-1.81,22.9.48,27.78l0,.66.46-.09c.54.33.79-.44.75.22l-.74-.08c.55.19.16.55,0,.92a1.32,1.32,0,0,1,.63.35c.1-.26-.08-.28-.17-.42.3-.23.7-.86,1.06-.55.56.06,0,1.07.69,1.15,3.44.51,6.77,1.28,10.24,1.13.08.27,0,.26-.12.39,1.05-.29,2-.19,2.93-.48a2.24,2.24,0,0,1,.42,1C22.3,39.86,27.72,39.81,27.81,40Z"/><text class="cls-2" transform="translate(44.02 25.28) scale(1.06 1)"><tspan xml:space="preserve"> דקומ</tspan><tspan class="cls-3"><tspan x="-118.93" y="33.85">ורשקתה ?הלקתב םתלקתנ</tspan><tspan x="-116.97" y="50.78">האירק וחתפו ןייכזה דקומל</tspan><tspan x="-53.34" y="67.7" xml:space="preserve"> -יאבצה ןופלטב</tspan><tspan x="-50.29" y="84.63" xml:space="preserve"> -יחרזא ןופלטב</tspan><tspan x="-134.59" y="118.48" xml:space="preserve"> ןתינ הנעמ לבקתמ אלו הדימב</tspan><tspan x="-113.35" y="135.4">יאבצה גיצנל תונפל שקבל</tspan></tspan></text></svg>