<svg id="Layer_1" data-name="Layer 1" xmlns="http://www.w3.org/2000/svg" viewBox="0 0 153.19 43.93"><defs><style>.cls-1{fill:#2f486b;}.cls-2{font-size:15px;fill:#fff;font-family:Assistant-Bold, Assistant;font-weight:700;}.cls-3{fill:#1d1d1b;font-family:Assistant-SemiBold, Assistant;font-weight:600;}</style></defs><path class="cls-1" d="M7.11,37.7c.44.73,1.2.8,1.91.92A2,2,0,0,0,7.11,37.7Z"/><path class="cls-1" d="M9,38.63H9Z"/><path class="cls-1" d="M148.44,6.23l-.59,0A1.31,1.31,0,0,0,148.44,6.23Z"/><path class="cls-1" d="M43.84,40.71l.11-1.2c1.7,0,.5,1.38,2.07,1.08.62-1.7,2.62.18,3.16-.73,0,.14.76.19.71.72.24-.92.8-.21,1.28-.45.18-.25-.12-.27-.26-.55L52,39.25c.43.3.54.84.07.94,2.91.33,16.9,1.21,20,.75-.41-.69-1.37-.22-1.74-1.31.83-.62,1.22.21,1.58-.43.32,1.62,1.83.38,2.46,2l.23-.92.42.56c3.65-.95.83-.46,4.07-.25,1.87-.14,2.76-1.42,3.8-.95-.15,0-.57-.57-.08-.8.08.8,1.29-.59,1.52.23.48-.1,2,0,1.5-1.1.26.55,1.63.78.82,1.26.46,0,.91.19,1.24,0l-.59-.31c1.56-.16,2.41.69,3.43-.31l-.58-.44c.94-.07,1.72-.15,2.09.94l-1,.34a8.47,8.47,0,0,0,3.78-.68l-.46,0c1.64-1.09,10.26-2,11.78-3.37l-.7-.85,1.3-.71c-.15,0-.63,2.76-.75,2.48,2.79-.08,17.34-.74,19.92-.17,1,.48.19,1.35.18,1.49,1.27-.32.55-.9,1.62-.83.3.15-.06.67-.22.79.47-.1.91.19,1-.21-.6-.3-.35-1.36-.6-2l1.39.09-.06.66c.31,0,.78-1.82,2.15-1.46,2.3.29,4.79.06,7.1.21,0,.4-.52.64-1,.87.31,0,.78-.08,1.06.21-.55-.71,1-.47.54-.77,1.69-1.63,3.88-.14,5.38-1.25.13-1.46,3.2-25.12,3.2-26.86a2.25,2.25,0,0,1,1.06.2c-.12-.4-1-.6-1.51-.37l-.09.94c-1.11.32-.26-.56-1.35-.49-.05-.77.95-.93,1.83-1-.8-.09-1.59-.65-1.91.19-.75-.32.08-.93-.82-1.26-.64.22-1.48,1-2.21.52V5.59c-1.79-.78-2.74,1.16-4.37.38l.17-.25c-.57-.44-1.71.15-2.75-.32.29.15.55.7-.07.8-1.2-.49-2,0-2.9-.6l-.84.75c-4.17-.15-20.65.91-24.84,1l.16-.12c-6.38.38-19.49.32-26.09,1.35-1-.74-2.43-.56-3.49-.77.59.31.39.83-.08.8-3.24-.09-.22.51-3.5.82-3.78.68-18.24-.09-21.59-.72-1.8,1.08-4,.26-5.82.95l.18-.26c-1.89.41-12.63-.59-14.83-.21l.3.16c-1.92.67-1.66-.51-3.18-.88.2,1.21-1.44,1.9-2.07,2l0-.27c-.94.2-3.09,1.26-4.65,1.42l.06-.66c-1.31.71-3.76.42-4.69.49C15.9,11.2,12.6,10,9.73,10.92L7.88,9l-.27.18s-3,22.9.8,27.78l-.06.66.75-.09c.9.33,1.31-.44,1.25.22L9.12,37.7c.9.19.27.55-.07.92a2.73,2.73,0,0,1,1,.35c.18-.26-.13-.28-.27-.42.49-.23,1.16-.86,1.75-.55.93.06.06,1.07,1.14,1.15,5.68.51,11.19,1.28,16.94,1.13.13.27,0,.26-.19.39,1.73-.29,3.27-.18,4.84-.48a2,2,0,0,1,.69,1C34.73,40.62,43.7,40.57,43.84,40.71Z"/><text class="cls-2" transform="translate(13.83 25.76) scale(1.06 1)">הכרדהה תיירק ל״מח<tspan class="cls-3"><tspan x="-10.56" y="33.85" xml:space="preserve"> תמישמ לע יארחא םרוג</tspan><tspan x="19.77" y="50.78">.הדיחיב החטבאה</tspan><tspan x="-34.67" y="67.7"> ,םוריח ירקמל יעצבמ ל״מח</tspan><tspan x="78.81" y="84.63" xml:space="preserve"> - ןופלט</tspan></tspan></text></svg>