<svg id="Layer_1" data-name="Layer 1" xmlns="http://www.w3.org/2000/svg" viewBox="0 0 102.63 41.36"><defs><style>.cls-1{fill:#2f486b;}.cls-2{fill:#fff;}</style></defs><path class="cls-1" d="M2.57,33.73a1.55,1.55,0,0,0,1.34.91C3.53,34,3.11,33.65,2.57,33.73Z"/><path class="cls-1" d="M3.92,34.66h0Z"/><path class="cls-1" d="M101.75,2.26l-.41,0A.58.58,0,0,0,101.75,2.26Z"/><path class="cls-1" d="M28.35,36.74l.07-1.2c1.2,0,.35,1.37,1.46,1.08.43-1.7,1.83.17,2.22-.73,0,.14.53.19.5.72.16-.92.55-.22.89-.45.13-.26-.09-.28-.18-.55l.78-.33c.31.3.38.84,0,.94,2,.33,11.86,1.21,14.07.75-.29-.69-1-.22-1.23-1.32.59-.61.86.22,1.12-.43.22,1.63,1.28.39,1.72,2l.17-.92.28.56c2.57-1,.59-.47,2.86-.25,1.31-.14,1.94-1.42,2.67-.95-.11,0-.4-.57-.06-.81.06.81.91-.58,1.07.24.34-.1,1.42,0,1-1.1.19.55,1.15.77.58,1.25.32,0,.64.2.87-.05l-.42-.3c1.1-.16,1.7.69,2.41-.31l-.4-.44c.65-.07,1.2-.15,1.46.94l-.67.34a4.43,4.43,0,0,0,2.65-.68l-.32,0c1.15-1.1,7.2-2,8.26-3.37l-.49-.85.92-.71c-.11,0-.44,2.75-.53,2.48,2-.08,12.17-.74,14-.17.73.47.13,1.35.12,1.49.89-.32.39-.91,1.14-.83.21.15,0,.66-.15.78.33-.1.64.2.66-.2-.41-.31-.24-1.36-.41-2l1,.09,0,.66c.21,0,.55-1.82,1.5-1.46,1.62.29,3.37.05,5,.21,0,.4-.37.63-.71.87.22,0,.55-.08.75.2-.39-.7.68-.47.38-.76,1.18-1.63,2.72-.14,3.77-1.25.09-1.46,2.25-25.12,2.25-26.86.32,0,.65.06.75.2a.75.75,0,0,0-1.07-.37l-.06.93c-.78.33-.18-.55-.94-.49,0-.76.66-.92,1.28-1-.56-.08-1.12-.64-1.34.2-.53-.32.06-.94-.58-1.26-.44.22-1,1-1.55.52V1.62C96.62.83,96,2.78,94.81,2l.12-.25c-.4-.45-1.2.15-1.93-.32.21.15.39.7,0,.79-.84-.48-1.42,0-2-.59l-.59.75c-2.93-.15-14.49.91-17.44,1L73,3.29c-4.48.37-13.68.32-18.31,1.35C54,3.9,53,4.07,52.25,3.87c.41.3.27.83,0,.8-2.28-.09-.16.5-2.46.82-2.65.68-12.8-.1-15.15-.72-1.27,1.08-2.85.26-4.09,1l.13-.26c-1.33.41-8.86-.6-10.41-.21l.21.16c-1.35.67-1.17-.52-2.23-.89a2,2,0,0,1-1.45,2V6.26c-.66.2-2.17,1.26-3.26,1.42l0-.66c-.92.71-2.64.41-3.3.48C8.74,7.23,6.42,6.07,4.41,7l-1.3-1.9-.19.19S.83,28.14,3.48,33l0,.67L4,33.59c.63.33.92-.44.88.22L4,33.73c.64.19.19.54,0,.92a1.39,1.39,0,0,1,.73.35c.13-.26-.09-.28-.19-.42.34-.24.82-.86,1.23-.55.65.06,0,1.07.8,1.14,4,.52,7.86,1.29,11.89,1.14.09.27,0,.26-.14.39,1.22-.29,2.3-.19,3.41-.48a2.18,2.18,0,0,1,.48,1C22,36.65,28.25,36.6,28.35,36.74Z"/><path class="cls-2" d="M8.47,23.67V15.1h2.3v8.57Zm.48,0V22.05h6.5l0,1.62Zm5,0V17.82a1.08,1.08,0,0,0-.28-.84,1.12,1.12,0,0,0-.79-.26h-3V15.1h3.59a3.33,3.33,0,0,1,1.42.29,2.16,2.16,0,0,1,1,.9,3.2,3.2,0,0,1,.36,1.63v5.75Z"/><path class="cls-2" d="M18.05,20.52V16.86l-.19-1.76h2.29l.19,1.76v3.28Z"/><path class="cls-2" d="M22.18,20.52V16.86L22,15.1h2.3l.19,1.76V19.2l0,.94Z"/><path class="cls-2" d="M26,23.67V22.05h2.33V17.71a1,1,0,0,0-.23-.79,1.11,1.11,0,0,0-.65-.26l-1.11-.15.29-1.59,2,.24a2.1,2.1,0,0,1,1.5.79,2.71,2.71,0,0,1,.51,1.7v6Z"/><path class="cls-2" d="M32.39,20.52V16.86L32.2,15.1h2.3l.19,1.76v3.28Z"/><path class="cls-2" d="M37.39,23.82l-1.2-8.72h2.19L39.26,22a6.54,6.54,0,0,0,2-.41,3.57,3.57,0,0,0,1.3-.89,3.34,3.34,0,0,0,.69-1.32,6.33,6.33,0,0,0,.21-1.68l0-2.63h2.31l0,2.51a6.34,6.34,0,0,1-.87,3.48,5.2,5.2,0,0,1-2.72,2.1A13.17,13.17,0,0,1,37.39,23.82Zm1.32-3.42-.54-1.35a2.61,2.61,0,0,0,1.11-.52,1.73,1.73,0,0,0,.51-.92,6.39,6.39,0,0,0,.12-1.5v-1H42.1v.94A5.92,5.92,0,0,1,41.78,18a3.12,3.12,0,0,1-1,1.45A5.52,5.52,0,0,1,38.71,20.4Z"/><path class="cls-2" d="M50,23.92l-.19-1.47a3,3,0,0,0,.93-.23.77.77,0,0,0,.4-.47,2.38,2.38,0,0,0,.09-.81V15.1h4.84a3.32,3.32,0,0,1,1.41.29,2.16,2.16,0,0,1,1,.9,3.2,3.2,0,0,1,.36,1.63v5.75h-2.3V17.82a1.08,1.08,0,0,0-.28-.84,1.17,1.17,0,0,0-.8-.26H53.59v3.93a3.78,3.78,0,0,1-.38,1.83,2.27,2.27,0,0,1-1.16,1A6.7,6.7,0,0,1,50,23.92Z"/><path class="cls-2" d="M69.1,23.67H66.64l-3-4.37-1.42,4.37H60l1.77-5.15.5-1.15L60.82,15.1h2.31l1.28,2,1.14,1.64L66,17.32l.63-2.22h2.19L66.9,20.56Z"/><path class="cls-2" d="M70.39,23.67V22.05h3.22a2.16,2.16,0,0,0,.83-.15,1.49,1.49,0,0,0,.62-.42,1.94,1.94,0,0,0,.38-.66,2.72,2.72,0,0,0,.14-.89V18.82a3,3,0,0,0-.19-1.07A1.64,1.64,0,0,0,74.8,17a1.72,1.72,0,0,0-1-.28H72.64L72.35,18a1.06,1.06,0,0,0,.1.84,1.41,1.41,0,0,0,.88.42L73,20.61a3.62,3.62,0,0,1-1.78-.41,1.74,1.74,0,0,1-.8-1,3.09,3.09,0,0,1,0-1.4L71,15.1h3.36a3.61,3.61,0,0,1,1.91.48,3.14,3.14,0,0,1,1.21,1.34,4.51,4.51,0,0,1,.43,2v.9a4.59,4.59,0,0,1-.27,1.62,3.2,3.2,0,0,1-.76,1.21,3.26,3.26,0,0,1-1.17.75,4.29,4.29,0,0,1-1.52.26Z"/><path class="cls-2" d="M83.06,23.67V17.82a1.08,1.08,0,0,0-.28-.84,1.12,1.12,0,0,0-.79-.26H78.88V15.1h3.74a3.4,3.4,0,0,1,1.42.29,2.18,2.18,0,0,1,1,.9,3.2,3.2,0,0,1,.36,1.63v5.75Z"/><path class="cls-2" d="M87,23.67l1.1-5.78L86.78,15.1h2.39L90.24,18l-1,5.67Zm3.49,0,.21-1.62a3.34,3.34,0,0,0,1.83,0,1.61,1.61,0,0,0,.92-1,4.73,4.73,0,0,0,.25-1.75,4.62,4.62,0,0,0-.21-1.53,1.71,1.71,0,0,0-.6-.86,1.69,1.69,0,0,0-1-.27,1.79,1.79,0,0,0-.78.17,1.61,1.61,0,0,0-.58.48,1.65,1.65,0,0,0-.28.76l-.53-.93a2.89,2.89,0,0,1,1-1.66,2.7,2.7,0,0,1,1.6-.51,3.85,3.85,0,0,1,1.49.26,2.63,2.63,0,0,1,1.09.8,3.6,3.6,0,0,1,.68,1.37,6.92,6.92,0,0,1,.23,1.92,5.42,5.42,0,0,1-.61,2.76,3.37,3.37,0,0,1-1.84,1.54A5.34,5.34,0,0,1,90.45,23.68Z"/></svg>