<svg id="Layer_1" preserveAspectRatio="none" data-name="Layer 1" xmlns="http://www.w3.org/2000/svg" viewBox="0 0 84.26 36.38"><defs><style>.cls-1{fill:#2f486b;}.cls-2{fill:#fff;stroke:#2f486b;stroke-miterlimit:10;stroke-width:0.25px;}</style></defs><path class="cls-1" d="M5.64,30.9a1.15,1.15,0,0,0,1,.69C6.34,31.06,6,30.84,5.64,30.9Z"/><path class="cls-1" d="M6.64,31.6h0Z"/><path class="cls-1" d="M78.63,7.09l-.31,0A.48.48,0,0,0,78.63,7.09Z"/><path class="cls-1" d="M24.61,33.17l.05-.9c.88,0,.26,1,1.07.81.32-1.28,1.36.13,1.64-.55,0,.1.39.14.36.54.13-.69.41-.16.67-.33.09-.2-.07-.21-.14-.42l.58-.25c.22.22.28.63,0,.71,1.51.25,8.73.92,10.35.57-.21-.53-.71-.17-.9-1,.43-.46.63.16.82-.32.17,1.23,1,.29,1.27,1.54l.12-.7.22.43c1.88-.73.43-.36,2.1-.19,1-.11,1.42-1.08,2-.72-.08,0-.29-.43,0-.61,0,.61.67-.44.79.18.24-.08,1,0,.77-.84.13.42.84.59.42.95.24,0,.47.15.64,0l-.3-.24c.8-.12,1.24.53,1.77-.23l-.3-.33c.49,0,.89-.12,1.08.71l-.5.26a3.27,3.27,0,0,0,2-.52l-.24,0c.85-.83,5.3-1.51,6.08-2.55l-.36-.64.67-.54c-.08,0-.32,2.08-.39,1.87,1.45-.06,9-.56,10.29-.12.54.35.1,1,.09,1.12.66-.24.29-.68.84-.63.16.12,0,.51-.11.6.24-.08.47.15.49-.15-.31-.24-.18-1-.31-1.55l.72.07,0,.5c.16,0,.4-1.38,1.1-1.11,1.19.22,2.48.05,3.67.16,0,.3-.26.48-.52.66.16,0,.41-.06.56.15-.29-.53.5-.35.27-.57.88-1.24,2-.11,2.78-1,.07-1.1,1.65-19,1.65-20.32.24,0,.48,0,.55.16a.53.53,0,0,0-.78-.28l0,.7c-.58.25-.14-.42-.7-.37,0-.58.49-.7.94-.76-.41-.06-.82-.48-1,.15-.39-.24,0-.71-.43-.95-.33.17-.76.73-1.14.39v-.1c-.93-.6-1.42.87-2.26.28l.09-.19c-.3-.33-.89.11-1.42-.24.15.12.28.53,0,.6-.62-.36-1,0-1.49-.45l-.44.57c-2.15-.11-10.66.69-12.83.78l.09-.09c-3.3.28-10.07.24-13.48,1-.53-.56-1.25-.43-1.8-.58.3.23.2.62,0,.6-1.68-.06-.11.38-1.81.62-2,.52-9.42-.07-11.15-.54-.93.82-2.09.2-3,.71l.09-.19c-1,.31-6.52-.45-7.66-.16l.15.12c-1,.51-.86-.39-1.64-.67a1.46,1.46,0,0,1-1.07,1.51v-.2a13.71,13.71,0,0,1-2.4,1.08l0-.5c-.67.54-1.94.31-2.42.37C10.18,10.85,8.47,10,7,10.64L6,9.2l-.14.15s-1.54,17.32.41,21l0,.51.39-.07c.46.25.68-.33.64.17l-.63-.06c.46.14.14.41,0,.69a1.07,1.07,0,0,1,.54.27c.09-.2-.07-.21-.14-.32.25-.18.6-.65.9-.42.48.05,0,.81.59.87a51.57,51.57,0,0,0,8.75.86c.07.2,0,.2-.1.29.9-.22,1.69-.14,2.5-.36a1.64,1.64,0,0,1,.36.74C19.9,33.1,24.53,33.07,24.61,33.17Z"/><path class="cls-2" d="M16.46,25l-.2-1.47a3,3,0,0,0,.93-.23.84.84,0,0,0,.41-.48,2.38,2.38,0,0,0,.09-.81V16.2h4.83a3.32,3.32,0,0,1,1.41.28,2.18,2.18,0,0,1,1,.9A3.24,3.24,0,0,1,25.27,19v5.74H23V18.91a1.08,1.08,0,0,0-.29-.84,1.16,1.16,0,0,0-.8-.25H20v3.93a3.78,3.78,0,0,1-.38,1.83,2.27,2.27,0,0,1-1.15,1A6.68,6.68,0,0,1,16.46,25Z"/><path class="cls-2" d="M26.56,25.33l-.32-1.68,3.7-.66a3.21,3.21,0,0,0,1.25-.45,2,2,0,0,0,.72-.86,4.1,4.1,0,0,0,.34-1.3,16,16,0,0,0,.09-1.81c0-.69,0-1.48,0-2.37h2.28c0,1,0,1.87-.05,2.68a13.38,13.38,0,0,1-.27,2.17,5,5,0,0,1-.71,1.7A4,4,0,0,1,32.22,24a7.23,7.23,0,0,1-2.25.75Zm2.26-1.92L26.94,16.2h2.3L31,23.41Z"/><path class="cls-2" d="M36,24.76,37.14,19,35.86,16.2h2.4l1.06,2.89-1,5.67Zm3.49,0,.21-1.62a3.34,3.34,0,0,0,1.83,0,1.58,1.58,0,0,0,.92-1,4.79,4.79,0,0,0,.25-1.76,4.62,4.62,0,0,0-.21-1.53,1.62,1.62,0,0,0-.6-.85,1.67,1.67,0,0,0-1-.27,1.85,1.85,0,0,0-.78.17,1.58,1.58,0,0,0-.57.48,1.66,1.66,0,0,0-.29.76l-.53-.93a2.89,2.89,0,0,1,1-1.66,2.73,2.73,0,0,1,1.6-.52,3.81,3.81,0,0,1,1.49.27,2.72,2.72,0,0,1,1.1.8,3.86,3.86,0,0,1,.68,1.36,7.32,7.32,0,0,1,.23,1.92,5.42,5.42,0,0,1-.62,2.76,3.35,3.35,0,0,1-1.84,1.55A5.34,5.34,0,0,1,39.53,24.78Z"/><path class="cls-2" d="M47.38,24.91,46.19,16.2h2.18l.88,6.93a6.42,6.42,0,0,0,2-.41,3.5,3.5,0,0,0,1.3-.9,3.23,3.23,0,0,0,.7-1.32,6.79,6.79,0,0,0,.2-1.68l0-2.62h2.32v2.5a6.33,6.33,0,0,1-.86,3.48,5.19,5.19,0,0,1-2.73,2.1A13.14,13.14,0,0,1,47.38,24.91Zm1.33-3.42-.54-1.35a2.61,2.61,0,0,0,1.11-.51,1.76,1.76,0,0,0,.51-.93,6.39,6.39,0,0,0,.12-1.5v-1h2.18v.95a5.93,5.93,0,0,1-.31,1.91,3.27,3.27,0,0,1-1,1.45A5.6,5.6,0,0,1,48.71,21.49Z"/><path class="cls-2" d="M57.1,24.76,58.2,19,56.93,16.2h2.39l1.07,2.89-1,5.67Zm3.5,0,.21-1.62a3.35,3.35,0,0,0,1.83,0,1.61,1.61,0,0,0,.92-1,5,5,0,0,0,.25-1.76,4.62,4.62,0,0,0-.21-1.53A1.53,1.53,0,0,0,62,17.76a1.79,1.79,0,0,0-.78.17,1.61,1.61,0,0,0-.58.48,1.78,1.78,0,0,0-.29.76l-.52-.93a2.93,2.93,0,0,1,1-1.66,2.76,2.76,0,0,1,1.61-.52,3.85,3.85,0,0,1,1.49.27,2.69,2.69,0,0,1,1.09.8,3.55,3.55,0,0,1,.68,1.36A7.32,7.32,0,0,1,66,20.41a5.42,5.42,0,0,1-.61,2.76,3.37,3.37,0,0,1-1.85,1.55A5.3,5.3,0,0,1,60.6,24.78Z"/></svg>