<svg id="Layer_1" preserveAspectRatio="none" data-name="Layer 1" xmlns="http://www.w3.org/2000/svg" viewBox="0 0 102.39 43.4"><defs><style>.cls-1{fill:#2f486b;}.cls-2{font-size:15px;fill:#fff;font-family:Assistant-Bold, Assistant;font-weight:700;}.cls-3{fill:#1d1d1b;font-family:Assistant-SemiBold, Assistant;font-weight:600;}</style></defs><path class="cls-1" d="M6.35,36.52a1.35,1.35,0,0,0,1.16.92C7.17,36.74,6.82,36.44,6.35,36.52Z"/><path class="cls-1" d="M7.52,37.45h0Z"/><path class="cls-1" d="M91.78,5.05l-.35,0A.48.48,0,0,0,91.78,5.05Z"/><path class="cls-1" d="M28.55,39.53l.07-1.2c1,0,.3,1.38,1.25,1.08.38-1.7,1.59.18,1.91-.73,0,.14.46.19.43.72.15-.92.48-.21.78-.45.1-.25-.08-.27-.16-.55l.67-.33c.27.3.33.84,0,.94,1.76.33,10.21,1.21,12.11.75-.24-.69-.83-.22-1-1.31.5-.62.74.21,1-.43.19,1.62,1.1.38,1.48,2l.14-.92.25.56c2.21-.95.51-.46,2.46-.25,1.13-.14,1.67-1.42,2.3-.95-.09,0-.34-.57-.05-.8.05.8.78-.58.93.23.28-.1,1.21,0,.9-1.1.16.55,1,.78.49,1.26.28,0,.55.19.75,0l-.35-.31c.94-.16,1.46.69,2.07-.31L56.59,37c.57-.07,1-.15,1.26,1l-.58.33a3.43,3.43,0,0,0,2.29-.68l-.28,0c1-1.09,6.2-2,7.12-3.37L66,33.32l.79-.71c-.1,0-.38,2.76-.46,2.48,1.69-.08,10.48-.74,12-.17.63.48.12,1.35.11,1.49.77-.32.33-.9,1-.83.18.15,0,.67-.13.79.28-.1.55.19.57-.21-.36-.3-.21-1.36-.36-2l.84.09,0,.66c.19,0,.48-1.81,1.3-1.46,1.39.29,2.9.06,4.3.21a1.24,1.24,0,0,1-.61.87c.19,0,.47-.08.64.21-.33-.71.59-.47.33-.77,1-1.63,2.34-.14,3.25-1.25.08-1.46,1.93-25.12,1.93-26.86.28,0,.56.06.65.21a.61.61,0,0,0-.92-.37l0,.93c-.68.32-.16-.56-.82-.49,0-.77.57-.93,1.11-1-.48-.09-1-.65-1.16.19-.45-.32,0-.93-.49-1.26-.39.22-.9,1-1.34.52V4.41c-1.08-.78-1.66,1.16-2.65.38l.11-.25c-.35-.44-1,.15-1.67-.32.18.15.34.7,0,.8-.72-.49-1.22,0-1.75-.6l-.51.75c-2.52-.15-12.48.91-15,1l.1-.12c-3.86.38-11.79.32-15.78,1.35-.61-.74-1.46-.56-2.11-.77.36.31.24.83,0,.8-2-.09-.14.51-2.12.82-2.28.68-11-.09-13-.72-1.09,1.08-2.45.26-3.52,1l.11-.26c-1.15.41-7.63-.59-9-.21l.17.16c-1.16.67-1-.51-1.91-.88a2,2,0,0,1-1.26,2l0-.27c-.58.2-1.87,1.26-2.82,1.42l0-.66c-.79.71-2.27.42-2.84.49-1.29-.28-3.29-1.44-5-.56L6.82,7.85,6.65,8s-1.8,22.9.49,27.78l0,.66.45-.09c.55.33.8-.44.76.22l-.74-.08c.54.19.16.55-.05.92a1.28,1.28,0,0,1,.63.35c.11-.26-.08-.28-.16-.42.29-.23.7-.86,1.06-.55.56.06,0,1.07.69,1.15,3.43.51,6.76,1.28,10.24,1.13.08.27,0,.26-.12.39,1.05-.29,2-.18,2.93-.48a2.29,2.29,0,0,1,.42,1C23.05,39.44,28.47,39.39,28.55,39.53Z"/><text/><text class="cls-2" transform="translate(186.16 29.01) scale(1.06 1)">freshop<tspan class="cls-3" x="-62.59" y="33.85">
ןירדהמל יבלח- רשכ</tspan><tspan class="cls-3" x="11.33" y="50.78" xml:space="preserve"> -ןופלט</tspan><tspan class="cls-3" x="-29.23" y="67.7">
-החיתפ תועש</tspan><tspan class="cls-3" x="20.95" y="84.63" xml:space="preserve"> -ד-א</tspan><tspan class="cls-3" x="-15.09" y="101.55">
.הנתשמ -ה</tspan></text><text class="cls-2" transform="translate(27.06 28.23) scale(1.06 1)">DVcom<tspan class="cls-3"><tspan x="5.99" y="33.85" xml:space="preserve"> -ןופלט</tspan><tspan x="-37.57" y="50.78">
- החיתפ תועש</tspan><tspan x="15.62" y="67.7" xml:space="preserve"> -ד-א</tspan><tspan x="28.88" y="84.63" xml:space="preserve"> -ה</tspan></tspan></text></svg>