<svg id="Layer_1" preserveAspectRatio="none" data-name="Layer 1" xmlns="http://www.w3.org/2000/svg" viewBox="0 0 103.61 54.13"><defs><style>.cls-1{fill:#2f486b;}.cls-2{fill:#fff;}</style></defs><path class="cls-1" d="M9.52,44.33a1.33,1.33,0,0,0,1.16.92C10.34,44.56,10,44.25,9.52,44.33Z"/><path class="cls-1" d="M10.69,45.26h0Z"/><path class="cls-1" d="M95,12.86l-.35.05A.48.48,0,0,0,95,12.86Z"/><path class="cls-1" d="M31.72,47.35l.07-1.2c1,0,.3,1.37,1.25,1.07.37-1.69,1.58.18,1.91-.72,0,.13.46.18.43.71.15-.92.48-.21.78-.45.1-.25-.08-.27-.16-.55l.67-.32c.27.29.33.83,0,.93,1.76.33,10.21,1.22,12.11.76-.24-.7-.83-.23-1-1.32.5-.62.74.21,1-.43.19,1.62,1.1.39,1.48,2l.14-.92.25.57c2.21-1,.51-.47,2.46-.25,1.13-.15,1.67-1.42,2.3-.95-.09,0-.34-.58,0-.81,0,.81.78-.58.92.24.29-.11,1.22,0,.91-1.11.16.55,1,.78.49,1.26.28,0,.55.19.75,0L58,45.53c.95-.16,1.47.7,2.08-.3l-.35-.44c.57-.07,1-.16,1.26.94l-.58.33a3.39,3.39,0,0,0,2.29-.68l-.28,0c1-1.09,6.2-2,7.12-3.36l-.42-.85.79-.72c-.1,0-.38,2.76-.46,2.48,1.69-.08,10.48-.74,12-.16.63.47.12,1.35.11,1.48.77-.32.33-.9,1-.83.18.16,0,.67-.13.79.28-.1.55.19.57-.2-.36-.31-.21-1.37-.36-2l.84.09,0,.67c.19,0,.48-1.82,1.3-1.46,1.39.28,2.9.05,4.3.2a1.27,1.27,0,0,1-.61.87c.18,0,.47-.08.64.21-.34-.71.59-.47.32-.77,1-1.62,2.35-.14,3.26-1.24.07-1.47,1.93-25.13,1.93-26.87.28,0,.56.06.65.21a.61.61,0,0,0-.92-.37l0,.93c-.68.33-.16-.55-.82-.49,0-.76.57-.93,1.11-1-.48-.09-1-.64-1.16.19-.45-.32,0-.93-.49-1.26-.39.23-.9,1-1.34.52v-.13c-1.09-.79-1.66,1.15-2.65.38l.11-.26c-.35-.44-1,.15-1.67-.32.18.16.34.71,0,.8-.72-.48-1.22,0-1.75-.6l-.51.75c-2.52-.15-12.48.92-15,1l.1-.12c-3.86.37-11.79.31-15.78,1.34-.61-.73-1.47-.56-2.11-.77.36.31.24.83,0,.8-2-.08-.14.51-2.12.82-2.28.69-11-.09-13-.72-1.09,1.09-2.45.27-3.52,1l.11-.25c-1.15.4-7.63-.6-9-.21l.18.15c-1.16.68-1-.51-1.92-.88a1.92,1.92,0,0,1-1.25,2v-.27c-.57.21-1.86,1.26-2.81,1.43l0-.67c-.79.72-2.27.42-2.84.49-1.3-.28-3.29-1.43-5-.56L10,15.66l-.17.19S8,38.74,10.31,43.62l0,.66.45-.08c.55.32.8-.45.76.22l-.74-.09c.54.2.16.55-.05.92a1.28,1.28,0,0,1,.63.35c.11-.25-.08-.27-.16-.42.29-.23.7-.86,1.06-.55.56.06,0,1.08.69,1.15,3.43.51,6.76,1.28,10.24,1.13.07.28,0,.27-.12.39,1-.29,2-.18,2.93-.48a2.32,2.32,0,0,1,.41,1C26.22,47.25,31.64,47.2,31.72,47.35Z"/><path class="cls-2" d="M39.9,39V30.14a1.12,1.12,0,0,0-.28-.84,1.17,1.17,0,0,0-.81-.25h-3.3V27.43h3.94a3.4,3.4,0,0,1,1.42.28,2.11,2.11,0,0,1,1,.9,3.25,3.25,0,0,1,.35,1.64V39Z"/><path class="cls-2" d="M44,36V29.18l-.19-1.75h2.3l.19,1.75V36Z"/><path class="cls-2" d="M47.81,36V34.37h2.33V30a1.09,1.09,0,0,0-.23-.8,1.1,1.1,0,0,0-.65-.25l-1.11-.15.28-1.59,2,.24a2.1,2.1,0,0,1,1.5.79,2.71,2.71,0,0,1,.51,1.7v6Z"/><path class="cls-2" d="M54.24,32.84V29.18l-.19-1.75h2.3l.19,1.75v3.29Z"/><path class="cls-2" d="M63.77,36V30.22c0-.78-.36-1.17-1.07-1.17H58.26V27.43h5.06a3.25,3.25,0,0,1,1.44.3,2.15,2.15,0,0,1,1,.94,3.31,3.31,0,0,1,.35,1.65V36Zm-5.51,0V28.4h2.3V36Z"/></svg>