<svg id="Layer_1" data-name="Layer 1" xmlns="http://www.w3.org/2000/svg" viewBox="0 0 38.11 39.89"><defs><style>.cls-1{fill:none;stroke:#1d3859;stroke-miterlimit:10;stroke-width:1.28px;}</style></defs><path class="cls-1" d="M26.3,5.93c.78-.16,1.12.46,3.74,2.6,2.43,2,3,2.19,3.07,3,0,1.36-1.75,2.75-3.37,3.14A4.4,4.4,0,0,1,28,14.7c-.06.08-.1.16-.17.24L8.63,38.45a2.1,2.1,0,0,1-2.94.35l-.27-.22a2.1,2.1,0,0,1-.24-3L24.39,12.11l.12-.12a4.63,4.63,0,0,1-.43-2.1C24.12,8.3,25,6.19,26.3,5.93Z"/><line class="cls-1" x1="37.62" y1="6.72" x2="32.87" y2="12.53"/><line class="cls-1" x1="30.14" y1="0.61" x2="25.4" y2="6.42"/><line class="cls-1" x1="33.8" y1="3.77" x2="30.3" y2="8.05"/><path class="cls-1" d="M22.13,21.94c1.94,2.16,3.46,3.95,4.49,5.19,3.27,3.92,2.92,3.77,4.15,5.07.9.95,1.62,2,2.48,3a2.67,2.67,0,0,1,.8,1.45A2.41,2.41,0,0,1,33,38.86a2.58,2.58,0,0,1-1.79.34c-1-.19-1.56-1-2.2-1.86-.92-1.23-2-2.36-2.92-3.57l-.9-1.11c-.62-.75-1.08-1.29-1.17-1.39-.55-.65-1.81-2.22-4.65-5.94"/><path class="cls-1" d="M18.83,18.3c-.79-.95-1.46-1.77-2-2.42C14.93,13.45,13.12,11,13.12,11a8.75,8.75,0,0,0,.3-1.13,8.45,8.45,0,0,0-.17-3.71c-1-3.52-4.69-4.88-5-5A6.48,6.48,0,0,0,4.46.8a4.67,4.67,0,0,0-2,1A5.2,5.2,0,0,0,.76,5a7,7,0,0,0,.13,3.1,7.77,7.77,0,0,0,1.58,3.26,7.87,7.87,0,0,0,4.15,2.53s.24,0,2.78.17h0c.13.18.33.44.57.74.59.78,1.48,1.83,1.73,2.13.84,1,1.64,2,2.46,3l1.94,2.37"/></svg>