<svg id="Layer_1" data-name="Layer 1" xmlns="http://www.w3.org/2000/svg" viewBox="0 0 100.34 50.81"><defs><style>.cls-1{fill:#2f486b;}.cls-2{font-size:15px;fill:#fff;font-family:Assistant-Bold, Assistant;font-weight:700;}.cls-3{fill:#1d1d1b;font-family:Assistant-SemiBold, Assistant;font-weight:600;}</style></defs><path class="cls-1" d="M10.13,41.61a1.36,1.36,0,0,0,1.16.91C11,41.83,10.6,41.53,10.13,41.61Z"/><path class="cls-1" d="M11.3,42.54h0Z"/><path class="cls-1" d="M95.57,10.14l-.36,0A.51.51,0,0,0,95.57,10.14Z"/><path class="cls-1" d="M32.34,44.62l.06-1.2c1,0,.3,1.37,1.26,1.07.37-1.69,1.58.18,1.91-.72,0,.13.46.19.43.72.14-.92.48-.22.77-.45.11-.26-.08-.28-.16-.56l.68-.32c.26.3.33.84,0,.94,1.76.33,10.22,1.21,12.11.75-.24-.7-.83-.23-1-1.32.5-.61.74.21,1-.43.19,1.63,1.1.39,1.48,2l.15-.92.25.56c2.2-1,.5-.47,2.46-.25,1.13-.14,1.67-1.42,2.29-1-.09,0-.34-.57,0-.81,0,.81.79-.58.93.24.29-.1,1.22,0,.9-1.11.16.56,1,.78.49,1.26.28,0,.56.2.76,0l-.36-.31c.94-.16,1.46.7,2.08-.3l-.35-.44c.56-.07,1-.15,1.26.94l-.58.34a3.37,3.37,0,0,0,2.28-.69l-.28,0c1-1.09,6.21-2,7.12-3.36l-.42-.85.79-.72c-.09,0-.38,2.76-.46,2.49,1.69-.08,10.49-.74,12-.17.63.47.11,1.35.1,1.48.77-.31.33-.9,1-.83.17.16,0,.67-.14.79.28-.1.55.2.57-.2-.36-.31-.2-1.36-.36-2l.84.09,0,.67c.18,0,.47-1.82,1.29-1.46,1.39.29,2.9,0,4.3.21,0,.4-.32.63-.61.87.19,0,.47-.09.65.2-.34-.7.58-.47.32-.77,1-1.62,2.35-.14,3.25-1.24.08-1.46,1.93-25.13,1.93-26.87.28,0,.56.07.65.21a.61.61,0,0,0-.92-.37l0,.93c-.67.33-.16-.55-.81-.49,0-.76.57-.92,1.1-1-.48-.09-1-.64-1.15.19-.46-.31,0-.93-.5-1.26-.38.23-.89,1-1.34.52V9.5c-1.08-.79-1.65,1.16-2.64.38l.1-.26c-.35-.44-1,.15-1.66-.32.18.16.33.71,0,.8-.72-.48-1.21,0-1.74-.59l-.51.74c-2.52-.14-12.49.92-15,1l.1-.12C67,11.54,59,11.48,55,12.51c-.62-.73-1.47-.56-2.12-.76.36.3.24.82,0,.79-2-.08-.13.51-2.12.83-2.28.68-11-.1-13-.72-1.09,1.08-2.45.26-3.51.94l.1-.25c-1.14.41-7.63-.6-9-.21l.18.15c-1.16.68-1-.51-1.92-.88a1.94,1.94,0,0,1-1.26,2l0-.27c-.57.21-1.87,1.27-2.82,1.43l0-.67c-.79.72-2.27.42-2.84.49-1.29-.27-3.29-1.43-5-.55l-1.12-1.9-.16.19S8.63,36,10.92,40.89l0,.66.46-.08c.54.33.79-.44.75.22l-.74-.08c.55.19.16.54,0,.92a1.18,1.18,0,0,1,.63.35c.1-.26-.08-.28-.17-.42.3-.24.7-.86,1.06-.56.56.07,0,1.08.69,1.15,3.44.51,6.77,1.28,10.24,1.13.08.28,0,.27-.12.39,1.05-.28,2-.18,2.93-.48a2.33,2.33,0,0,1,.42,1C26.83,44.52,32.25,44.47,32.34,44.62Z"/><text/><text class="cls-2" transform="translate(25.3 33.09) scale(1.06 1)">freshop<tspan class="cls-3" x="-62.59" y="33.85">ןירדהמל יבלח- רשכ</tspan><tspan class="cls-3" x="11.33" y="50.78" xml:space="preserve"> -ןופלט</tspan><tspan class="cls-3" x="-29.23" y="67.7">-החיתפ תועש</tspan><tspan class="cls-3" x="20.95" y="84.63" xml:space="preserve"> -ד-א</tspan><tspan class="cls-3" x="-15.09" y="101.55">.הנתשמ -ה</tspan></text></svg>