<svg id="Layer_1" preserveAspectRatio="none" data-name="Layer 1" xmlns="http://www.w3.org/2000/svg" viewBox="0 0 188.29 41.74"><defs><style>.cls-1{fill:#2f486b;}.cls-2{fill:#fff;}</style></defs><path class="cls-1" d="M6.72,35.82a3.4,3.4,0,0,0,2.42.91A2.86,2.86,0,0,0,6.72,35.82Z"/><path class="cls-1" d="M9.16,36.75h0Z"/><path class="cls-1" d="M185.24,4.35l-.75,0A2.1,2.1,0,0,0,185.24,4.35Z"/><path class="cls-1" d="M53.12,38.83l.14-1.2c2.15,0,.63,1.37,2.62,1.07.77-1.69,3.3.18,4-.72,0,.13,1,.18.9.72.3-.93,1-.22,1.61-.45.23-.26-.16-.28-.33-.56l1.41-.32c.55.29.69.84.09.94,3.68.33,21.35,1.21,25.31.75-.51-.7-1.73-.23-2.19-1.32,1-.61,1.54.21,2-.43.4,1.63,2.3.39,3.1,2l.3-.92.52.56c4.61-1,1-.47,5.14-.25,2.36-.14,3.49-1.42,4.8-1-.19,0-.71-.57-.1-.81.1.81,1.63-.58,1.93.24.6-.1,2.54,0,1.88-1.11.33.55,2.07.78,1,1.26.58,0,1.15.2,1.57,0L108.1,37c2-.16,3.05.7,4.34-.3l-.73-.44c1.18-.07,2.17-.15,2.63.94l-1.21.34a13,13,0,0,0,4.77-.69l-.58,0c2.08-1.09,13-2,14.88-3.36l-.88-.85L133,31.9c-.2,0-.8,2.76-1,2.49,3.53-.08,21.91-.74,25.17-.17,1.32.47.24,1.35.22,1.48,1.6-.31.69-.9,2-.83.38.16-.07.67-.28.79.59-.1,1.15.2,1.19-.2-.74-.31-.43-1.36-.74-2.05l1.75.09-.08.67c.39,0,1-1.82,2.71-1.46,2.91.29,6.06,0,9,.21,0,.4-.66.63-1.27.87.39,0,1-.09,1.35.2-.71-.7,1.22-.47.67-.77,2.14-1.62,4.91-.14,6.79-1.24.17-1.46,4-25.13,4-26.87a3.68,3.68,0,0,1,1.34.21c-.15-.41-1.3-.6-1.91-.37l-.11.93c-1.41.33-.33-.55-1.7-.49-.08-.76,1.19-.92,2.3-1-1-.09-2-.64-2.41.19-.94-.31.11-.93-1-1.26-.81.23-1.87,1-2.8.52l0-.13c-2.26-.79-3.46,1.16-5.52.38l.22-.26c-.73-.44-2.17.15-3.48-.32.37.16.7.71-.09.8-1.52-.48-2.55,0-3.66-.59l-1.06.74c-5.27-.14-26.08.92-31.38,1l.21-.12c-8.07.37-24.62.31-33,1.34C99.26,6,97.48,6.16,96.14,6c.75.3.49.82-.09.79-4.1-.08-.28.51-4.43.83-4.77.68-23-.1-27.27-.73-2.28,1.09-5.12.27-7.35,1l.23-.25C54.83,8,41.28,7,38.5,7.34l.37.15c-2.43.68-2.1-.51-4-.88.25,1.22-1.83,1.91-2.62,2l0-.27c-1.2.21-3.9,1.27-5.88,1.43l.08-.67c-1.65.72-4.75.42-5.93.49C17.83,9.32,13.66,8.16,10,9L7.7,7.14l-.34.19s-3.77,22.89,1,27.77l-.08.66,1-.08c1.13.33,1.66-.44,1.58.22l-1.55-.08c1.14.19.34.54-.09.92a3.89,3.89,0,0,1,1.31.34c.23-.25-.16-.27-.34-.42.61-.23,1.47-.85,2.21-.55,1.17.07.08,1.08,1.44,1.15,7.18.51,14.14,1.28,21.4,1.13.16.28,0,.27-.24.39,2.18-.28,4.13-.18,6.12-.48a2,2,0,0,1,.86,1C41.62,38.73,52.94,38.68,53.12,38.83Z"/><path class="cls-2" d="M24.59,27.88A13.24,13.24,0,0,1,23,24.69,11.5,11.5,0,0,1,22.49,21,11.54,11.54,0,0,1,23,17.39a13.12,13.12,0,0,1,1.55-3.2l1.36.54a11,11,0,0,0-1.29,3.07,12.67,12.67,0,0,0,0,6.47A11,11,0,0,0,26,27.34Z"/><path class="cls-2" d="M27.47,25.21V21.12l.31-1h2v5.1Zm5.33,0V19.36a1.12,1.12,0,0,0-.28-.84,1.14,1.14,0,0,0-.79-.25H27.56V16.65h4.79a3.4,3.4,0,0,1,1.42.28,2.18,2.18,0,0,1,1,.9,3.24,3.24,0,0,1,.36,1.64v5.74Z"/><path class="cls-2" d="M36.82,22.06V18.4l-.19-1.75h2.29l.2,1.75v2.34l0,1Z"/><path class="cls-2" d="M41,22.06V18.4l-.19-1.75h2.3l.19,1.75v2.34l0,1Z"/><path class="cls-2" d="M44.8,28.21V21l.32-1h2v8.22Zm3.4-3L48,23.61a3.12,3.12,0,0,0,.91-.21,1.9,1.9,0,0,0,.69-.46,2.07,2.07,0,0,0,.44-.82,5.06,5.06,0,0,0,.21-1.24l.21-2.61H44.92V16.65h8L52.87,18l-.17,2.27a8.11,8.11,0,0,1-.32,1.9,4.74,4.74,0,0,1-.77,1.56,3.49,3.49,0,0,1-1.35,1.06A5.21,5.21,0,0,1,48.2,25.23Z"/><path class="cls-2" d="M55.36,25.36l-1.2-8.71h2.19l.88,6.93a6.13,6.13,0,0,0,2-.42,3.38,3.38,0,0,0,1.3-.89A3.21,3.21,0,0,0,61.23,21a6.33,6.33,0,0,0,.21-1.68l0-2.62h2.31l0,2.5a6.42,6.42,0,0,1-.86,3.48,5.26,5.26,0,0,1-2.73,2.1A13.17,13.17,0,0,1,55.36,25.36Zm1.33-3.42-.55-1.35a2.5,2.5,0,0,0,1.11-.52,1.7,1.7,0,0,0,.51-.92,6.39,6.39,0,0,0,.12-1.5v-1h2.19v.95a6.26,6.26,0,0,1-.31,1.91,3.27,3.27,0,0,1-1,1.45A5.68,5.68,0,0,1,56.69,21.94Z"/><path class="cls-2" d="M65,25.21V23.59H67.3V19.26a1.09,1.09,0,0,0-.23-.8,1.13,1.13,0,0,0-.65-.25l-1.12-.15.29-1.59,2,.24a2.12,2.12,0,0,1,1.5.78,2.7,2.7,0,0,1,.52,1.71v6Z"/><path class="cls-2" d="M72.53,27.88l-1.35-.54a11.64,11.64,0,0,0,1.29-3.07,13,13,0,0,0,0-6.47,11.64,11.64,0,0,0-1.29-3.07l1.35-.54a13.53,13.53,0,0,1,1.56,3.2A11.54,11.54,0,0,1,74.64,21a11.5,11.5,0,0,1-.55,3.65A13.66,13.66,0,0,1,72.53,27.88Z"/><path class="cls-2" d="M80,28.21V18.4l-.2-1.75h2.3l.19,1.75v9.81Z"/><path class="cls-2" d="M85.44,19.92a1.23,1.23,0,0,1-1-.49A2.28,2.28,0,0,1,84,18.06a3.11,3.11,0,0,1,.55-1.83,4,4,0,0,1,1.64-1.29l.49.9a2.85,2.85,0,0,0-1,.78,1.82,1.82,0,0,0-.35,1.12L85.38,19l-.75-1A1.83,1.83,0,0,1,85,17.8a1.07,1.07,0,0,1,.43-.09,1.26,1.26,0,0,1,.83.28,1,1,0,0,1,.34.76,1.11,1.11,0,0,1-.33.85A1.17,1.17,0,0,1,85.44,19.92Zm3.63,0A1.24,1.24,0,0,1,88,19.43a2.28,2.28,0,0,1-.36-1.37,3.18,3.18,0,0,1,.54-1.83,4,4,0,0,1,1.64-1.29l.5.9a2.9,2.9,0,0,0-1.06.78,1.82,1.82,0,0,0-.35,1.12L89,19l-.75-1a1.9,1.9,0,0,1,.39-.23,1,1,0,0,1,.43-.09,1.24,1.24,0,0,1,.82.28.93.93,0,0,1,.34.76,1.11,1.11,0,0,1-.33.85A1.13,1.13,0,0,1,89.07,19.92Z"/><path class="cls-2" d="M92.4,25.21V18.4l-.19-1.75h2.3l.19,1.75v6.81Z"/><path class="cls-2" d="M96.29,25.21l1.11-5.77-1.28-2.79h2.39l1.07,2.89-1,5.67Zm3.5,0,.21-1.62a3.23,3.23,0,0,0,1.83,0,1.56,1.56,0,0,0,.92-1,4.79,4.79,0,0,0,.25-1.76,4.62,4.62,0,0,0-.21-1.53,1.53,1.53,0,0,0-1.58-1.12,1.66,1.66,0,0,0-.78.17,1.43,1.43,0,0,0-.58.48,1.61,1.61,0,0,0-.28.76L99,18.69a2.9,2.9,0,0,1,1-1.66,2.69,2.69,0,0,1,1.61-.52,4,4,0,0,1,1.49.26,2.74,2.74,0,0,1,1.09.81,3.55,3.55,0,0,1,.68,1.36,6.92,6.92,0,0,1,.23,1.92,5.42,5.42,0,0,1-.61,2.76,3.39,3.39,0,0,1-1.84,1.55A5.34,5.34,0,0,1,99.79,25.23Z"/><path class="cls-2" d="M110.43,25.21V19.36a1.08,1.08,0,0,0-.28-.84,1.12,1.12,0,0,0-.79-.25h-3.11V16.65H110a3.4,3.4,0,0,1,1.42.28,2.18,2.18,0,0,1,1,.9,3.24,3.24,0,0,1,.36,1.64v5.74Z"/><path class="cls-2" d="M123,25.21h-2.45l-3-4.36-1.42,4.36h-2.18l1.77-5.14.5-1.16-1.49-2.26H117l1.28,2,1.15,1.63.43-1.36.64-2.22h2.19l-1.92,5.46Z"/><path class="cls-2" d="M124.21,25.21V21.12l.32-1h2v5.1Zm5.33,0V19.36a1.12,1.12,0,0,0-.28-.84,1.14,1.14,0,0,0-.79-.25H124.3V16.65h4.79a3.4,3.4,0,0,1,1.42.28,2.18,2.18,0,0,1,1,.9,3.24,3.24,0,0,1,.36,1.64v5.74Z"/><path class="cls-2" d="M136.62,25.21V16.65h2.3v8.56Zm.48,0V23.59h6.5l0,1.62Zm5,0V19.36a1.08,1.08,0,0,0-.28-.84,1.12,1.12,0,0,0-.79-.25h-3V16.65h3.59a3.33,3.33,0,0,1,1.42.28,2.16,2.16,0,0,1,1,.9,3.24,3.24,0,0,1,.36,1.64v5.74Z"/><path class="cls-2" d="M146.2,25.21V18.4L146,16.65h2.29l.19,1.75v6.81Z"/><path class="cls-2" d="M155.72,25.21V19.44c0-.78-.35-1.17-1.07-1.17h-4.43V16.65h5.06a3.23,3.23,0,0,1,1.43.3,2.17,2.17,0,0,1,1,.94,3.42,3.42,0,0,1,.35,1.65v5.67Zm-5.5,0V17.62h2.3v7.59Z"/><path class="cls-2" d="M159.33,25.47,159.14,24a2.68,2.68,0,0,0,.92-.24.76.76,0,0,0,.41-.47,2.38,2.38,0,0,0,.09-.81V16.65h4.83a3.33,3.33,0,0,1,1.42.28,2.16,2.16,0,0,1,1,.9,3.24,3.24,0,0,1,.36,1.64v5.74h-2.3V19.36a1,1,0,0,0-.29-.84,1.14,1.14,0,0,0-.79-.25h-1.89V22.2A3.78,3.78,0,0,1,162.5,24a2.29,2.29,0,0,1-1.16,1A6.68,6.68,0,0,1,159.33,25.47Z"/></svg>