<svg id="Layer_1" preserveAspectRatio="none" data-name="Layer 1" xmlns="http://www.w3.org/2000/svg" viewBox="0 0 100.6 49.53"><defs><style>.cls-1{fill:#2f486b;}.cls-2{fill:#fff;}</style></defs><path class="cls-1" d="M9,41.34a1.33,1.33,0,0,0,1.16.92C9.83,41.56,9.48,41.26,9,41.34Z"/><path class="cls-1" d="M10.17,42.27h0Z"/><path class="cls-1" d="M94.44,9.87l-.36.05A.5.5,0,0,0,94.44,9.87Z"/><path class="cls-1" d="M31.21,44.35l.07-1.2c1,0,.3,1.38,1.25,1.08.37-1.7,1.58.18,1.91-.73,0,.14.46.19.43.72.14-.92.48-.21.78-.45.1-.25-.08-.27-.16-.55l.67-.33c.26.3.33.84,0,.94,1.76.33,10.22,1.21,12.12.75-.25-.69-.83-.22-1-1.31.5-.62.73.21,1-.43.19,1.62,1.1.38,1.48,2l.14-.92.25.56c2.21-.95.5-.46,2.46-.25,1.13-.14,1.67-1.42,2.3-.95-.09,0-.34-.57,0-.8,0,.8.78-.59.92.23.29-.1,1.22,0,.91-1.1.15.55,1,.78.49,1.26.28,0,.55.19.75,0l-.36-.31c.95-.16,1.46.69,2.08-.31l-.35-.44c.57-.07,1-.15,1.26.94l-.58.34a3.4,3.4,0,0,0,2.28-.68l-.27,0c1-1.09,6.2-2,7.12-3.37l-.42-.85.78-.71c-.09,0-.38,2.76-.45,2.48,1.69-.08,10.48-.74,12-.17.63.48.12,1.35.11,1.49.76-.32.33-.9,1-.83.18.15,0,.67-.14.79.29-.1.55.19.58-.21-.36-.3-.21-1.36-.36-2L83,39l0,.66c.19,0,.47-1.82,1.3-1.46,1.39.29,2.9.06,4.29.21a1.21,1.21,0,0,1-.61.87c.19,0,.48-.08.65.21-.34-.71.59-.47.32-.77,1-1.63,2.35-.14,3.25-1.25.08-1.46,1.94-25.12,1.94-26.86.28,0,.56.06.64.2a.61.61,0,0,0-.91-.37l0,.94c-.68.32-.16-.56-.82-.49,0-.77.57-.93,1.1-1-.48-.09-1-.65-1.15.19-.45-.32,0-.93-.49-1.26-.39.22-.9,1-1.34.52V9.23c-1.08-.78-1.65,1.16-2.64.38l.11-.25c-.35-.44-1,.15-1.67-.32.18.15.34.7,0,.8-.73-.49-1.22,0-1.75-.6L84.6,10c-2.52-.15-12.48.91-15,1l.1-.12c-3.86.38-11.78.32-15.77,1.35-.62-.74-1.47-.56-2.11-.77.36.31.23.83,0,.8-2-.09-.13.51-2.11.82-2.29.68-11-.09-13-.72-1.09,1.08-2.45.26-3.52.95l.11-.26c-1.15.41-7.64-.59-9-.21l.18.16c-1.16.67-1-.51-1.92-.88a2,2,0,0,1-1.25,2v-.27c-.57.2-1.87,1.26-2.81,1.42l0-.66c-.79.71-2.27.42-2.84.49-1.3-.28-3.29-1.44-5-.56L9.47,12.67l-.16.18s-1.8,22.9.49,27.78l0,.66.45-.09c.54.33.8-.44.76.22l-.75-.08c.55.19.17.55,0,.92a1.28,1.28,0,0,1,.63.35c.11-.26-.08-.28-.16-.42.29-.23.7-.86,1.06-.55.55.06,0,1.07.68,1.15,3.44.51,6.77,1.28,10.24,1.13.08.27,0,.26-.11.39,1-.29,2-.18,2.93-.48a2.4,2.4,0,0,1,.41,1C25.71,44.26,31.13,44.21,31.21,44.35Z"/><path class="cls-2" d="M26,34V28.15a1.08,1.08,0,0,0-.28-.84,1.12,1.12,0,0,0-.79-.25H21.77V25.44h3.74a3.4,3.4,0,0,1,1.42.28,2.18,2.18,0,0,1,1,.9,3.24,3.24,0,0,1,.36,1.64V34Z"/><path class="cls-2" d="M31,34.15l-1.2-8.71h2.19l.87,6.93a6.55,6.55,0,0,0,2-.41,3.59,3.59,0,0,0,1.3-.9,3.34,3.34,0,0,0,.69-1.32A6.33,6.33,0,0,0,37,28.06l0-2.62h2.31l0,2.5a6.34,6.34,0,0,1-.87,3.48,5.2,5.2,0,0,1-2.72,2.1A13.17,13.17,0,0,1,31,34.15Zm1.32-3.42-.54-1.35a2.61,2.61,0,0,0,1.11-.51,1.76,1.76,0,0,0,.51-.93,6.39,6.39,0,0,0,.12-1.5v-1h2.19v.95a5.92,5.92,0,0,1-.32,1.91,3.12,3.12,0,0,1-1,1.45A5.52,5.52,0,0,1,32.27,30.73Z"/><path class="cls-2" d="M40.91,34V27.19l-.2-1.75H43l.19,1.75V34Z"/><path class="cls-2" d="M44.53,34V32.38h2.55a1.86,1.86,0,0,0,1.05-.27,1.5,1.5,0,0,0,.58-.75,3.06,3.06,0,0,0,.18-1.08V29.16a3,3,0,0,0-.18-1.07,1.5,1.5,0,0,0-.58-.75,1.78,1.78,0,0,0-1.05-.28H44.53V25.44H47.7a3.6,3.6,0,0,1,1.94.48,3,3,0,0,1,1.17,1.34,4.89,4.89,0,0,1,.39,2v.88a5,5,0,0,1-.39,2,2.92,2.92,0,0,1-1.17,1.33A3.6,3.6,0,0,1,47.7,34Z"/><path class="cls-2" d="M59.62,34V28.15a1.11,1.11,0,0,0-.27-.84,1.14,1.14,0,0,0-.79-.25H55.44V25.44h3.74a3.4,3.4,0,0,1,1.42.28,2.18,2.18,0,0,1,1,.9,3.24,3.24,0,0,1,.36,1.64V34Z"/><path class="cls-2" d="M67,34V28.81a4,4,0,0,1,.12-1,2,2,0,0,1,.33-.72H63.34V25.44h7.49v1.62H69.58a3.48,3.48,0,0,0-.24.86,7.38,7.38,0,0,0-.06.89V34Z"/><path class="cls-2" d="M77.8,34V28.23c0-.78-.36-1.17-1.07-1.17H72.3V25.44h5a3.25,3.25,0,0,1,1.44.3,2.1,2.1,0,0,1,1,.94,3.31,3.31,0,0,1,.36,1.65V34Zm-5.5,0V26.41h2.29V34Z"/></svg>