<svg id="Layer_1" data-name="Layer 1" xmlns="http://www.w3.org/2000/svg" xmlns:xlink="http://www.w3.org/1999/xlink" viewBox="0 0 53.13 36.41"><defs><style>.cls-1{fill:#1d3859;}.cls-2{fill:none;stroke:#1d3859;stroke-miterlimit:10;stroke-width:0.82px;}.cls-3{clip-path:url(#clip-path);}</style><clipPath id="clip-path"><rect class="cls-1" x="40.06" y="27.38" width="5.61" height="3.9" transform="translate(-5.2 49.02) rotate(-56.66)"/></clipPath></defs><path class="cls-1" d="M15.66,11.46l-.67,1a1.31,1.31,0,0,1-1.81.37L2.85,6,2.7,5.79a2.74,2.74,0,0,1-.24-1.56l.67-1A4.22,4.22,0,0,1,4.7,2.85h.24l10.33,6.8A1.31,1.31,0,0,1,15.66,11.46Z"/><rect class="cls-1" x="1.95" y="-0.53" width="1.21" height="8.14" rx="0.49" transform="translate(2.37 -0.82) rotate(33.34)"/><rect class="cls-1" x="9.6" y="10.87" width="11.02" height="1.76" transform="translate(-2.93 18.13) rotate(-57.33)"/><rect class="cls-2" x="21.12" y="1.98" width="11" height="34.3" rx="0.61" transform="translate(-3.85 31.21) rotate(-57.33)"/><rect class="cls-1" x="10.45" y="3.13" width="2.28" height="12.71" rx="0.44" transform="translate(6.96 -4.76) rotate(32.67)"/><rect class="cls-1" x="18.62" y="11.24" width="4.97" height="1.14" rx="0.46" transform="translate(-0.36 22.95) rotate(-56.66)"/><rect class="cls-1" x="23.41" y="14.39" width="4.97" height="1.14" rx="0.46" transform="translate(-0.83 28.37) rotate(-56.66)"/><rect class="cls-1" x="32.99" y="20.69" width="4.97" height="1.14" rx="0.46" transform="translate(-1.78 39.21) rotate(-56.66)"/><rect class="cls-1" x="28.2" y="17.54" width="4.97" height="1.14" rx="0.46" transform="translate(-1.31 33.79) rotate(-56.66)"/><rect class="cls-2" x="47.52" y="26.66" width="0.35" height="11.96" rx="0.18" transform="translate(-5.79 54.54) rotate(-56.66)"/><rect class="cls-1" x="40.06" y="27.38" width="5.61" height="3.9" transform="translate(-5.2 49.02) rotate(-56.66)"/><g class="cls-3"><rect class="cls-1" x="40.06" y="26.07" width="2.16" height="4.65" rx="1.07" transform="translate(-5.2 47.16) rotate(-56.66)"/></g></svg>