<svg id="Layer_1" preserveAspectRatio="none" data-name="Layer 1" xmlns="http://www.w3.org/2000/svg" viewBox="0 0 96.92 41.62"><defs><style>.cls-1{fill:#2f486b;}.cls-2{fill:#fff;}</style></defs><path class="cls-1" d="M2.3,35.74a1.48,1.48,0,0,0,1.28.92C3.21,36,2.82,35.66,2.3,35.74Z"/><path class="cls-1" d="M3.59,36.67h0S3.58,36.67,3.59,36.67Z"/><path class="cls-1" d="M96.32,4.27l-.4.05A.62.62,0,0,0,96.32,4.27Z"/><path class="cls-1" d="M26.74,38.75l.07-1.19c1.13,0,.33,1.37,1.38,1.07.41-1.69,1.74.18,2.1-.72,0,.13.51.18.47.71.16-.92.53-.21.86-.45.11-.25-.09-.27-.18-.55l.74-.32c.29.29.36.83,0,.93,1.94.33,11.24,1.22,13.33.76-.27-.7-.91-.23-1.16-1.32.55-.62.82.21,1.06-.43.21,1.62,1.21.39,1.63,2l.16-.92.27.57c2.43-1,.56-.47,2.71-.25,1.24-.15,1.84-1.42,2.53-1-.1,0-.38-.58-.06-.81.06.81.86-.58,1,.23.32-.1,1.34,0,1-1.1.18.55,1.09.78.55,1.26.3,0,.6.19.83,0l-.4-.31c1-.16,1.61.7,2.28-.3l-.38-.44c.62-.07,1.14-.16,1.39.94l-.64.33a4,4,0,0,0,2.51-.68l-.3,0c1.09-1.09,6.82-2,7.83-3.36l-.46-.85.87-.72c-.11,0-.42,2.76-.51,2.48,1.86-.08,11.54-.74,13.26-.16.69.47.12,1.35.11,1.48.85-.32.37-.9,1.08-.83.2.15,0,.67-.15.79.32-.1.61.19.63-.2-.39-.31-.22-1.37-.39-2l.92.09,0,.67c.21,0,.52-1.82,1.43-1.47,1.53.29,3.19.06,4.73.21,0,.4-.35.64-.67.87.2,0,.52-.08.71.21-.37-.71.64-.47.35-.77,1.13-1.63,2.59-.14,3.58-1.24C93.92,30.44,96,6.78,96,5c.31,0,.61.06.71.21a.69.69,0,0,0-1-.37l-.06.93c-.74.33-.17-.55-.89-.49,0-.76.62-.93,1.21-1-.53-.09-1-.65-1.27.19-.5-.32.06-.93-.54-1.26-.43.23-1,1-1.48.52V3.64c-1.19-.79-1.82,1.15-2.91.37l.12-.25c-.38-.44-1.14.15-1.83-.32.2.15.37.71,0,.8-.8-.48-1.34,0-1.92-.6l-.56.75c-2.78-.15-13.74.92-16.53,1l.11-.12c-4.25.37-13,.31-17.36,1.34-.67-.73-1.61-.56-2.32-.77.39.31.26.83,0,.8-2.16-.08-.14.51-2.33.82-2.51.69-12.13-.09-14.36-.72-1.2,1.09-2.69.27-3.87,1l.12-.25c-1.26.4-8.4-.6-9.86-.21l.19.15c-1.28.67-1.1-.51-2.11-.88a2,2,0,0,1-1.38,2l0-.27c-.63.21-2.06,1.26-3.1,1.43l0-.67c-.87.71-2.5.42-3.12.49C8.15,9.24,6,8.08,4.05,9L2.82,7.07l-.18.19S.65,30.15,3.17,35l0,.66.5-.09c.6.33.87-.44.83.23l-.82-.09c.6.2.18.55-.05.92a1.45,1.45,0,0,1,.7.35c.12-.25-.09-.27-.18-.42.32-.23.77-.86,1.16-.55.62.06,0,1.08.76,1.15,3.78.51,7.45,1.28,11.27,1.13.08.28,0,.27-.13.39,1.15-.29,2.18-.18,3.22-.48a2.12,2.12,0,0,1,.46,1C20.68,38.66,26.64,38.61,26.74,38.75Z"/><path class="cls-2" d="M5.56,22.57V18.91l-.19-1.75h2.3l.19,1.75v2.34l0,.95Z"/><path class="cls-2" d="M18.12,25.72H15.66l-3-4.36-1.42,4.36H9.06l1.77-5.14.49-1.16L9.84,17.16h2.31l1.28,1.95,1.15,1.63L15,19.38l.64-2.22h2.18l-1.91,5.46Z"/><path class="cls-2" d="M19.54,25.72V18.91l-.19-1.75h2.3l.19,1.75v6.81Z"/><path class="cls-2" d="M23.55,25.72V24.1h3.22A2.19,2.19,0,0,0,27.6,24a1.46,1.46,0,0,0,.61-.42,1.85,1.85,0,0,0,.39-.67,2.67,2.67,0,0,0,.13-.88V20.88a2.76,2.76,0,0,0-.19-1.07,1.58,1.58,0,0,0-.59-.75,1.69,1.69,0,0,0-1-.28H25.8l-.29,1.27a1.07,1.07,0,0,0,.09.84,1.41,1.41,0,0,0,.88.42l-.37,1.35a3.59,3.59,0,0,1-1.77-.4,1.7,1.7,0,0,1-.8-1,3.23,3.23,0,0,1-.06-1.4l.64-2.7h3.37a3.57,3.57,0,0,1,1.9.48A3.14,3.14,0,0,1,30.61,19,4.51,4.51,0,0,1,31,21v.9a4.83,4.83,0,0,1-.26,1.62A3.37,3.37,0,0,1,30,24.72a3.26,3.26,0,0,1-1.17.75,4.35,4.35,0,0,1-1.53.25Z"/><path class="cls-2" d="M36.22,25.72V19.87a1.12,1.12,0,0,0-.28-.84,1.14,1.14,0,0,0-.79-.25H32V17.16h3.73a3.36,3.36,0,0,1,1.42.28,2.13,2.13,0,0,1,1,.9A3.24,3.24,0,0,1,38.53,20v5.74Z"/><path class="cls-2" d="M40.14,25.72V21.63l.32-1h2v5.1Zm5.33,0V19.87a1.08,1.08,0,0,0-.28-.84,1.12,1.12,0,0,0-.79-.25H40.24V17.16H45a3.4,3.4,0,0,1,1.42.28,2.18,2.18,0,0,1,1,.9A3.24,3.24,0,0,1,47.79,20v5.74Z"/><path class="cls-2" d="M53.32,25.72V20.53a4,4,0,0,1,.12-1,2,2,0,0,1,.33-.72H52.33V17.16h4.74v1.62H55.88a2.32,2.32,0,0,0-.23.86c0,.33,0,.62,0,.89v5.19Z"/><path class="cls-2" d="M58.16,25.72V24.1h2.55a1.86,1.86,0,0,0,1-.27,1.5,1.5,0,0,0,.58-.75A3.06,3.06,0,0,0,62.52,22V20.88a3,3,0,0,0-.18-1.07,1.5,1.5,0,0,0-.58-.75,1.78,1.78,0,0,0-1-.28H58.16V17.16h3.18a3.59,3.59,0,0,1,1.93.48A3,3,0,0,1,64.44,19a4.89,4.89,0,0,1,.39,2v.88a5,5,0,0,1-.39,2,2.92,2.92,0,0,1-1.17,1.33,3.59,3.59,0,0,1-1.93.47Z"/><path class="cls-2" d="M70.07,25.72V19.87a1.12,1.12,0,0,0-.28-.84,1.14,1.14,0,0,0-.79-.25H65.88V17.16h3.74a3.4,3.4,0,0,1,1.42.28,2.18,2.18,0,0,1,1,.9A3.24,3.24,0,0,1,72.38,20v5.74Z"/><path class="cls-2" d="M74,25.72,75.06,20l-1.28-2.79h2.4l1.07,2.89-1,5.67Zm3.49,0,.21-1.62a3.38,3.38,0,0,0,1.84,0,1.59,1.59,0,0,0,.91-1,4.79,4.79,0,0,0,.25-1.76,4.62,4.62,0,0,0-.21-1.53,1.61,1.61,0,0,0-.59-.85,1.72,1.72,0,0,0-1-.27,1.85,1.85,0,0,0-.78.17,1.56,1.56,0,0,0-.86,1.24l-.53-.93a2.94,2.94,0,0,1,1-1.66,2.73,2.73,0,0,1,1.6-.52,3.81,3.81,0,0,1,1.49.27,2.66,2.66,0,0,1,1.1.8,3.7,3.7,0,0,1,.68,1.36,7.32,7.32,0,0,1,.23,1.92,5.42,5.42,0,0,1-.62,2.76,3.35,3.35,0,0,1-1.84,1.55A5.34,5.34,0,0,1,77.45,25.74Z"/><path class="cls-2" d="M84.24,25.72V21.63l.32-1h2v5.1Zm5.33,0V19.87a1.12,1.12,0,0,0-.28-.84,1.14,1.14,0,0,0-.79-.25H84.33V17.16h4.79a3.4,3.4,0,0,1,1.42.28,2.18,2.18,0,0,1,1,.9A3.24,3.24,0,0,1,91.88,20v5.74Z"/></svg>