<svg id="Layer_1" data-name="Layer 1" xmlns="http://www.w3.org/2000/svg" viewBox="0 0 46.69 35.6"><defs><style>.cls-1{fill:none;stroke:#1d3859;stroke-miterlimit:10;stroke-width:1.54px;}</style></defs><path class="cls-1" d="M25.56,4.91a11.29,11.29,0,0,0-2.48-2.22c-.46-.3-5.3-3.34-10.65-1.11A11.61,11.61,0,0,0,6.29,7.94"/><path class="cls-1" d="M25.56,4.91A11.53,11.53,0,0,1,28,2.69c.41-.26,5.29-3.32,10.65-1.11a12.09,12.09,0,0,1,6.6,7.58c2,6-1.34,11.22-1.89,12.09a17.74,17.74,0,0,1-4.51,4.51,115,115,0,0,1-13.33,9,129.81,129.81,0,0,1-11.27-7.38c-4.2-3.09-5.79-4.66-7-6.86A16.78,16.78,0,0,1,5.2,13.08"/><path class="cls-1" d="M0,10.57H9l4.18-6q2.1,8.16,4.18,16.33l3.45-8.51,12.63,0"/></svg>