<svg id="Layer_1" data-name="Layer 1" xmlns="http://www.w3.org/2000/svg" viewBox="0 0 94.98 43.21"><defs><style>.cls-1{font-size:14px;fill:#1d1d1b;font-family:Assistant-SemiBold, Assistant;font-weight:600;}.cls-2{fill:#2f486b;}.cls-3{fill:#fff;}</style></defs><text/><text class="cls-1" transform="translate(-118.82 59.95) scale(1.06 1)">.תונברהמ קלח ןוחטו ימלוג רשב<tspan x="33.39" y="16.93">.ןירדהמ תונבר ףוע ירצומ</tspan><tspan x="8.39" y="33.85">.הרמוחל אטימש תוריפו תוקרי</tspan><tspan x="-4.8" y="50.78">.ןירדהמל םיקרח חוקיפב ילע קרי</tspan><tspan x="-17.46" y="67.7" xml:space="preserve"> הדעה צ”דב בלח ירצומו םלג ירמוח</tspan><tspan x="59.81" y="84.63" xml:space="preserve"> לכוא רדחב תידרחה</tspan><tspan x="12.12" y="101.55">-תדו תורשכ יארחא ןופלט סמ</tspan><tspan x="56.04" y="118.48" xml:space="preserve"> - הזבוכוב רואנ ב”סר</tspan></text><path class="cls-2" d="M6.34,35.51a1.34,1.34,0,0,0,1.15.91C7.16,35.73,6.81,35.42,6.34,35.51Z"/><path class="cls-2" d="M7.5,36.43h0Z"/><path class="cls-2" d="M91.77,4l-.36,0A.56.56,0,0,0,91.77,4Z"/><path class="cls-2" d="M28.54,38.52l.07-1.2c1,0,.3,1.37,1.25,1.07.37-1.69,1.58.18,1.91-.72,0,.13.46.18.43.71.14-.92.48-.21.77-.45.11-.25-.07-.27-.15-.55l.67-.32c.26.29.33.83,0,.93,1.76.33,10.22,1.22,12.12.76-.25-.7-.83-.23-1.06-1.32.51-.61.74.21,1-.43.2,1.62,1.11.39,1.49,2l.14-.93.25.57c2.21-1,.5-.47,2.46-.25,1.13-.14,1.67-1.42,2.3-1-.1,0-.34-.58,0-.81,0,.81.78-.58.92.24.29-.11,1.22,0,.9-1.11.16.55,1,.78.5,1.26.28,0,.55.19.75-.05l-.36-.31c.95-.16,1.46.7,2.08-.3L56.58,36c.56-.07,1-.16,1.26.94l-.58.33a3.35,3.35,0,0,0,2.28-.68l-.28,0c1-1.09,6.21-2,7.13-3.36L66,32.31l.79-.72c-.09,0-.38,2.76-.46,2.48,1.7-.08,10.49-.74,12-.16.63.47.11,1.35.11,1.48.76-.32.33-.9,1-.83.18.16,0,.67-.14.79.29-.1.55.19.58-.2-.36-.31-.21-1.36-.36-2l.84.09,0,.67c.19,0,.47-1.82,1.3-1.46,1.39.28,2.9.05,4.29.2a1.21,1.21,0,0,1-.61.87c.19,0,.48-.08.65.21-.34-.71.59-.47.32-.77,1-1.62,2.35-.14,3.25-1.24.08-1.47,1.94-25.13,1.94-26.87.28,0,.56.06.64.21a.6.6,0,0,0-.91-.37l-.05.93c-.68.33-.16-.55-.82-.49,0-.76.57-.93,1.1-1-.48-.09-1-.64-1.15.19-.45-.32,0-.93-.49-1.26-.39.23-.9,1-1.34.52V3.4c-1.08-.79-1.65,1.15-2.64.38l.11-.26c-.35-.44-1,.15-1.67-.32.18.16.34.71,0,.8-.73-.48-1.22,0-1.75-.6l-.51.75c-2.52-.14-12.48.92-15,1l.1-.12c-3.86.37-11.78.31-15.77,1.34-.62-.73-1.47-.56-2.11-.77.36.31.23.83-.05.8-2-.08-.13.51-2.11.82-2.29.69-11-.09-13.06-.72-1.08,1.09-2.44.27-3.51,1l.11-.25c-1.15.4-7.64-.6-9-.21l.18.15c-1.16.68-1-.51-1.92-.88a1.93,1.93,0,0,1-1.25,2V8a16.24,16.24,0,0,1-2.81,1.43l0-.67c-.78.72-2.27.42-2.83.49-1.3-.28-3.3-1.43-5-.56L6.8,6.83,6.64,7s-1.8,22.89.48,27.77l0,.66.45-.08c.54.32.79-.45.76.22l-.75-.08c.55.19.17.54,0,.92a1.19,1.19,0,0,1,.63.34c.11-.25-.08-.27-.16-.42.29-.23.7-.85,1.06-.55.55.06,0,1.08.68,1.15,3.44.51,6.77,1.28,10.24,1.13.08.28,0,.27-.11.39,1-.29,2-.18,2.93-.48a2.45,2.45,0,0,1,.41,1C23,38.42,28.45,38.37,28.54,38.52Z"/><g id="כשרות"><path class="cls-3" d="M29.23,26.7,29,25.23A2.68,2.68,0,0,0,30,25a.79.79,0,0,0,.41-.47,2.38,2.38,0,0,0,.09-.81V17.88h4.83a3.36,3.36,0,0,1,1.42.28,2.21,2.21,0,0,1,1,.9A3.24,3.24,0,0,1,38,20.7v5.74h-2.3V20.59a1.08,1.08,0,0,0-.29-.84,1.16,1.16,0,0,0-.8-.25H32.77v3.93a3.78,3.78,0,0,1-.37,1.83,2.29,2.29,0,0,1-1.16,1A6.68,6.68,0,0,1,29.23,26.7Z"/><path class="cls-3" d="M39.86,26.44V19.63l-.2-1.75H42l.19,1.75v6.81Z"/><path class="cls-3" d="M47.64,26.44V20.59a1.08,1.08,0,0,0-.28-.84,1.1,1.1,0,0,0-.79-.25H43.46V17.88H47.2a3.4,3.4,0,0,1,1.42.28,2.18,2.18,0,0,1,1,.9A3.24,3.24,0,0,1,50,20.7v5.74Z"/><path class="cls-3" d="M52.64,26.59l-1.2-8.71h2.19l.88,6.93a6.25,6.25,0,0,0,2-.42,3.45,3.45,0,0,0,1.3-.89,3.34,3.34,0,0,0,.69-1.32,6.33,6.33,0,0,0,.21-1.68l0-2.62H61l0,2.5a6.42,6.42,0,0,1-.86,3.48A5.26,5.26,0,0,1,57.43,26,13.17,13.17,0,0,1,52.64,26.59ZM54,23.17l-.54-1.35a2.5,2.5,0,0,0,1.11-.52,1.7,1.7,0,0,0,.51-.92,6.39,6.39,0,0,0,.12-1.5v-1h2.19v.95A6.26,6.26,0,0,1,57,20.75a3.27,3.27,0,0,1-1,1.45A5.52,5.52,0,0,1,54,23.17Z"/><path class="cls-3" d="M62.09,26.44V24.82h2.55a1.88,1.88,0,0,0,1-.27,1.5,1.5,0,0,0,.58-.75,3.31,3.31,0,0,0,.17-1.08V21.6a3.31,3.31,0,0,0-.17-1.08,1.6,1.6,0,0,0-.58-.75,1.88,1.88,0,0,0-1-.27H62.09V17.88h3.17a3.6,3.6,0,0,1,1.94.48,2.94,2.94,0,0,1,1.17,1.34,4.85,4.85,0,0,1,.39,2v.88a4.87,4.87,0,0,1-.39,2A2.94,2.94,0,0,1,67.2,26a3.69,3.69,0,0,1-1.94.47Z"/></g></svg>