<svg id="Layer_1" data-name="Layer 1" xmlns="http://www.w3.org/2000/svg" viewBox="0 0 41.24 40.21"><defs><style>.cls-1{font-size:15px;font-family:Assistant-Bold, Assistant;font-weight:700;}.cls-1,.cls-3,.cls-5{fill:#fff;}.cls-2,.cls-7{fill:#1d1d1b;}.cls-2{font-family:Assistant-SemiBold, Assistant;font-weight:600;}.cls-3,.cls-6{stroke:#1d1d1b;stroke-miterlimit:10;}.cls-3{stroke-width:0.5px;}.cls-4{opacity:0.92;}.cls-6{fill:none;}</style></defs><text/><text class="cls-1" transform="translate(91.95 -88.76) scale(1.06 1)">freshop<tspan class="cls-2" x="-62.59" y="33.85">ןירדהמל יבלח- רשכ</tspan><tspan class="cls-2" x="11.33" y="50.78" xml:space="preserve"> -ןופלט</tspan><tspan class="cls-2" x="-29.23" y="67.7">-החיתפ תועש</tspan><tspan class="cls-2" x="20.95" y="84.63" xml:space="preserve"> -ד-א</tspan><tspan class="cls-2" x="-15.09" y="101.55">.הנתשמ -ה</tspan></text><circle class="cls-3" cx="19.76" cy="20.73" r="17.98"/><g class="cls-4"><circle class="cls-5" cx="19.76" cy="20.73" r="13.59"/><path class="cls-6" d="M32.21,15.29a13.59,13.59,0,0,1-7,17.9C8.39,39.75-1.91,16.14,14.32,8.28a13.58,13.58,0,0,1,17.89,7Z"/></g><polygon class="cls-5" points="4.24 23.33 33.11 10.72 36.39 18.94 7.95 31.82 4.24 23.33"/><path class="cls-7" d="M16.63,25.59c.27.6.15,1-.37,1.24L14.4,22.57c-.27-.63-.64-.85-1.1-.64L10.81,23a.89.89,0,0,1-1.33-.55,2.79,2.79,0,0,1-.19-.77c0-.37,0-.58.13-.64s.14,0,.3.16a.47.47,0,0,0,.52.07l2.63-1.15c.7-.31,1.33.16,1.9,1.39Z"/><path class="cls-7" d="M22.41,17.23a2.24,2.24,0,0,1,.28,1.06q0,.18-.18.9a3.27,3.27,0,0,0-.09.95l.2,2.51c.08.9-.13,1.46-.62,1.68l-3,1.29a7.53,7.53,0,0,0-.75-1.32L17.38,23a4.17,4.17,0,0,1-.44-.74,8.3,8.3,0,0,1-.3-.83,8.71,8.71,0,0,0-.3-.84,1.16,1.16,0,0,1-.24.07.67.67,0,0,1-.63-.2,2.45,2.45,0,0,1-.33-.6,2.73,2.73,0,0,1-.2-.69c-.06-.35,0-.56.13-.63s.17,0,.27.16a.3.3,0,0,0,.32.15l.64-.18a.63.63,0,0,1,.55.12,1.2,1.2,0,0,1,.41.49,3.7,3.7,0,0,1,.2,1,1,1,0,0,0-.41.08.22.22,0,0,0-.15.27,5.74,5.74,0,0,0,.35,1A4.44,4.44,0,0,0,18,22.74l.9,1-.07-3.8-.17-.14a1.6,1.6,0,0,0-.37,0c-.24,0-.45-.18-.64-.61a3.44,3.44,0,0,1-.23-.86c-.08-.46,0-.72.13-.79s.17,0,.27.18a.38.38,0,0,0,.44.18l.62-.1a.73.73,0,0,1,.9.46,4.46,4.46,0,0,1,.27,1.26,1.34,1.34,0,0,0-.52.07.42.42,0,0,0-.24.42l.16,3.48,1.67-.73c.35-.15.53-.36.54-.61L21.73,20a2.35,2.35,0,0,1,.19-.58.81.81,0,0,0,.08-.58c-.1-.21-.35-.3-.77-.25a.83.83,0,0,1-.65-.12,1.41,1.41,0,0,1-.37-.55,3.41,3.41,0,0,1-.21-.8c-.05-.42,0-.66.16-.73s.18,0,.28.18a.6.6,0,0,0,.62.19l.62-.11C22,16.64,22.23,16.82,22.41,17.23Z"/><path class="cls-7" d="M29.33,16.77a10,10,0,0,1,.55,1.65,4.78,4.78,0,0,1,.17,1.68,1.4,1.4,0,0,1-.93,1.12l-3.31,1.44-.35-1.83,2.63-1.15a1.36,1.36,0,0,0,.94-1.2,3.73,3.73,0,0,0-.4-1.57,2,2,0,0,0-.64-.82.93.93,0,0,0-1-.16l-2.25,1c-.7.3-1.17.16-1.43-.42a1.7,1.7,0,0,1-.06-.21C23.06,15.48,23,15,23.2,15s.24,0,.38.15a.47.47,0,0,0,.59.07l2.23-1a1.22,1.22,0,0,1,1.38.35A6.35,6.35,0,0,1,29.33,16.77Z"/></svg>