<svg id="Layer_1" preserveAspectRatio="none" data-name="Layer 1" xmlns="http://www.w3.org/2000/svg" viewBox="0 0 116.81 49.02"><defs><style>.cls-1{fill:#2f486b;}.cls-2{fill:#fff;}</style></defs><path class="cls-1" d="M9,42a1.61,1.61,0,0,0,1.39.91C10,42.24,9.55,41.94,9,42Z"/><path class="cls-1" d="M10.39,43h0S10.39,42.94,10.39,43Z"/><path class="cls-1" d="M111.5,10.55l-.42,0A.67.67,0,0,0,111.5,10.55Z"/><path class="cls-1" d="M35.63,45l.08-1.2c1.24,0,.36,1.37,1.51,1.07.44-1.69,1.9.18,2.29-.72,0,.13.55.18.52.71.17-.92.57-.21.92-.44.13-.26-.09-.28-.19-.56l.81-.32c.32.29.4.84,0,.94,2.12.33,12.26,1.21,14.54.75-.29-.7-1-.23-1.26-1.32.6-.61.88.21,1.15-.43.23,1.63,1.32.39,1.78,2l.17-.93.3.57c2.65-1,.6-.47,3-.25,1.36-.14,2-1.42,2.76-.95-.11,0-.41-.58-.06-.81.06.81.94-.58,1.11.24.34-.11,1.46,0,1.08-1.11.19.55,1.19.78.59,1.26.34,0,.66.2.91,0l-.44-.31c1.14-.16,1.76.7,2.5-.3l-.42-.44c.68-.07,1.24-.16,1.51.94l-.7.34a4.66,4.66,0,0,0,2.75-.69l-.34,0c1.2-1.09,7.45-2,8.55-3.36l-.51-.85.95-.72c-.12,0-.46,2.76-.55,2.48,2-.08,12.58-.73,14.45-.16.76.47.14,1.35.13,1.48.92-.32.39-.9,1.18-.83.21.16,0,.67-.17.79.34-.1.66.19.69-.2-.43-.31-.25-1.36-.43-2l1,.09,0,.67c.23,0,.57-1.82,1.56-1.46,1.67.28,3.48.05,5.15.21,0,.39-.37.63-.73.86.23,0,.57-.08.78.21-.41-.71.7-.47.38-.77,1.23-1.62,2.82-.14,3.91-1.24.09-1.46,2.32-25.13,2.32-26.87.33,0,.67.07.77.21a.77.77,0,0,0-1.1-.37l-.06.93c-.81.33-.19-.55-1-.49,0-.76.69-.93,1.33-1-.58-.09-1.15-.64-1.39.19-.54-.32.06-.93-.59-1.26-.47.23-1.08,1-1.61.52V9.91c-1.3-.79-2,1.16-3.17.38l.13-.26c-.42-.44-1.25.15-2-.32.21.16.4.71-.06.8-.86-.48-1.46,0-2.09-.59l-.61.74c-3-.14-15,.92-18,1l.12-.12c-4.63.37-14.14.31-18.93,1.34-.74-.73-1.76-.56-2.53-.77.43.31.28.83-.06.8-2.35-.08-.16.51-2.54.82-2.74.69-13.22-.09-15.66-.72-1.3,1.09-2.94.27-4.22.95l.13-.25c-1.37.41-9.16-.6-10.75-.21l.21.15c-1.39.68-1.2-.51-2.3-.88a2,2,0,0,1-1.51,2l0-.27c-.69.21-2.24,1.26-3.38,1.43l0-.67c-.95.72-2.73.42-3.41.49-1.55-.28-4-1.43-6-.55l-1.34-1.9-.2.19S7.19,36.42,9.94,41.3l0,.66.55-.08c.65.32,1-.45.9.22L10.45,42c.66.19.2.54,0,.92a1.59,1.59,0,0,1,.76.34c.12-.25-.1-.27-.2-.42.35-.23.84-.85,1.27-.55.67.06,0,1.08.82,1.15,4.13.51,8.12,1.28,12.29,1.13.1.28,0,.27-.14.39,1.26-.28,2.37-.18,3.52-.48a2.23,2.23,0,0,1,.5,1C29,44.93,35.53,44.88,35.63,45Z"/><path class="cls-2" d="M56.12,33.61l-.85-1.69a6.73,6.73,0,0,0,1.94-.9,3.58,3.58,0,0,0,1.14-1.29l.77,1.12a7.69,7.69,0,0,1-.69,1.2,3.92,3.92,0,0,1-.94.92A5,5,0,0,1,56.12,33.61Zm2.81-.27-.63-3.4V27.37a1.36,1.36,0,0,0-.17-.78.84.84,0,0,0-.59-.27l-1-.13.29-1.59,1.88.24a2,2,0,0,1,1.44.67,2.5,2.5,0,0,1,.46,1.62V30l.51,3.36Z"/><path class="cls-2" d="M64.06,28.05A1.24,1.24,0,0,1,63,27.56a2.26,2.26,0,0,1-.37-1.37,3.06,3.06,0,0,1,.55-1.82,3.91,3.91,0,0,1,1.64-1.3l.49.9a2.84,2.84,0,0,0-1,.79,1.77,1.77,0,0,0-.35,1.11L64,27.12l-.75-1a1.83,1.83,0,0,1,.38-.23,1.07,1.07,0,0,1,.43-.09,1.32,1.32,0,0,1,.83.28,1,1,0,0,1,.34.76,1.11,1.11,0,0,1-.33.85A1.17,1.17,0,0,1,64.06,28.05Zm3.63,0a1.24,1.24,0,0,1-1.06-.49,2.26,2.26,0,0,1-.36-1.37,3.13,3.13,0,0,1,.54-1.82,3.91,3.91,0,0,1,1.64-1.3l.5.9a2.8,2.8,0,0,0-1.06.79,1.77,1.77,0,0,0-.35,1.11l.08,1.25-.75-1a1.9,1.9,0,0,1,.39-.23,1,1,0,0,1,.43-.09,1.29,1.29,0,0,1,.82.28.93.93,0,0,1,.34.76,1.11,1.11,0,0,1-.33.85A1.13,1.13,0,0,1,67.69,28.05Z"/><path class="cls-2" d="M71,33.34V26.53l-.19-1.75h2.3l.19,1.75v6.81Z"/><path class="cls-2" d="M74.68,26.4V22.59h2.07V26.4Zm1.77,6.94L79.3,26.4H74.68V24.78h6.94v1.78l-2.87,6.78Z"/><path class="cls-2" d="M86.76,33.34V27.49a1.12,1.12,0,0,0-.28-.84,1.14,1.14,0,0,0-.79-.25H82.58V24.78h3.73a3.36,3.36,0,0,1,1.42.28,2.18,2.18,0,0,1,1,.9,3.24,3.24,0,0,1,.36,1.64v5.74Z"/><path class="cls-2" d="M90.65,33.34l1.1-5.77-1.28-2.79h2.4l1.07,2.89-1,5.67Zm3.5,0,.2-1.62a3.38,3.38,0,0,0,1.84,0,1.63,1.63,0,0,0,.92-1A5,5,0,0,0,97.35,29a4.93,4.93,0,0,0-.2-1.53,1.53,1.53,0,0,0-1.58-1.12,1.86,1.86,0,0,0-.79.17,1.56,1.56,0,0,0-.86,1.24l-.52-.93a2.93,2.93,0,0,1,1-1.66,2.73,2.73,0,0,1,1.6-.52,3.86,3.86,0,0,1,1.5.27,2.69,2.69,0,0,1,1.09.8,3.7,3.7,0,0,1,.68,1.36A7.32,7.32,0,0,1,99.54,29a5.32,5.32,0,0,1-.62,2.76,3.35,3.35,0,0,1-1.84,1.55A5.31,5.31,0,0,1,94.15,33.36Z"/></svg>