<svg id="Layer_1" preserveAspectRatio="none" data-name="Layer 1" xmlns="http://www.w3.org/2000/svg" viewBox="0 0 94.47 42.64"><defs><style>.cls-1{fill:#2f486b;}.cls-2{fill:#fff;}</style></defs><path class="cls-1" d="M4.77,36.64a1.37,1.37,0,0,0,1.16.92C5.6,36.86,5.24,36.56,4.77,36.64Z"/><path class="cls-1" d="M5.94,37.57h0Z"/><path class="cls-1" d="M90.21,5.17l-.36,0A.51.51,0,0,0,90.21,5.17Z"/><path class="cls-1" d="M27,39.65l.06-1.2c1,0,.3,1.38,1.25,1.08.38-1.7,1.59.17,1.92-.73,0,.14.46.19.43.72.14-.92.48-.21.77-.45.11-.25-.08-.27-.16-.55l.68-.33c.26.3.32.84,0,.94,1.76.33,10.21,1.21,12.11.75-.24-.69-.83-.22-1-1.32.5-.61.74.22,1-.43.19,1.63,1.1.39,1.48,2l.15-.92.24.56c2.21-1,.51-.46,2.46-.25,1.14-.14,1.67-1.42,2.3-1-.09,0-.34-.57,0-.8,0,.8.78-.59.93.23.28-.1,1.21,0,.9-1.1.16.55,1,.78.49,1.26.28,0,.55.19.76-.05l-.36-.31c.94-.16,1.46.69,2.07-.31L55,37.09c.57-.07,1-.15,1.26.94l-.58.34A3.43,3.43,0,0,0,58,37.69l-.28,0c1-1.09,6.2-2,7.12-3.37l-.42-.85.79-.71c-.09,0-.38,2.76-.46,2.48,1.69-.08,10.48-.74,12-.17.63.47.11,1.35.1,1.49.77-.32.33-.9,1-.83.18.15,0,.67-.13.79.28-.1.55.19.57-.21-.36-.3-.21-1.36-.36-2l.84.09,0,.66c.19,0,.48-1.82,1.3-1.46,1.39.29,2.9.06,4.3.21a1.24,1.24,0,0,1-.61.87c.19,0,.47-.08.64.2-.33-.7.59-.46.33-.76,1-1.63,2.34-.14,3.25-1.25C88,31.34,89.88,7.68,89.88,5.94c.28,0,.56.06.65.2a.62.62,0,0,0-.92-.37l0,.94c-.67.32-.16-.56-.82-.49,0-.77.58-.93,1.11-1-.48-.09-1-.65-1.16.19-.45-.32,0-.93-.49-1.26-.39.22-.89,1-1.34.52V4.53c-1.08-.78-1.66,1.16-2.64.38l.1-.25c-.35-.44-1,.15-1.66-.32.18.15.33.7,0,.79-.72-.48-1.22,0-1.75-.59l-.5.75c-2.53-.15-12.49.91-15,1l.1-.12c-3.86.38-11.79.32-15.78,1.35-.61-.74-1.46-.56-2.11-.77.36.31.24.83,0,.8-2-.09-.13.51-2.12.82-2.28.68-11-.09-13-.72-1.09,1.08-2.45.26-3.52,1l.11-.26c-1.14.41-7.63-.59-9-.21l.18.16c-1.17.67-1-.51-1.92-.88a1.93,1.93,0,0,1-1.26,2l0-.26c-.57.2-1.87,1.26-2.82,1.42l0-.66c-.79.71-2.27.42-2.84.49-1.29-.28-3.29-1.44-5-.56L5.24,8l-.17.19s-1.8,22.9.49,27.77l0,.67L6,36.5c.54.33.79-.44.75.22L6,36.64c.54.19.16.55,0,.92a1.37,1.37,0,0,1,.63.35c.1-.26-.08-.28-.17-.42.29-.23.7-.86,1.06-.55.56.06,0,1.07.69,1.14,3.43.52,6.76,1.29,10.24,1.14.08.27,0,.26-.12.39,1-.29,2-.19,2.93-.48a2.24,2.24,0,0,1,.42,1C21.47,39.56,26.89,39.51,27,39.65Z"/><path class="cls-2" d="M8.57,25.87,8.38,24.4a3,3,0,0,0,.93-.23.82.82,0,0,0,.4-.48,2.38,2.38,0,0,0,.09-.81V17.05h4.84a3.32,3.32,0,0,1,1.41.28,2.16,2.16,0,0,1,1,.9,3.24,3.24,0,0,1,.36,1.64v5.74h-2.3V19.76a1.08,1.08,0,0,0-.28-.84,1.18,1.18,0,0,0-.8-.25H12.12V22.6a3.78,3.78,0,0,1-.38,1.83,2.29,2.29,0,0,1-1.16,1A6.68,6.68,0,0,1,8.57,25.87Z"/><path class="cls-2" d="M19.2,25.61V18.8L19,17.05h2.3l.19,1.75v6.81Z"/><path class="cls-2" d="M23.21,25.61V24h3.22a2.19,2.19,0,0,0,.83-.14,1.46,1.46,0,0,0,.61-.42,1.85,1.85,0,0,0,.39-.67,2.67,2.67,0,0,0,.13-.88V20.77a2.85,2.85,0,0,0-.19-1.08,1.68,1.68,0,0,0-.59-.75,1.76,1.76,0,0,0-1-.27H25.46l-.29,1.27a1.07,1.07,0,0,0,.09.84,1.44,1.44,0,0,0,.88.42l-.36,1.35a3.63,3.63,0,0,1-1.78-.4,1.73,1.73,0,0,1-.8-1,3.23,3.23,0,0,1-.06-1.4l.64-2.7h3.37a3.57,3.57,0,0,1,1.9.48,3.14,3.14,0,0,1,1.22,1.33,4.51,4.51,0,0,1,.42,2v.9a4.83,4.83,0,0,1-.26,1.62,3.37,3.37,0,0,1-.76,1.22,3.26,3.26,0,0,1-1.17.75,4.35,4.35,0,0,1-1.53.25Z"/><path class="cls-2" d="M32.22,25.61V18.8L32,17.05h2.3l.19,1.75v6.81Z"/><path class="cls-2" d="M40,25.61V19.76a1.08,1.08,0,0,0-.28-.84,1.14,1.14,0,0,0-.79-.25H35.83V17.05h3.73a3.33,3.33,0,0,1,1.42.28,2.16,2.16,0,0,1,1,.9,3.24,3.24,0,0,1,.36,1.64v5.74Z"/><path class="cls-2" d="M43.65,25.87l-.19-1.47a3,3,0,0,0,.92-.23.84.84,0,0,0,.41-.48,2.38,2.38,0,0,0,.09-.81V17.05h4.83a3.26,3.26,0,0,1,1.41.28,2.13,2.13,0,0,1,1,.9,3.24,3.24,0,0,1,.36,1.64v5.74h-2.3V19.76a1.08,1.08,0,0,0-.29-.84,1.15,1.15,0,0,0-.8-.25H47.19V22.6a3.78,3.78,0,0,1-.37,1.83,2.29,2.29,0,0,1-1.16,1A6.68,6.68,0,0,1,43.65,25.87Z"/><path class="cls-2" d="M61.12,25.61V19.76a1.08,1.08,0,0,0-.28-.84,1.1,1.1,0,0,0-.79-.25H56.94V17.05h3.74a3.4,3.4,0,0,1,1.42.28,2.18,2.18,0,0,1,1,.9,3.24,3.24,0,0,1,.36,1.64v5.74Z"/><path class="cls-2" d="M68.48,25.61V20.42a4,4,0,0,1,.12-1,2,2,0,0,1,.33-.72H64.84V17.05h7.49v1.62H71.08a2.79,2.79,0,0,0-.24.86,7.25,7.25,0,0,0-.06.89v5.19Z"/><path class="cls-2" d="M79.3,25.61V19.84c0-.78-.36-1.17-1.07-1.17H73.79V17.05h5.06a3.25,3.25,0,0,1,1.44.3,2.15,2.15,0,0,1,1,.94,3.31,3.31,0,0,1,.35,1.65v5.67Zm-5.51,0V18h2.3v7.59Z"/></svg>