<svg id="Layer_1" data-name="Layer 1" xmlns="http://www.w3.org/2000/svg" viewBox="0 0 112.67 48.64"><defs><style>.cls-1{fill:#2f486b;}.cls-2{font-size:15px;fill:#1d1d1b;font-family:Assistant-SemiBold, Assistant;font-weight:600;}.cls-3{fill:#fff;}</style></defs><path class="cls-1" d="M8.19,40.74a1.61,1.61,0,0,0,1.39.91C9.18,41,8.75,40.66,8.19,40.74Z"/><path class="cls-1" d="M9.59,41.67h0S9.59,41.66,9.59,41.67Z"/><path class="cls-1" d="M110.79,9.27l-.43,0A.7.7,0,0,0,110.79,9.27Z"/><path class="cls-1" d="M34.85,43.75l.08-1.2c1.24,0,.36,1.37,1.51,1.07.45-1.69,1.9.18,2.29-.72,0,.13.55.18.52.71.17-.92.58-.21.93-.44.13-.26-.1-.28-.19-.56l.81-.32c.31.29.39.84.05.94,2.11.33,12.27,1.21,14.55.75-.29-.7-1-.23-1.27-1.32.61-.61.89.21,1.16-.43.23,1.63,1.32.39,1.78,2l.17-.93.3.57c2.65-1,.6-.47,3-.25,1.36-.14,2-1.42,2.76-.95-.11,0-.41-.57-.06-.81.06.81.94-.58,1.11.24.35-.11,1.47,0,1.09-1.11.19.55,1.18.78.59,1.26.34,0,.66.2.9,0l-.43-.31c1.14-.16,1.76.7,2.5-.3l-.42-.44c.68-.07,1.24-.16,1.51.94l-.7.34a4.66,4.66,0,0,0,2.75-.69l-.34,0c1.2-1.09,7.45-2,8.56-3.36l-.51-.85,1-.72c-.12,0-.46,2.76-.55,2.48,2-.07,12.59-.73,14.46-.16.76.47.14,1.35.13,1.48.92-.32.4-.9,1.18-.83.21.16,0,.67-.16.79.34-.1.66.2.68-.2-.43-.31-.24-1.36-.43-2.05l1,.09,0,.67c.22,0,.57-1.82,1.56-1.46,1.66.28,3.48,0,5.16.21,0,.39-.38.63-.74.86.23,0,.57-.08.78.21-.41-.71.7-.47.39-.77,1.23-1.62,2.82-.14,3.9-1.24.1-1.46,2.32-25.13,2.32-26.87.34,0,.68.07.78.21a.78.78,0,0,0-1.1-.37l-.06.93c-.81.33-.19-.55-1-.49-.05-.76.68-.93,1.32-1-.57-.09-1.15-.64-1.38.19-.55-.32.06-.93-.6-1.26-.46.23-1.07,1-1.61.52V8.63c-1.3-.79-2,1.16-3.17.38l.13-.26c-.42-.44-1.25.15-2-.32.21.16.4.71-.06.8-.87-.48-1.46,0-2.09-.59L99,9.38c-3-.14-15,.92-18,1l.12-.12c-4.64.37-14.15.31-19,1.34-.74-.73-1.76-.56-2.53-.77.43.31.28.83,0,.8-2.36-.08-.16.51-2.55.83-2.74.68-13.24-.1-15.67-.73-1.31,1.09-2.94.27-4.22,1l.12-.25c-1.37.41-9.16-.6-10.76-.21l.21.15c-1.39.68-1.2-.51-2.3-.88a2,2,0,0,1-1.51,2l0-.27c-.69.21-2.24,1.26-3.38,1.43l0-.67c-.94.72-2.72.42-3.4.49-1.56-.28-4-1.43-6-.55l-1.34-1.9-.2.19S6.39,35.14,9.13,40l0,.66.54-.08c.65.32,1-.45.91.22l-.89-.08c.65.19.2.54-.05.92a1.51,1.51,0,0,1,.75.34c.13-.25-.09-.27-.19-.42.35-.23.84-.85,1.27-.55.67.06,0,1.08.82,1.15,4.13.51,8.13,1.28,12.3,1.13.1.28,0,.27-.14.39,1.26-.28,2.38-.18,3.52-.48a2.13,2.13,0,0,1,.5,1C28.24,43.65,34.75,43.6,34.85,43.75Z"/><text class="cls-2" transform="translate(-60.09 -168.63) scale(1.06 1)"><tspan xml:space="preserve"> םנשי הכרדהה תיירקב</tspan><tspan x="64.11" y="16.93" xml:space="preserve"> לכוא ירדח</tspan><tspan x="-48.91" y="33.85" xml:space="preserve"> תועשה לכבו עובשה לכ ךלהמב</tspan><tspan x="67.59" y="50.78"> .תובוקנה</tspan><tspan x="67.71" y="67.7" xml:space="preserve"> לכוא רדח</tspan><tspan x="-76.56" y="84.63" xml:space="preserve"> םיירהצה תחורא תועש ךלהמב ׳ה-׳א</tspan><tspan x="86.16" y="101.55">.דבלב</tspan></text><path class="cls-3" d="M21.42,30.78V22.21h2.3v8.57Zm.48,0V29.16h6.5l0,1.62Zm5,0V24.93a1.08,1.08,0,0,0-.28-.84,1.12,1.12,0,0,0-.79-.26h-3V22.21h3.59a3.33,3.33,0,0,1,1.42.29,2.16,2.16,0,0,1,1,.9A3.2,3.2,0,0,1,29.23,25v5.75Z"/><path class="cls-3" d="M31,27.63V24l-.19-1.76H33.1L33.29,24v3.28Z"/><path class="cls-3" d="M35.13,27.63V24l-.19-1.76h2.3L37.43,24v2.34l0,.94Z"/><path class="cls-3" d="M38.91,30.78V29.16h2.33V24.82A1.06,1.06,0,0,0,41,24a1.11,1.11,0,0,0-.65-.26l-1.11-.15L39.53,22l2,.24a2.13,2.13,0,0,1,1.5.79,2.73,2.73,0,0,1,.51,1.7v6Z"/><path class="cls-3" d="M45.34,27.63V24l-.19-1.76h2.3L47.64,24v3.28Z"/><path class="cls-3" d="M53.32,30.78V24.93a1.08,1.08,0,0,0-.28-.84,1.13,1.13,0,0,0-.8-.26H49.11V22.21h3.77a3.4,3.4,0,0,1,1.42.29,2.16,2.16,0,0,1,1,.9A3.31,3.31,0,0,1,55.62,25v5.75Zm-4.21,0V29.16h7.58v1.62Z"/><path class="cls-3" d="M60.84,31l-.19-1.47a2.71,2.71,0,0,0,.92-.23.79.79,0,0,0,.41-.47,2.38,2.38,0,0,0,.09-.81V22.21H66.9a3.25,3.25,0,0,1,1.41.29,2.13,2.13,0,0,1,1,.9A3.2,3.2,0,0,1,69.65,25v5.75h-2.3V24.93a1.08,1.08,0,0,0-.29-.84,1.15,1.15,0,0,0-.8-.26H64.38v3.93A3.78,3.78,0,0,1,64,29.59a2.31,2.31,0,0,1-1.16,1A6.7,6.7,0,0,1,60.84,31Z"/><path class="cls-3" d="M76.86,30.78V25c0-.78-.36-1.17-1.07-1.17H71.36V22.21h5a3.25,3.25,0,0,1,1.44.3,2.15,2.15,0,0,1,1,.94,3.38,3.38,0,0,1,.36,1.66v5.67Zm-5.5,0V23.19h2.29v7.59Z"/><path class="cls-3" d="M81,30.78V24l-.19-1.76h2.3L83.26,24v6.81Z"/><path class="cls-3" d="M88.75,30.78V24.93a1.08,1.08,0,0,0-.28-.84,1.14,1.14,0,0,0-.79-.26H84.57V22.21H88.3a3.37,3.37,0,0,1,1.42.29,2.09,2.09,0,0,1,1,.9A3.2,3.2,0,0,1,91.06,25v5.75Z"/><path class="cls-3" d="M101.31,30.78H98.85l-3-4.37-1.42,4.37H92.24L94,25.63l.49-1.15L93,22.21h2.31l1.28,1.95,1.15,1.64.43-1.37.64-2.22H101l-1.91,5.46Z"/></svg>