<svg id="Layer_1" data-name="Layer 1" xmlns="http://www.w3.org/2000/svg" viewBox="0 0 189.19 46.34"><defs><style>.cls-1{fill:#2f486b;}.cls-2{fill:#fff;}</style></defs><path class="cls-1" d="M10.23,37.85a3.24,3.24,0,0,0,2.33,1A2.78,2.78,0,0,0,10.23,37.85Z"/><path class="cls-1" d="M12.57,38.84h0Z"/><path class="cls-1" d="M184.54,11l-.72,0A1.74,1.74,0,0,0,184.54,11Z"/><path class="cls-1" d="M55.24,42.05l.16-1.2c2.1,0,.58,1.39,2.52,1.14.8-1.67,3.21.26,3.9-.62,0,.14.93.21.85.74.32-.91,1-.19,1.59-.41.22-.25-.16-.28-.31-.56l1.38-.29c.52.31.64.86.06.94C69,42.22,86.1,43.55,90,43.19c-.48-.71-1.68-.27-2.1-1.37,1-.59,1.49.25,2-.38.34,1.63,2.22.45,3,2.11l.32-.91.49.58c4.51-.84,1-.44,5-.12,2.3-.08,3.43-1.33,4.7-.83-.19,0-.69-.59-.08-.81.08.81,1.6-.54,1.86.29.59-.09,2.48.06,1.87-1.06.3.56,2,.83,1,1.28.56.05,1.11.23,1.53,0l-.73-.33c1.93-.11,3,.77,4.23-.2l-.7-.45c1.15,0,2.12-.1,2.54,1l-1.19.31a12.53,12.53,0,0,0,4.66-.56l-.57-.05c2-1,12.65-1.66,14.55-3l-.83-.87,1.62-.67c-.19,0-.85,2.73-1,2.45,3.44,0,21.31-.18,24.47.48,1.26.5.19,1.35.17,1.49,1.57-.28.7-.89,2-.78.36.16-.09.67-.3.78.59-.08,1.12.23,1.17-.17-.72-.33-.38-1.37-.67-2.06l1.7.13-.09.66c.37,0,1-1.79,2.67-1.39,2.81.36,5.88.21,8.72.44-.06.4-.66.62-1.26.84.38,0,1-.06,1.3.24-.66-.73,1.21-.44.68-.75,2.12-1.57,4.77,0,6.63-1.07.2-1.46,4.59-25,4.64-26.76a3.48,3.48,0,0,1,1.3.24c-.13-.41-1.25-.63-1.85-.41l-.13.92c-1.37.29-.3-.56-1.64-.53-.05-.76,1.18-.89,2.27-.94-1-.11-1.93-.7-2.35.13-.91-.34.13-.93-1-1.28-.79.2-1.84.92-2.74.44l0-.13c-2.17-.85-3.39,1.07-5.37.24l.22-.25c-.7-.46-2.11.09-3.38-.41.36.16.67.72-.1.79-1.46-.52-2.48-.06-3.54-.68l-1.05.71c-5.12-.28-25.37.25-30.52.24l.2-.12c-7.85.17-23.94-.31-32.06.51-1.24-.77-3-.64-4.27-.88.72.32.45.84-.11.79-4-.19-.28.5-4.32.71-4.66.56-22.39-.68-26.49-1.42-2.24,1-5,.13-7.16.76l.22-.25c-2.34.35-15.48-1-18.2-.68l.36.16c-2.37.61-2-.57-3.87-1,.21,1.22-1.83,1.85-2.6,1.93l0-.27C34.61,11.22,32,12.2,30,12.31l.1-.66c-1.62.67-4.62.3-5.78.34-2.62-.35-6.65-1.61-10.19-.83L11.93,9.21l-.34.18s-4.26,22.79.26,27.79l-.1.66.93-.06c1.09.35,1.62-.4,1.53.26l-1.51-.12c1.1.22.32.55-.11.91a3.7,3.7,0,0,1,1.27.39c.22-.25-.16-.28-.33-.43.61-.22,1.45-.82,2.17-.5,1.13.09,0,1.08,1.37,1.19,7,.69,13.7,1.64,20.76,1.68.15.27,0,.26-.24.38,2.13-.23,4-.08,6-.33a2.06,2.06,0,0,1,.81,1C44.06,41.66,55.07,41.9,55.24,42.05Z"/><path class="cls-2" d="M17.31,30.59a13.24,13.24,0,0,1-1.55-3.19,11.5,11.5,0,0,1-.55-3.65,11.54,11.54,0,0,1,.55-3.65,13.3,13.3,0,0,1,1.55-3.2l1.36.54a11,11,0,0,0-1.29,3.07,12.67,12.67,0,0,0,0,6.47,11,11,0,0,0,1.29,3.07Z"/><path class="cls-2" d="M23.62,27.92V22.73a4,4,0,0,1,.12-1,2.19,2.19,0,0,1,.32-.72H20V19.36h7.48V21H26.22a2.79,2.79,0,0,0-.24.86,7.54,7.54,0,0,0-.07.89v5.19Z"/><path class="cls-2" d="M29,27.92V21.11l-.19-1.75h2.3l.19,1.75v6.81Z"/><path class="cls-2" d="M38.57,27.92V22.15c0-.78-.36-1.17-1.07-1.17H33.06V19.36h5.06a3.31,3.31,0,0,1,1.44.3,2.15,2.15,0,0,1,1,.94,3.31,3.31,0,0,1,.35,1.65v5.67Zm-5.51,0V20.33h2.3v7.59Z"/><path class="cls-2" d="M51.1,27.92H48.64l-3-4.36-1.42,4.36H42l1.77-5.14.5-1.16-1.49-2.26h2.32l1.28,1.95,1.14,1.63L48,21.58l.63-2.22h2.19l-1.92,5.46Z"/><path class="cls-2" d="M58.93,27.92V22.73a4,4,0,0,1,.12-1,2,2,0,0,1,.33-.72H55.29V19.36h7.49V21H61.53a3.48,3.48,0,0,0-.24.86,7.38,7.38,0,0,0-.06.89v5.19Z"/><path class="cls-2" d="M64.07,30.92V23.74l.32-1h2v8.22Zm3.4-3-.18-1.62a3.39,3.39,0,0,0,.91-.2,1.84,1.84,0,0,0,.69-.47,2.14,2.14,0,0,0,.45-.82,5.63,5.63,0,0,0,.2-1.24L69.75,21H64.2V19.36h8l-.08,1.39L72,23a8.12,8.12,0,0,1-.31,1.9,4.84,4.84,0,0,1-.77,1.56,3.47,3.47,0,0,1-1.35,1.06A5.05,5.05,0,0,1,67.47,27.94Z"/><path class="cls-2" d="M73.77,27.92V21.11l-.19-1.75h2.3l.19,1.75v6.81Z"/><path class="cls-2" d="M77.67,27.92l1.1-5.77-1.28-2.79h2.4L81,22.25l-1,5.67Zm3.49,0,.21-1.62a3.38,3.38,0,0,0,1.84,0,1.59,1.59,0,0,0,.91-1,4.79,4.79,0,0,0,.25-1.76A4.62,4.62,0,0,0,84.16,22a1.62,1.62,0,0,0-.6-.85,1.67,1.67,0,0,0-1-.27,1.85,1.85,0,0,0-.78.17,1.58,1.58,0,0,0-.57.48,1.66,1.66,0,0,0-.29.76l-.53-.93a2.89,2.89,0,0,1,1-1.66,2.73,2.73,0,0,1,1.6-.52,3.81,3.81,0,0,1,1.49.27,2.72,2.72,0,0,1,1.1.8,3.94,3.94,0,0,1,.68,1.36,7.32,7.32,0,0,1,.23,1.92,5.42,5.42,0,0,1-.62,2.76,3.35,3.35,0,0,1-1.84,1.55A5.34,5.34,0,0,1,81.16,27.94Z"/><path class="cls-2" d="M89.29,30.59l-1.36-.54A11.64,11.64,0,0,0,89.22,27a12.67,12.67,0,0,0,0-6.47,11.64,11.64,0,0,0-1.29-3.07l1.36-.54a13.68,13.68,0,0,1,1.55,3.2,11.54,11.54,0,0,1,.55,3.65,11.5,11.5,0,0,1-.55,3.65A13.62,13.62,0,0,1,89.29,30.59Z"/><path class="cls-2" d="M100.58,27.92V22.07a1.08,1.08,0,0,0-.28-.84,1.13,1.13,0,0,0-.8-.25H96.37V19.36h3.77a3.25,3.25,0,0,1,1.42.29,2,2,0,0,1,1,.89,3.36,3.36,0,0,1,.35,1.64v5.74Zm-4.21,0V26.3H104v1.62Z"/><path class="cls-2" d="M105.4,27.92V21.11l-.19-1.75h2.3l.19,1.75v6.81Z"/><path class="cls-2" d="M110.4,28.07l-1.2-8.71h2.19l.88,6.93a6.54,6.54,0,0,0,2-.41,3.47,3.47,0,0,0,1.3-.9,3.34,3.34,0,0,0,.69-1.32,6.33,6.33,0,0,0,.21-1.68l0-2.62h2.31l0,2.5a6.34,6.34,0,0,1-.87,3.48,5.2,5.2,0,0,1-2.72,2.1A13.17,13.17,0,0,1,110.4,28.07Zm1.32-3.42-.54-1.35a2.61,2.61,0,0,0,1.11-.51,1.76,1.76,0,0,0,.51-.93,6.34,6.34,0,0,0,.12-1.5v-1h2.19v.95a5.92,5.92,0,0,1-.32,1.91,3.12,3.12,0,0,1-1,1.45A5.52,5.52,0,0,1,111.72,24.65Z"/><path class="cls-2" d="M125.75,27.92V22.15c0-.78-.36-1.17-1.07-1.17h-4.44V19.36h5.06a3.25,3.25,0,0,1,1.44.3,2.15,2.15,0,0,1,1,.94,3.31,3.31,0,0,1,.35,1.65v5.67Zm-5.51,0V20.33h2.3v7.59Z"/><path class="cls-2" d="M129.61,27.92l1.1-5.77-1.27-2.79h2.39l1.07,2.89-1,5.67Zm3.5,0,.2-1.62a3.38,3.38,0,0,0,1.84,0,1.61,1.61,0,0,0,.92-1,4.8,4.8,0,0,0,.24-1.76,4.65,4.65,0,0,0-.2-1.53,1.53,1.53,0,0,0-1.58-1.12,1.79,1.79,0,0,0-.78.17,1.61,1.61,0,0,0-.58.48,1.78,1.78,0,0,0-.29.76l-.52-.93a2.93,2.93,0,0,1,1-1.66,2.76,2.76,0,0,1,1.61-.52,3.85,3.85,0,0,1,1.49.27,2.69,2.69,0,0,1,1.09.8,3.62,3.62,0,0,1,.68,1.36,7.32,7.32,0,0,1,.23,1.92,5.42,5.42,0,0,1-.61,2.76A3.37,3.37,0,0,1,136,27.88,5.3,5.3,0,0,1,133.11,27.94Z"/><path class="cls-2" d="M146.51,27.92V22.73a4,4,0,0,1,.12-1A2,2,0,0,1,147,21h-4.09V19.36h7.49V21h-1.25a3.48,3.48,0,0,0-.24.86,7.38,7.38,0,0,0-.06.89v5.19Z"/><path class="cls-2" d="M151.65,30.92V23.74l.32-1h2v8.22Zm3.4-3-.18-1.62a3.39,3.39,0,0,0,.91-.2,1.84,1.84,0,0,0,.69-.47,2.14,2.14,0,0,0,.45-.82,5.63,5.63,0,0,0,.2-1.24l.21-2.61h-5.55V19.36h8l-.08,1.39L159.55,23a8.12,8.12,0,0,1-.31,1.9,4.84,4.84,0,0,1-.77,1.56,3.47,3.47,0,0,1-1.35,1.06A5.05,5.05,0,0,1,155.05,27.94Z"/><path class="cls-2" d="M161.35,27.92V21.11l-.19-1.75h2.3l.19,1.75v6.81Z"/><path class="cls-2" d="M165.25,27.92l1.1-5.77-1.28-2.79h2.4l1.07,2.89-1,5.67Zm3.49,0,.21-1.62a3.38,3.38,0,0,0,1.84,0,1.59,1.59,0,0,0,.91-1,4.79,4.79,0,0,0,.25-1.76,4.62,4.62,0,0,0-.21-1.53,1.62,1.62,0,0,0-.6-.85,1.67,1.67,0,0,0-1-.27,1.85,1.85,0,0,0-.78.17,1.56,1.56,0,0,0-.86,1.24L168,21.4a2.94,2.94,0,0,1,1-1.66,2.73,2.73,0,0,1,1.6-.52,3.81,3.81,0,0,1,1.49.27,2.72,2.72,0,0,1,1.1.8,3.94,3.94,0,0,1,.68,1.36,7.32,7.32,0,0,1,.23,1.92,5.42,5.42,0,0,1-.62,2.76,3.35,3.35,0,0,1-1.84,1.55A5.34,5.34,0,0,1,168.74,27.94Z"/></svg>