<svg id="Layer_1" preserveAspectRatio="none" data-name="Layer 1" xmlns="http://www.w3.org/2000/svg" viewBox="0 0 105.7 48"><defs><style>.cls-1{fill:#2f486b;}.cls-2{fill:#fff;}</style></defs><path class="cls-1" d="M11.73,40a1.36,1.36,0,0,0,1.16.92C12.56,40.19,12.2,39.89,11.73,40Z"/><path class="cls-1" d="M12.9,40.9h0Z"/><path class="cls-1" d="M97.17,8.5l-.36.05A.51.51,0,0,0,97.17,8.5Z"/><path class="cls-1" d="M33.94,43,34,41.79c1,0,.3,1.37,1.26,1.07.37-1.69,1.58.18,1.91-.72,0,.13.46.18.43.71.14-.92.48-.21.77-.45.11-.25-.08-.27-.16-.55l.68-.32c.26.29.33.83,0,.93,1.76.33,10.22,1.22,12.11.76-.24-.7-.82-.23-1-1.32.5-.62.74.21,1-.43.19,1.62,1.1.39,1.48,2l.15-.92.25.57c2.2-1,.5-.47,2.46-.25,1.13-.15,1.67-1.42,2.3-.95-.1,0-.35-.58-.05-.81.05.81.78-.58.92.23.29-.1,1.22,0,.9-1.1.16.55,1,.78.5,1.26.28,0,.55.19.75-.05l-.36-.31c1-.16,1.46.7,2.08-.31L62,40.43c.56-.07,1-.16,1.26.94l-.58.33A3.36,3.36,0,0,0,64.94,41l-.28,0c1-1.09,6.21-2,7.12-3.36l-.42-.85.79-.72c-.09,0-.38,2.76-.46,2.48,1.69-.08,10.49-.74,12-.16.63.47.11,1.34.1,1.48.77-.32.34-.9,1-.83.18.15,0,.67-.14.79.29-.1.55.19.57-.2-.35-.31-.2-1.37-.35-2l.83.09,0,.67c.18,0,.47-1.82,1.29-1.47,1.39.29,2.9.06,4.3.21a1.21,1.21,0,0,1-.61.87c.19,0,.47-.08.65.21-.34-.71.58-.47.32-.77,1-1.63,2.35-.14,3.25-1.24C95,34.67,96.85,11,96.85,9.27c.28,0,.55.06.64.21a.6.6,0,0,0-.92-.37l0,.93c-.67.33-.15-.55-.81-.49,0-.76.57-.93,1.1-1-.48-.09-1-.65-1.15.19-.45-.32,0-.93-.5-1.26-.38.23-.89,1-1.34.52V7.87c-1.08-.79-1.65,1.15-2.64.37L91.3,8c-.35-.44-1,.15-1.67-.32.18.15.33.71,0,.8-.73-.48-1.22,0-1.75-.6l-.51.75c-2.52-.15-12.48.92-15,1l.1-.12c-3.86.37-11.78.31-15.77,1.34-.62-.74-1.47-.56-2.11-.77.35.31.23.83-.05.8-2-.08-.13.51-2.11.82-2.29.69-11-.09-13.06-.72-1.09,1.09-2.45.27-3.51,1l.1-.25c-1.14.4-7.63-.6-9-.21l.18.15c-1.16.67-1-.51-1.92-.88a1.93,1.93,0,0,1-1.25,2V12.5a16.24,16.24,0,0,1-2.81,1.43l0-.67c-.79.71-2.27.42-2.83.49-1.3-.28-3.3-1.44-5-.56L12.2,11.3l-.16.19s-1.81,22.89.48,27.77l0,.66.45-.09c.54.33.79-.44.76.22L13,40c.55.2.17.55,0,.92a1.28,1.28,0,0,1,.63.35c.11-.25-.08-.27-.17-.42.3-.23.71-.86,1.06-.55.56.06,0,1.08.69,1.15,3.44.51,6.77,1.28,10.24,1.13.08.28,0,.27-.11.39,1-.29,2-.18,2.92-.48a2.35,2.35,0,0,1,.42,1C28.43,42.89,33.85,42.84,33.94,43Z"/><path class="cls-2" d="M14.57,28.15V24.06l.32-1h2v5.1Zm5.33,0V22.3a1.12,1.12,0,0,0-.28-.84,1.14,1.14,0,0,0-.79-.25H14.66V19.59h4.79a3.36,3.36,0,0,1,1.42.28,2.13,2.13,0,0,1,1,.9,3.24,3.24,0,0,1,.36,1.64v5.74Z"/><path class="cls-2" d="M29.31,28.15V22.38c0-.78-.35-1.17-1.07-1.17H23.81V19.59h5.06a3.23,3.23,0,0,1,1.43.3,2.17,2.17,0,0,1,1,.94,3.42,3.42,0,0,1,.35,1.65v5.67Zm-5.5,0V20.56h2.3v7.59Z"/><path class="cls-2" d="M33.41,25V21.34l-.19-1.75h2.3l.19,1.75v3.29Z"/><path class="cls-2" d="M36.78,28.41l-.19-1.47a3.12,3.12,0,0,0,.93-.23.82.82,0,0,0,.4-.48,2.38,2.38,0,0,0,.09-.81V19.59h4.84a3.32,3.32,0,0,1,1.41.28,2.16,2.16,0,0,1,1,.9,3.24,3.24,0,0,1,.36,1.64v5.74h-2.3V22.3a1,1,0,0,0-.29-.84,1.14,1.14,0,0,0-.79-.25H40.32v3.93A3.78,3.78,0,0,1,40,27a2.29,2.29,0,0,1-1.16,1A6.68,6.68,0,0,1,36.78,28.41Z"/><path class="cls-2" d="M47.28,28.15V26.53h3.23a2.23,2.23,0,0,0,.83-.14A1.52,1.52,0,0,0,52,26a2,2,0,0,0,.38-.67,2.66,2.66,0,0,0,.14-.88V23.31a3,3,0,0,0-.19-1.07,1.64,1.64,0,0,0-.59-.75,1.7,1.7,0,0,0-1-.28H49.53l-.29,1.27a1.06,1.06,0,0,0,.1.84,1.41,1.41,0,0,0,.88.42l-.37,1.35a3.63,3.63,0,0,1-1.78-.4,1.74,1.74,0,0,1-.8-1,3.09,3.09,0,0,1-.05-1.4l.64-2.7h3.36a3.61,3.61,0,0,1,1.91.48,3.12,3.12,0,0,1,1.21,1.33,4.38,4.38,0,0,1,.43,2v.9a4.59,4.59,0,0,1-.27,1.62,3.24,3.24,0,0,1-.76,1.22,3.18,3.18,0,0,1-1.17.75,4.29,4.29,0,0,1-1.52.25Z"/><path class="cls-2" d="M59,28.41l-.2-1.47a3,3,0,0,0,.93-.23.84.84,0,0,0,.41-.48,2.38,2.38,0,0,0,.09-.81V19.59h4.83a3.32,3.32,0,0,1,1.41.28,2.18,2.18,0,0,1,1,.9,3.24,3.24,0,0,1,.36,1.64v5.74h-2.3V22.3a1.08,1.08,0,0,0-.29-.84,1.16,1.16,0,0,0-.8-.25H62.54v3.93A3.78,3.78,0,0,1,62.16,27,2.27,2.27,0,0,1,61,28,6.68,6.68,0,0,1,59,28.41Z"/><path class="cls-2" d="M69.62,28.15V21.34l-.19-1.75h2.3l.19,1.75v6.81Z"/><path class="cls-2" d="M73.23,28.72,72.91,27l3.7-.66a3.26,3.26,0,0,0,1.26-.45,2.06,2.06,0,0,0,.71-.86,4.1,4.1,0,0,0,.34-1.3c.06-.52.09-1.12.1-1.81V19.59h2.29c0,1,0,1.87-.06,2.68A13.38,13.38,0,0,1,81,24.44a5,5,0,0,1-.71,1.7,4.08,4.08,0,0,1-1.37,1.22,7.41,7.41,0,0,1-2.25.75ZM75.5,26.8l-1.89-7.21h2.3L77.7,26.8Z"/><path class="cls-2" d="M83.81,28.3l-1.2-8.71H84.8l.88,6.93a6.42,6.42,0,0,0,2-.41,3.5,3.5,0,0,0,1.3-.9,3.21,3.21,0,0,0,.69-1.32,6.33,6.33,0,0,0,.21-1.68l0-2.62h2.31l0,2.5a6.42,6.42,0,0,1-.86,3.48,5.26,5.26,0,0,1-2.73,2.1A13.17,13.17,0,0,1,83.81,28.3Zm1.33-3.42-.55-1.35A2.61,2.61,0,0,0,85.7,23a1.76,1.76,0,0,0,.51-.93,6.39,6.39,0,0,0,.12-1.5v-1h2.19v.95a6.21,6.21,0,0,1-.31,1.91,3.27,3.27,0,0,1-1,1.45A5.68,5.68,0,0,1,85.14,24.88Z"/></svg>