<svg id="Layer_1" preserveAspectRatio="none" data-name="Layer 1" xmlns="http://www.w3.org/2000/svg" viewBox="0 0 98.9 48.62"><defs><style>.cls-1{fill:#2f486b;}.cls-2{fill:#fff;}</style></defs><path class="cls-1" d="M7.51,38.46a1.34,1.34,0,0,0,1.16.91C8.33,38.68,8,38.38,7.51,38.46Z"/><path class="cls-1" d="M8.68,39.39h0a0,0,0,0,1,0,0Z"/><path class="cls-1" d="M92.94,7l-.35,0A.43.43,0,0,0,92.94,7Z"/><path class="cls-1" d="M29.71,41.47l.07-1.2c1,0,.3,1.37,1.25,1.08.37-1.7,1.58.17,1.91-.73,0,.14.46.19.43.72.15-.92.48-.22.78-.45.1-.26-.08-.28-.16-.55l.67-.33c.27.3.33.84,0,.94,1.77.33,10.22,1.21,12.12.75-.24-.69-.83-.22-1-1.32.5-.61.74.22,1-.43.19,1.63,1.1.39,1.48,2l.14-.92.25.56c2.21-1,.51-.47,2.46-.25,1.13-.14,1.67-1.42,2.3-1-.09,0-.34-.57,0-.81,0,.81.78-.58.92.24.29-.1,1.22,0,.91-1.11.16.56,1,.78.49,1.26.28,0,.55.2.75,0L56,39.65c.95-.16,1.47.7,2.08-.3l-.35-.44c.57-.07,1-.15,1.26.94l-.58.34a3.43,3.43,0,0,0,2.29-.68l-.28,0c1-1.1,6.2-2,7.12-3.37l-.42-.85.79-.71c-.1,0-.38,2.75-.46,2.48,1.69-.08,10.48-.74,12-.17.63.47.12,1.35.11,1.48.77-.31.33-.9,1-.82.18.15,0,.66-.13.78.28-.1.55.2.57-.2-.36-.31-.21-1.36-.36-2.05l.84.1,0,.66c.19,0,.48-1.82,1.3-1.46,1.39.29,2.9,0,4.3.21a1.29,1.29,0,0,1-.61.87c.18,0,.47-.08.64.2-.34-.7.59-.47.32-.76,1-1.63,2.35-.15,3.26-1.25.07-1.46,1.93-25.13,1.93-26.86.28,0,.56.06.65.2a.61.61,0,0,0-.92-.37l0,.93c-.68.33-.16-.55-.82-.49,0-.76.57-.92,1.11-1-.48-.08-1-.64-1.16.19-.45-.31,0-.93-.49-1.25-.39.22-.9,1-1.34.52V6.35C88.52,5.56,88,7.51,87,6.73l.11-.26c-.35-.44-1,.16-1.67-.31.18.15.34.7,0,.79-.72-.48-1.22,0-1.75-.59l-.51.74c-2.52-.14-12.48.92-15,1l.1-.12c-3.86.37-11.79.32-15.78,1.34-.61-.73-1.47-.56-2.11-.76.36.3.24.82,0,.79-2-.08-.14.51-2.12.83-2.28.68-11-.1-13-.72-1.09,1.08-2.45.26-3.52.95l.11-.26c-1.15.41-7.63-.6-9-.21l.18.16c-1.16.67-1-.52-1.92-.89a1.92,1.92,0,0,1-1.25,2V11c-.57.2-1.86,1.26-2.81,1.42l0-.67c-.79.72-2.27.42-2.84.49-1.29-.27-3.29-1.43-5-.55L8,9.78,7.81,10S6,32.87,8.3,37.74l0,.67.45-.09c.55.33.8-.44.76.22l-.74-.08c.54.19.16.54-.05.92a1.14,1.14,0,0,1,.63.35c.11-.26-.08-.28-.16-.42.29-.24.7-.86,1.06-.56.56.07,0,1.08.69,1.15,3.43.52,6.76,1.29,10.24,1.14.07.27,0,.26-.12.38,1.05-.28,2-.18,2.93-.48a2.3,2.3,0,0,1,.41,1C24.21,41.38,29.63,41.33,29.71,41.47Z"/><path class="cls-2" d="M17.13,24.89V21.23l-.19-1.75h2.3l.19,1.75v3.29Z"/><path class="cls-2" d="M20.5,28.3l-.19-1.47a2.68,2.68,0,0,0,.92-.24.76.76,0,0,0,.41-.47,2.38,2.38,0,0,0,.09-.81V19.48h4.83a3.33,3.33,0,0,1,1.42.28,2.16,2.16,0,0,1,1,.9,3.24,3.24,0,0,1,.36,1.64V28H27V22.19a1,1,0,0,0-.29-.84,1.14,1.14,0,0,0-.79-.25H24V25a3.78,3.78,0,0,1-.37,1.83,2.29,2.29,0,0,1-1.16,1A6.68,6.68,0,0,1,20.5,28.3Z"/><path class="cls-2" d="M31.13,24.89V21.23l-.19-1.75h2.3l.19,1.75v2.34l0,.95Z"/><path class="cls-2" d="M35.26,24.89V21.23l-.19-1.75h2.3l.19,1.75v2.34l0,.95Z"/><path class="cls-2" d="M43.05,28V22.19a1.08,1.08,0,0,0-.28-.84A1.14,1.14,0,0,0,42,21.1H38.87V19.48H42.6a3.36,3.36,0,0,1,1.42.28,2.13,2.13,0,0,1,1,.9,3.24,3.24,0,0,1,.36,1.64V28Z"/><path class="cls-2" d="M46.9,31V23.86l.31-1h2V31Zm3.39-3-.17-1.62a3.12,3.12,0,0,0,.91-.21,1.86,1.86,0,0,0,.68-.46,2.08,2.08,0,0,0,.45-.82,5.06,5.06,0,0,0,.21-1.24l.21-2.61H47V19.48h8L55,20.87l-.17,2.27a8.11,8.11,0,0,1-.32,1.9,4.74,4.74,0,0,1-.77,1.56,3.49,3.49,0,0,1-1.35,1.06A5.22,5.22,0,0,1,50.29,28.06Z"/><path class="cls-2" d="M63.19,31,59.34,19.48h2.19L65.39,31Zm.16-3.69L62,25.75l2.81-6.27H67Z"/><path class="cls-2" d="M68.3,28V21.23l-.2-1.75h2.3l.19,1.75V28Z"/><path class="cls-2" d="M77.82,28V22.27c0-.78-.35-1.17-1.07-1.17H72.32V19.48h5.06a3.23,3.23,0,0,1,1.43.3,2.2,2.2,0,0,1,1,.93,3.49,3.49,0,0,1,.35,1.66V28Zm-5.5,0V20.45h2.3V28Z"/></svg>