<svg id="Layer_1" preserveAspectRatio="none" data-name="Layer 1" xmlns="http://www.w3.org/2000/svg" viewBox="0 0 97.28 44.04"><defs><style>.cls-1{fill:#2f486b;}.cls-2{fill:#fff;}</style></defs><path class="cls-1" d="M6.49,38.18a1.36,1.36,0,0,0,1.16.91C7.32,38.4,7,38.1,6.49,38.18Z"/><path class="cls-1" d="M7.66,39.11h0Z"/><path class="cls-1" d="M91.93,6.71l-.36,0A.46.46,0,0,0,91.93,6.71Z"/><path class="cls-1" d="M28.7,41.19l.06-1.2c1,0,.3,1.37,1.25,1.08.38-1.7,1.59.17,1.92-.73,0,.14.46.19.43.72.14-.92.48-.22.77-.45.11-.26-.08-.28-.16-.56l.68-.32c.26.3.32.84,0,.94,1.76.33,10.21,1.21,12.11.75-.24-.69-.83-.23-1-1.32.5-.61.74.22,1-.43.19,1.63,1.1.39,1.48,2l.15-.92.24.56c2.21-1,.51-.47,2.46-.25,1.14-.14,1.67-1.42,2.3-1-.09,0-.34-.57-.05-.81.05.81.78-.58.93.24.28-.1,1.21,0,.9-1.11.16.56,1,.78.49,1.26.28,0,.55.2.76,0L55,39.37c.94-.16,1.46.7,2.07-.3l-.35-.44c.57-.07,1-.15,1.26.94l-.58.34a3.43,3.43,0,0,0,2.29-.68l-.28,0c1-1.1,6.2-2,7.12-3.37L66.12,35l.79-.72c-.09,0-.38,2.76-.46,2.49,1.69-.08,10.48-.74,12-.17.63.47.11,1.35.1,1.48.77-.31.33-.9,1-.82.18.15,0,.66-.13.78.28-.1.55.2.57-.2-.36-.31-.21-1.36-.36-2l.84.1,0,.66c.19,0,.48-1.82,1.3-1.46,1.39.29,2.9,0,4.3.21,0,.4-.32.63-.61.87.19,0,.47-.09.64.2-.33-.7.59-.47.33-.77,1-1.62,2.34-.14,3.25-1.24.08-1.46,1.93-25.13,1.93-26.86.28,0,.56.06.65.2a.61.61,0,0,0-.92-.37l0,.93c-.67.33-.16-.55-.82-.49,0-.76.58-.92,1.11-1-.48-.09-1-.64-1.16.19-.45-.31,0-.93-.49-1.25-.39.22-.89,1-1.34.52V6.07c-1.08-.79-1.66,1.16-2.64.38l.1-.26c-.35-.44-1,.16-1.66-.31.18.15.33.7,0,.79-.72-.48-1.22,0-1.75-.59l-.5.74c-2.53-.14-12.49.92-15,1l.1-.12c-3.86.37-11.79.32-15.78,1.34-.61-.73-1.46-.56-2.11-.76.36.3.24.82,0,.79-2-.08-.13.51-2.12.83-2.28.68-11-.1-13-.72-1.09,1.08-2.45.26-3.52.95l.11-.26c-1.14.41-7.63-.6-9-.21l.18.16c-1.17.67-1-.52-1.92-.89a1.94,1.94,0,0,1-1.26,2l0-.26c-.57.2-1.87,1.26-2.82,1.42l0-.67c-.79.72-2.27.42-2.84.49-1.29-.27-3.29-1.43-5-.55L7,9.5l-.17.19S5,32.58,7.28,37.46l0,.67L7.7,38c.54.33.79-.44.75.22l-.74-.08c.54.19.16.54,0,.92a1.21,1.21,0,0,1,.63.35c.1-.26-.08-.28-.17-.42.29-.24.7-.86,1.06-.56.56.07,0,1.08.69,1.15,3.43.52,6.76,1.28,10.24,1.14.08.27,0,.26-.12.38,1.05-.28,2-.18,2.93-.48a2.33,2.33,0,0,1,.42,1C23.19,41.1,28.61,41,28.7,41.19Z"/><path class="cls-2" d="M31.83,27.38v-4.1l.32-1h2v5.1Zm5.33,0V21.53a1.08,1.08,0,0,0-.28-.84,1.12,1.12,0,0,0-.79-.26H31.93V18.81h4.79a3.4,3.4,0,0,1,1.42.29,2.18,2.18,0,0,1,1,.9,3.2,3.2,0,0,1,.36,1.63v5.75Z"/><path class="cls-2" d="M40.67,27.38V25.76h2.56a1.85,1.85,0,0,0,1-.27,1.45,1.45,0,0,0,.58-.75A3.06,3.06,0,0,0,45,23.66V22.53a3,3,0,0,0-.18-1.07,1.54,1.54,0,0,0-.58-.75,1.85,1.85,0,0,0-1-.28H40.67V18.81h3.18a3.62,3.62,0,0,1,1.94.48A3,3,0,0,1,47,20.64a4.81,4.81,0,0,1,.39,2v.89a4.87,4.87,0,0,1-.39,2,3,3,0,0,1-1.16,1.34,3.72,3.72,0,0,1-1.94.47Z"/><path class="cls-2" d="M48.92,24.23V20.57l-.19-1.76H51l.19,1.76v3.28Z"/><path class="cls-2" d="M56.71,27.38V21.53a1.08,1.08,0,0,0-.28-.84,1.12,1.12,0,0,0-.79-.26H52.53V18.81h3.74a3.4,3.4,0,0,1,1.42.29,2.18,2.18,0,0,1,1,.9A3.2,3.2,0,0,1,59,21.63v5.75Z"/><path class="cls-2" d="M64.69,27.38V21.53a1.08,1.08,0,0,0-.28-.84,1.15,1.15,0,0,0-.8-.26H60.48V18.81h3.76a3.33,3.33,0,0,1,1.42.29,2.13,2.13,0,0,1,1,.9A3.31,3.31,0,0,1,67,21.63v5.75Zm-4.21,0V25.76h7.58v1.62Z"/></svg>