<svg id="Layer_1" data-name="Layer 1" xmlns="http://www.w3.org/2000/svg" viewBox="0 0 97.19 46.68"><defs><style>.cls-1{fill:#2f486b;}.cls-2{fill:#fff;}</style></defs><path class="cls-1" d="M8.27,40.13A1.34,1.34,0,0,0,9.42,41C9.09,40.35,8.73,40.05,8.27,40.13Z"/><path class="cls-1" d="M9.43,41.06h0Z"/><path class="cls-1" d="M93.7,8.66l-.36,0A.51.51,0,0,0,93.7,8.66Z"/><path class="cls-1" d="M30.47,43.14l.07-1.2c1,0,.3,1.37,1.25,1.08.37-1.7,1.58.17,1.91-.73,0,.13.46.19.43.72.14-.92.48-.22.77-.45.11-.26-.07-.28-.15-.56l.67-.32c.26.3.33.84,0,.94,1.76.33,10.22,1.21,12.12.75-.25-.7-.83-.23-1.06-1.32.51-.61.74.22,1-.43.2,1.63,1.11.39,1.49,2l.14-.92.25.56c2.2-1,.5-.47,2.46-.25,1.13-.14,1.67-1.42,2.3-.95-.1,0-.35-.57,0-.81,0,.81.78-.58.92.24.29-.1,1.22,0,.9-1.11.16.56,1,.78.5,1.26.28,0,.55.2.75,0l-.36-.31c.95-.16,1.46.7,2.08-.3l-.35-.44c.56-.07,1-.15,1.26.94l-.58.34a3.36,3.36,0,0,0,2.28-.69l-.28,0c1-1.09,6.21-2,7.13-3.36l-.43-.85.79-.72c-.09,0-.38,2.76-.46,2.49,1.69-.08,10.49-.74,12-.17.63.47.11,1.35.11,1.48.76-.31.33-.9,1-.82.18.15,0,.66-.14.78.29-.1.55.2.57-.2-.35-.31-.2-1.36-.35-2.05l.84.09,0,.67c.19,0,.47-1.82,1.3-1.46,1.39.29,2.9,0,4.29.21,0,.4-.31.63-.61.87.19,0,.48-.09.65.2-.34-.7.59-.47.32-.77,1-1.62,2.35-.14,3.25-1.24.08-1.46,1.94-25.13,1.94-26.87.28,0,.56.07.64.21a.6.6,0,0,0-.91-.37l-.06.93c-.67.33-.15-.55-.81-.49,0-.76.57-.92,1.1-1-.48-.09-1-.64-1.15.19-.45-.31,0-.93-.49-1.25-.39.22-.9,1-1.35.52V8c-1.08-.79-1.65,1.16-2.64.38l.11-.26c-.35-.44-1,.16-1.67-.32.18.16.34.71,0,.8-.73-.48-1.22,0-1.75-.59l-.51.74c-2.52-.14-12.48.92-15,1l.1-.12c-3.86.37-11.78.32-15.77,1.34-.62-.73-1.47-.56-2.11-.76.36.3.23.82-.05.79-2-.08-.13.51-2.11.83-2.29.68-11-.1-13.06-.72-1.08,1.08-2.44.26-3.51.94l.11-.25c-1.15.41-7.64-.6-9-.21l.18.16c-1.16.67-1-.52-1.92-.89a1.93,1.93,0,0,1-1.25,2v-.26c-.57.2-1.87,1.26-2.81,1.42l0-.67c-.78.72-2.27.42-2.83.49-1.3-.27-3.3-1.43-5-.55l-1.12-1.9-.16.19s-1.8,22.89.48,27.77l0,.66L9.47,40c.54.33.79-.44.76.22l-.75-.08c.55.19.17.54,0,.92a1.14,1.14,0,0,1,.63.35c.11-.26-.08-.28-.16-.42.29-.24.7-.86,1.05-.56.56.07,0,1.08.69,1.15,3.44.51,6.77,1.28,10.24,1.13.08.28,0,.27-.11.39,1-.28,2-.18,2.93-.48a2.43,2.43,0,0,1,.41,1C25,43.05,30.38,43,30.47,43.14Z"/><path class="cls-2" d="M37.83,22V18.14h2.08V22Zm1.77,6.94L42.46,22H37.83V20.33h6.94v1.78L41.9,28.89Z"/><path class="cls-2" d="M47,29.05l-1.07-8.72h2.32l.78,6.8a5,5,0,0,0,1.45-.33,2.52,2.52,0,0,0,.94-.64,2.31,2.31,0,0,0,.5-.94A3.87,3.87,0,0,0,52.05,24v-.47a1.85,1.85,0,0,0-.16-.78,1.56,1.56,0,0,0-.51-.61,1.62,1.62,0,0,0-.89-.27l-.79-.05.18-1.67,1,.05a4.56,4.56,0,0,1,1.7.39,3,3,0,0,1,1.23,1,3.11,3.11,0,0,1,.51,1.7v.42a4.8,4.8,0,0,1-.44,2.35,4,4,0,0,1-1.45,1.61,7.35,7.35,0,0,1-2.34,1A18,18,0,0,1,47,29.05Z"/><path class="cls-2" d="M64.12,28.89H61.66l-3-4.36-1.42,4.36H55.05l1.77-5.14.5-1.16-1.49-2.26h2.32l1.27,2,1.15,1.63L61,22.55l.64-2.22h2.19l-1.92,5.46Z"/><path class="cls-2" d="M66.4,29.05l-1.2-8.72h2.19l.87,6.93a6.55,6.55,0,0,0,2-.41,3.59,3.59,0,0,0,1.3-.9,3.3,3.3,0,0,0,.69-1.31A6.41,6.41,0,0,0,72.48,23l0-2.62h2.31l0,2.51a6.28,6.28,0,0,1-.87,3.47,5.1,5.1,0,0,1-2.72,2.1A13.15,13.15,0,0,1,66.4,29.05Zm1.32-3.42-.54-1.36a2.61,2.61,0,0,0,1.11-.51,1.77,1.77,0,0,0,.51-.92,6.49,6.49,0,0,0,.12-1.5v-1h2.19v.95a6.2,6.2,0,0,1-.32,1.91,3.12,3.12,0,0,1-1,1.45A5.52,5.52,0,0,1,67.72,25.63Z"/></svg>