<svg id="Layer_1" data-name="Layer 1" xmlns="http://www.w3.org/2000/svg" viewBox="0 0 100.51 57.83"><defs><style>.cls-1{fill:#2f486b;}.cls-2{font-size:15px;font-family:Assistant-Bold, Assistant;font-weight:700;}.cls-2,.cls-4{fill:#fff;}.cls-3{fill:#1d1d1b;font-family:Assistant-SemiBold, Assistant;font-weight:600;}</style></defs><path class="cls-1" d="M10.2,45.61a1.39,1.39,0,0,0,1.16.92C11,45.83,10.67,45.53,10.2,45.61Z"/><path class="cls-1" d="M11.37,46.54h0Z"/><path class="cls-1" d="M95.64,14.14l-.36,0A.51.51,0,0,0,95.64,14.14Z"/><path class="cls-1" d="M32.41,48.62l.06-1.2c1,0,.3,1.37,1.26,1.08.37-1.7,1.58.17,1.91-.73,0,.14.46.19.43.72.14-.92.48-.21.77-.45.11-.25-.08-.27-.16-.55l.68-.33c.26.3.33.84,0,.94,1.76.33,10.22,1.21,12.11.75-.24-.69-.83-.22-1-1.32.5-.61.74.22,1-.43.19,1.63,1.1.39,1.48,2l.15-.92.25.56c2.2-1,.5-.46,2.46-.25,1.13-.14,1.67-1.42,2.3-1-.1,0-.35-.57-.05-.8.05.8.78-.59.92.23.29-.1,1.22,0,.9-1.1.16.55,1,.78.5,1.26.28,0,.55.19.75-.05l-.36-.31c.94-.16,1.46.69,2.08-.31l-.35-.44c.56-.07,1-.15,1.26.94l-.58.34a3.42,3.42,0,0,0,2.28-.68l-.28,0c1-1.09,6.21-2,7.12-3.37l-.42-.85.79-.71c-.09,0-.38,2.76-.46,2.48,1.69-.08,10.49-.74,12-.17.63.47.11,1.35.1,1.49.77-.32.33-.9,1-.83.17.15,0,.67-.14.79.29-.1.55.19.57-.21-.36-.3-.2-1.36-.36-2l.84.09,0,.66c.18,0,.47-1.82,1.29-1.46,1.39.29,2.9.06,4.3.21a1.21,1.21,0,0,1-.61.87c.19,0,.47-.08.65.2-.34-.7.58-.46.32-.76,1-1.63,2.35-.14,3.25-1.25.08-1.46,1.93-25.12,1.93-26.86.29,0,.56.06.65.2a.61.61,0,0,0-.92-.37l-.05.94c-.67.32-.16-.56-.81-.49,0-.77.57-.93,1.1-1-.48-.09-1-.65-1.15.19-.46-.32.05-.93-.5-1.26-.38.22-.89,1-1.34.52V13.5c-1.08-.78-1.65,1.16-2.64.38l.1-.25c-.35-.44-1,.15-1.66-.32.18.15.33.7,0,.79-.72-.48-1.21,0-1.74-.59l-.51.75c-2.52-.15-12.49.91-15,1l.1-.12c-3.86.38-11.78.32-15.77,1.35-.62-.74-1.47-.56-2.12-.77.36.31.24.83,0,.8-2-.09-.13.51-2.12.82-2.28.68-11-.09-13-.72-1.09,1.08-2.45.26-3.51,1l.1-.26c-1.14.41-7.63-.59-9-.21l.18.16c-1.16.67-1-.51-1.92-.88a1.93,1.93,0,0,1-1.26,2l0-.26c-.57.2-1.87,1.26-2.81,1.42l0-.66c-.79.71-2.27.42-2.83.49-1.3-.28-3.3-1.44-5-.56l-1.12-1.9-.16.19S8.7,40,11,44.89l0,.67.45-.09c.54.33.79-.44.75.22l-.74-.08c.55.19.17.55,0,.92a1.32,1.32,0,0,1,.63.35c.1-.26-.08-.28-.17-.42.3-.23.71-.86,1.06-.55.56.06,0,1.07.69,1.14,3.44.52,6.77,1.29,10.24,1.14.08.27,0,.26-.12.39,1.05-.29,2-.19,2.93-.48a2.24,2.24,0,0,1,.42,1C26.9,48.53,32.32,48.48,32.41,48.62Z"/><text class="cls-2" transform="translate(20.43 -137.72) scale(1.06 1)">הרפסמ<tspan class="cls-3"><tspan x="-103.71" y="33.85">ורפתסהו שארמ רות ומאת</tspan><tspan x="-90.99" y="50.78">-סיסבב ירחסמה זכרמב</tspan><tspan x="-37.68" y="67.7">54-55623433</tspan><tspan x="-36.6" y="84.63">-החיתפ תועש</tspan><tspan x="14.1" y="101.55" xml:space="preserve"> :ה-א</tspan><tspan x="-6.19" y="118.48" xml:space="preserve"> :הקספה</tspan></tspan></text><path class="cls-4" d="M40.53,37.6l-1.19-8.72h2.18l.88,6.93a6.15,6.15,0,0,0,2-.41,3.49,3.49,0,0,0,1.3-.89,3.23,3.23,0,0,0,.7-1.32,6.79,6.79,0,0,0,.2-1.68l0-2.63H48.9v2.51a6.33,6.33,0,0,1-.86,3.48A5.19,5.19,0,0,1,45.32,37,13.14,13.14,0,0,1,40.53,37.6Zm1.33-3.42-.54-1.35a2.61,2.61,0,0,0,1.11-.52,1.7,1.7,0,0,0,.51-.92,6.39,6.39,0,0,0,.12-1.5v-1h2.18v.94a6,6,0,0,1-.31,1.92,3.29,3.29,0,0,1-1,1.44A5.6,5.6,0,0,1,41.86,34.18Z"/><path class="cls-4" d="M51.48,30.08l-1.16-.48,1.4-2.7,1.47.63Zm2.78,0-1.15-.48,1.39-2.7,1.47.63Z"/><path class="cls-4" d="M57.26,37.7l-.19-1.47A2.71,2.71,0,0,0,58,36a.79.79,0,0,0,.41-.47,2.38,2.38,0,0,0,.09-.81V28.88h4.83a3.33,3.33,0,0,1,1.42.29,2.16,2.16,0,0,1,1,.9,3.2,3.2,0,0,1,.36,1.63v5.75h-2.3V31.6a1.08,1.08,0,0,0-.29-.84,1.15,1.15,0,0,0-.8-.26H60.8v3.93a3.78,3.78,0,0,1-.37,1.83,2.31,2.31,0,0,1-1.16,1A6.7,6.7,0,0,1,57.26,37.7Z"/></svg>