<svg id="Layer_1" data-name="Layer 1" xmlns="http://www.w3.org/2000/svg" viewBox="0 0 114.63 40.85"><defs><style>.cls-1{fill:#2f486b;}.cls-2{fill:#fff;}</style></defs><path class="cls-1" d="M7.37,35.07A1.66,1.66,0,0,0,8.79,36C8.38,35.29,8,35,7.37,35.07Z"/><path class="cls-1" d="M8.8,36h0Z"/><path class="cls-1" d="M112.24,3.6l-.44,0A.67.67,0,0,0,112.24,3.6Z"/><path class="cls-1" d="M34.63,38.08l.08-1.2c1.26,0,.37,1.37,1.53,1.08.46-1.7,1.95.17,2.35-.73,0,.14.56.19.53.72.17-.92.59-.22,1-.45.13-.26-.1-.28-.2-.55l.83-.33c.33.3.41.84,0,.94,2.17.33,12.55,1.21,14.87.75-.3-.69-1-.22-1.29-1.32.62-.61.91.22,1.18-.43.24,1.63,1.35.39,1.82,2l.18-.92.3.56c2.71-1,.62-.47,3-.25,1.39-.14,2.05-1.42,2.82-1-.11,0-.42-.57-.06-.81.06.81,1-.58,1.14.24.35-.1,1.49,0,1.1-1.1.2.55,1.22.77.61,1.25.34,0,.68.2.92,0l-.44-.3c1.16-.17,1.8.69,2.55-.31L69,35.52c.7-.07,1.28-.15,1.55.94l-.71.34a4.88,4.88,0,0,0,2.8-.68l-.34,0c1.22-1.1,7.62-2,8.74-3.37l-.52-.85,1-.71c-.11,0-.46,2.75-.56,2.48,2.07-.08,12.87-.74,14.79-.17.77.47.14,1.35.13,1.48.94-.31.4-.9,1.2-.82.22.15,0,.66-.16.78.35-.1.67.2.7-.2-.44-.31-.26-1.36-.44-2.05l1,.1,0,.66c.23,0,.58-1.82,1.6-1.46,1.7.29,3.55,0,5.27.21,0,.4-.39.63-.75.87.23,0,.58-.08.79.2-.41-.7.72-.47.4-.76,1.26-1.63,2.88-.15,4-1.25.1-1.46,2.38-25.13,2.38-26.86.34,0,.68.06.79.2a.81.81,0,0,0-1.13-.37l-.06.93c-.83.33-.19-.55-1-.49,0-.76.7-.92,1.35-1-.59-.08-1.17-.64-1.41.19-.56-.31.06-.93-.61-1.25-.47.22-1.1,1-1.64.52V3c-1.33-.79-2,1.16-3.25.38l.13-.26c-.43-.44-1.27.16-2-.31.22.15.41.7-.06.79-.89-.48-1.49,0-2.14-.59l-.63.75c-3.09-.15-15.32.91-18.43,1l.12-.12C77.11,5,67.39,5,62.49,6c-.76-.74-1.8-.57-2.59-.77.44.3.29.83-.06.8-2.4-.09-.16.5-2.59.82-2.81.68-13.54-.1-16-.72-1.33,1.08-3,.26-4.31.95L37,6.8c-1.41.41-9.37-.6-11-.21l.22.16c-1.42.67-1.23-.52-2.35-.89a2,2,0,0,1-1.54,2l0-.26c-.71.2-2.3,1.26-3.46,1.42l0-.67c-1,.72-2.79.42-3.48.49-1.59-.27-4.05-1.43-6.17-.55L7.94,6.39l-.2.19s-2.21,22.9.6,27.77L8.29,35l.56-.09c.66.33,1-.44.93.22l-.92-.08c.67.19.21.54,0,.92a1.51,1.51,0,0,1,.77.35c.14-.26-.09-.28-.2-.42.36-.24.86-.86,1.3-.55.69.06.05,1.07.85,1.14,4.22.52,8.3,1.29,12.57,1.14.09.27,0,.26-.15.39,1.29-.29,2.43-.19,3.6-.48a2.07,2.07,0,0,1,.51,1C27.87,38,34.52,37.94,34.63,38.08Z"/><path class="cls-2" d="M30.26,26.32V20.47a1.08,1.08,0,0,0-.28-.84,1.13,1.13,0,0,0-.8-.25H26.05V17.76h3.77a3.4,3.4,0,0,1,1.42.28,2.11,2.11,0,0,1,1,.9,3.36,3.36,0,0,1,.35,1.64v5.74Zm-4.21,0V24.7h7.58v1.62Z"/><path class="cls-2" d="M35.08,26.32V19.51l-.19-1.75h2.3l.19,1.75v6.81Z"/><path class="cls-2" d="M40.08,26.47l-1.2-8.71h2.19l.87,6.93a6.55,6.55,0,0,0,2-.41,3.59,3.59,0,0,0,1.3-.9A3.34,3.34,0,0,0,46,22.06a6.33,6.33,0,0,0,.21-1.68l0-2.62h2.31l0,2.5a6.34,6.34,0,0,1-.87,3.48,5.2,5.2,0,0,1-2.72,2.1A13.17,13.17,0,0,1,40.08,26.47Zm1.32-3.42-.54-1.35A2.61,2.61,0,0,0,42,21.19a1.76,1.76,0,0,0,.51-.93,6.39,6.39,0,0,0,.12-1.5v-1h2.19v.95a6.2,6.2,0,0,1-.32,1.91,3.12,3.12,0,0,1-1,1.45A5.52,5.52,0,0,1,41.4,23.05Z"/><path class="cls-2" d="M49.75,29.32V22.14l.32-1h2v8.22Zm3.4-3L53,24.72a3.39,3.39,0,0,0,.91-.2,1.84,1.84,0,0,0,.69-.47,2,2,0,0,0,.44-.82A5.06,5.06,0,0,0,55.22,22l.21-2.61H49.88V17.76h8l-.08,1.39-.17,2.27a8.12,8.12,0,0,1-.31,1.9,5,5,0,0,1-.78,1.56,3.4,3.4,0,0,1-1.35,1.06A5,5,0,0,1,53.15,26.34Z"/><path class="cls-2" d="M59,26.58l-.2-1.47a3,3,0,0,0,.93-.23.84.84,0,0,0,.41-.48,2.38,2.38,0,0,0,.09-.81V17.76H65a3.32,3.32,0,0,1,1.41.28,2.18,2.18,0,0,1,1,.9,3.24,3.24,0,0,1,.36,1.64v5.74h-2.3V20.47a1.08,1.08,0,0,0-.29-.84,1.16,1.16,0,0,0-.8-.25H62.5v3.93a3.78,3.78,0,0,1-.38,1.83,2.27,2.27,0,0,1-1.15,1A6.68,6.68,0,0,1,59,26.58Z"/><path class="cls-2" d="M72.78,29.32V19.51l-.19-1.75h2.29l.19,1.75v9.81Z"/><path class="cls-2" d="M76.91,26.32V19.51l-.19-1.75H79l.19,1.75v6.81Z"/><path class="cls-2" d="M80.56,19.38V15.57h2.08v3.81Zm1.78,6.94,2.85-6.94H80.56V17.76h7v1.78l-2.88,6.78Z"/><path class="cls-2" d="M94.38,26.32V20.55c0-.78-.35-1.17-1.07-1.17H88.88V17.76h5.06a3.23,3.23,0,0,1,1.43.3,2.17,2.17,0,0,1,1,.94,3.42,3.42,0,0,1,.35,1.65v5.67Zm-5.5,0V18.73h2.3v7.59Z"/></svg>