<svg id="Layer_1" data-name="Layer 1" xmlns="http://www.w3.org/2000/svg" viewBox="0 0 112.98 46.34"><defs><style>.cls-1{fill:#2f486b;}.cls-2{fill:#fff;}</style></defs><path class="cls-1" d="M4.07,39.33c.32.73.89.8,1.42.92C5.08,39.55,4.64,39.25,4.07,39.33Z"/><path class="cls-1" d="M5.5,40.26h0Z"/><path class="cls-1" d="M108.94,7.86l-.44,0A.74.74,0,0,0,108.94,7.86Z"/><path class="cls-1" d="M31.32,42.34l.09-1.2c1.26,0,.36,1.38,1.53,1.08.46-1.7,2,.18,2.35-.73,0,.14.56.19.53.72.17-.92.59-.21,1-.45.13-.25-.1-.27-.2-.55l.83-.33c.32.3.4.84.05.94,2.16.33,12.54,1.22,14.87.76-.3-.7-1-.23-1.29-1.32.62-.62.91.21,1.18-.43.24,1.62,1.35.39,1.82,2l.18-.92.3.57c2.71-1,.62-.47,3-.25,1.39-.15,2-1.43,2.82-.95-.11,0-.42-.58-.06-.81.06.81,1-.58,1.14.23.35-.1,1.49,0,1.1-1.1.2.55,1.22.78.61,1.26.34,0,.68.19.92,0l-.44-.31c1.16-.16,1.8.7,2.55-.31l-.43-.44c.7-.07,1.28-.15,1.55.95l-.71.33a4.88,4.88,0,0,0,2.8-.68l-.34,0c1.22-1.09,7.62-2,8.74-3.37l-.52-.85,1-.71c-.11,0-.47,2.76-.56,2.48,2.07-.08,12.87-.74,14.79-.16.77.47.14,1.34.13,1.48.94-.32.4-.9,1.2-.83.22.15,0,.67-.17.79.35-.1.68.19.71-.21-.44-.3-.26-1.36-.44-2l1,.09,0,.67c.23,0,.58-1.82,1.6-1.47,1.7.29,3.55.06,5.27.21,0,.4-.39.64-.75.87.23,0,.58-.08.79.21-.41-.71.72-.47.4-.77,1.26-1.63,2.88-.14,4-1.25.1-1.46,2.37-25.12,2.37-26.86.35,0,.69.06.8.21a.8.8,0,0,0-1.13-.37l-.06.93c-.83.32-.19-.56-1-.49-.05-.77.7-.93,1.35-1-.59-.09-1.17-.65-1.41.19-.56-.32.06-.93-.61-1.26-.47.23-1.1,1-1.65.52V7.23c-1.32-.79-2,1.15-3.24.37l.13-.25c-.43-.44-1.27.15-2-.32.22.15.41.71-.06.8-.89-.48-1.49,0-2.14-.6L96.86,8c-3.09-.15-15.32.91-18.43,1l.12-.12c-4.74.38-14.46.32-19.36,1.35-.76-.74-1.8-.56-2.59-.77.44.31.29.83-.06.8-2.41-.09-.16.51-2.6.82-2.8.69-13.53-.09-16-.72-1.33,1.08-3,.26-4.31,1l.13-.26c-1.41.41-9.37-.59-11-.2L23,11c-1.42.67-1.23-.51-2.35-.88a2,2,0,0,1-1.54,2l0-.27c-.71.21-2.3,1.26-3.46,1.42l.05-.66c-1,.71-2.79.42-3.48.49-1.6-.28-4-1.44-6.17-.56L4.64,10.66l-.2.18S2.23,33.74,5,38.62l0,.66.56-.09c.66.33,1-.44.93.22l-.92-.08c.67.2.21.55,0,.92a1.69,1.69,0,0,1,.77.35c.14-.25-.09-.27-.2-.42.36-.23.86-.86,1.3-.55.69.06,0,1.07.85,1.15,4.21.51,8.3,1.28,12.57,1.13.09.28,0,.27-.15.39,1.29-.29,2.43-.18,3.6-.48a2.16,2.16,0,0,1,.51,1C24.57,42.25,31.22,42.2,31.32,42.34Z"/><path class="cls-2" d="M27.82,30.59V24.74a1.12,1.12,0,0,0-.28-.84,1.18,1.18,0,0,0-.81-.26H23.6V22h3.77a3.4,3.4,0,0,1,1.42.29,2.11,2.11,0,0,1,1,.9,3.21,3.21,0,0,1,.35,1.63v5.75Zm-4.22,0V29h7.58v1.62Z"/><path class="cls-2" d="M32.64,30.59V23.78L32.44,22h2.3l.19,1.76v6.81Z"/><path class="cls-2" d="M37.63,30.74,36.43,22h2.19L39.5,29a6.48,6.48,0,0,0,2-.41,3.57,3.57,0,0,0,1.3-.89,3.34,3.34,0,0,0,.69-1.32,6.33,6.33,0,0,0,.21-1.68l0-2.63H46l0,2.51A6.42,6.42,0,0,1,45.15,28a5.26,5.26,0,0,1-2.73,2.1A13.17,13.17,0,0,1,37.63,30.74ZM39,27.32,38.41,26a2.61,2.61,0,0,0,1.11-.52,1.73,1.73,0,0,0,.51-.92,6.39,6.39,0,0,0,.12-1.5V22h2.19V23A6.21,6.21,0,0,1,42,24.89a3.27,3.27,0,0,1-1,1.45A5.65,5.65,0,0,1,39,27.32Z"/><path class="cls-2" d="M47.3,33.59V26.4l.32-1h2v8.22Zm3.4-3L50.52,29a3.39,3.39,0,0,0,.91-.2,1.84,1.84,0,0,0,.69-.47,2.09,2.09,0,0,0,.45-.81,5.73,5.73,0,0,0,.2-1.25L53,23.64H47.43V22h8l-.08,1.4-.18,2.26a7.71,7.71,0,0,1-.31,1.91,5,5,0,0,1-.77,1.56,3.45,3.45,0,0,1-1.35,1.05A5.05,5.05,0,0,1,50.7,30.6Z"/><path class="cls-2" d="M56.51,30.84l-.19-1.47a3,3,0,0,0,.92-.23.82.82,0,0,0,.41-.47,2.38,2.38,0,0,0,.09-.81V22h4.83a3.25,3.25,0,0,1,1.41.29,2.13,2.13,0,0,1,1,.9,3.2,3.2,0,0,1,.36,1.63v5.75H63V24.74a1.08,1.08,0,0,0-.29-.84,1.17,1.17,0,0,0-.8-.26H60.05v3.93a3.78,3.78,0,0,1-.37,1.83,2.31,2.31,0,0,1-1.16,1A6.7,6.7,0,0,1,56.51,30.84Z"/><path class="cls-2" d="M71,30.59V25.4a4.07,4.07,0,0,1,.12-1,2,2,0,0,1,.32-.72H70V22h4.74v1.62h-1.2a2.14,2.14,0,0,0-.22.86c0,.33,0,.63,0,.9v5.19Z"/><path class="cls-2" d="M75.8,30.59V29h2.56a1.85,1.85,0,0,0,1-.27A1.45,1.45,0,0,0,80,28a3.06,3.06,0,0,0,.18-1.08V25.74A3,3,0,0,0,80,24.67a1.45,1.45,0,0,0-.58-.75,1.77,1.77,0,0,0-1-.28H75.8V22H79a3.65,3.65,0,0,1,1.94.48,3,3,0,0,1,1.16,1.34,4.89,4.89,0,0,1,.39,2v.89a4.9,4.9,0,0,1-.39,2,3,3,0,0,1-1.16,1.33,3.65,3.65,0,0,1-1.94.48Z"/><path class="cls-2" d="M87.71,30.59V24.74a1.12,1.12,0,0,0-.28-.84,1.14,1.14,0,0,0-.79-.26H83.53V22h3.73a3.37,3.37,0,0,1,1.42.29,2.13,2.13,0,0,1,1,.9A3.2,3.2,0,0,1,90,24.84v5.75Z"/><path class="cls-2" d="M91.6,30.59l1.1-5.78L91.43,22h2.39l1.07,2.9-1,5.67Zm3.5,0L95.3,29a3.38,3.38,0,0,0,1.84,0,1.63,1.63,0,0,0,.92-1,5,5,0,0,0,.24-1.75,4.93,4.93,0,0,0-.2-1.53,1.71,1.71,0,0,0-.6-.86,1.69,1.69,0,0,0-1-.27,1.86,1.86,0,0,0-.79.17A1.56,1.56,0,0,0,94.87,25l-.52-.93a2.93,2.93,0,0,1,1-1.66,2.72,2.72,0,0,1,1.6-.51,3.87,3.87,0,0,1,1.5.26,2.69,2.69,0,0,1,1.09.8,3.74,3.74,0,0,1,.68,1.37,7.32,7.32,0,0,1,.23,1.92A5.42,5.42,0,0,1,99.88,29,3.39,3.39,0,0,1,98,30.54,5.31,5.31,0,0,1,95.1,30.6Z"/></svg>